%TF.GenerationSoftware,KiCad,Pcbnew,8.0.6*%
%TF.CreationDate,2024-12-22T20:43:21-05:00*%
%TF.ProjectId,flowcontrol_BL,666c6f77-636f-46e7-9472-6f6c5f424c2e,rev?*%
%TF.SameCoordinates,Original*%
%TF.FileFunction,Soldermask,Bot*%
%TF.FilePolarity,Negative*%
%FSLAX46Y46*%
G04 Gerber Fmt 4.6, Leading zero omitted, Abs format (unit mm)*
G04 Created by KiCad (PCBNEW 8.0.6) date 2024-12-22 20:43:21*
%MOMM*%
%LPD*%
G01*
G04 APERTURE LIST*
%ADD10C,2.000000*%
%ADD11R,1.800000X1.800000*%
%ADD12C,1.800000*%
%ADD13R,1.350000X1.350000*%
%ADD14O,1.350000X1.350000*%
%ADD15C,1.600000*%
%ADD16O,1.600000X1.600000*%
%ADD17R,1.500000X1.500000*%
%ADD18C,1.500000*%
%ADD19R,1.600000X1.600000*%
%ADD20R,1.700000X1.700000*%
%ADD21O,1.700000X1.700000*%
%ADD22R,3.500000X2.500000*%
%ADD23O,3.500000X2.500000*%
%ADD24R,2.000000X2.000000*%
%ADD25R,2.000000X3.200000*%
G04 APERTURE END LIST*
D10*
%TO.C,SW2*%
X188352500Y-96500000D03*
X183852500Y-96500000D03*
X188352500Y-90000000D03*
X183852500Y-90000000D03*
%TD*%
D11*
%TO.C,D4*%
X252080000Y-62000000D03*
D12*
X254620000Y-62000000D03*
%TD*%
D13*
%TO.C,J3*%
X145982500Y-105500000D03*
D14*
X147982500Y-105500000D03*
%TD*%
D15*
%TO.C,R10*%
X243620000Y-81500000D03*
D16*
X228380000Y-81500000D03*
%TD*%
D15*
%TO.C,R6*%
X175852500Y-81500000D03*
D16*
X160612500Y-81500000D03*
%TD*%
D11*
%TO.C,D5*%
X135707500Y-61760000D03*
D12*
X138247500Y-61760000D03*
%TD*%
D15*
%TO.C,R1LED_R2*%
X187852500Y-81500000D03*
D16*
X187852500Y-66260000D03*
%TD*%
D15*
%TO.C,R8*%
X174852500Y-85760000D03*
D16*
X174852500Y-101000000D03*
%TD*%
D11*
%TO.C,D6*%
X120707500Y-61760000D03*
D12*
X123247500Y-61760000D03*
%TD*%
D15*
%TO.C,R7*%
X182852500Y-81500000D03*
D16*
X182852500Y-66260000D03*
%TD*%
D17*
%TO.C,U1*%
X50670000Y-65250000D03*
D18*
X53210000Y-65250000D03*
X55750000Y-65250000D03*
X58290000Y-65250000D03*
X60830000Y-65250000D03*
X63370000Y-65250000D03*
X63370000Y-50010000D03*
X60830000Y-50010000D03*
X58290000Y-50010000D03*
X55750000Y-50010000D03*
X53210000Y-50010000D03*
X50670000Y-50010000D03*
%TD*%
D10*
%TO.C,SW6*%
X135982500Y-90000000D03*
X140482500Y-90000000D03*
X135982500Y-96500000D03*
X140482500Y-96500000D03*
%TD*%
D15*
%TO.C,R1LED_R3*%
X255620000Y-81500000D03*
D16*
X255620000Y-66260000D03*
%TD*%
D15*
%TO.C,R1LED_G1*%
X140482500Y-81500000D03*
D16*
X140482500Y-66260000D03*
%TD*%
D19*
%TO.C,SW12*%
X226500000Y-89000000D03*
D16*
X234120000Y-89000000D03*
%TD*%
D15*
%TO.C,R9*%
X241620000Y-105000000D03*
D16*
X256860000Y-105000000D03*
%TD*%
D19*
%TO.C,SW13*%
X95362500Y-89500000D03*
D16*
X102982500Y-89500000D03*
%TD*%
D20*
%TO.C,REF\u002A\u002A*%
X197432500Y-54000000D03*
D21*
X194892500Y-54000000D03*
X192352500Y-54000000D03*
X189812500Y-54000000D03*
X187272500Y-54000000D03*
X184732500Y-54000000D03*
%TD*%
D10*
%TO.C,SW7*%
X199352500Y-90000000D03*
X203852500Y-90000000D03*
X199352500Y-96500000D03*
X203852500Y-96500000D03*
%TD*%
D22*
%TO.C,U1*%
X24620000Y-99550000D03*
D23*
X24620000Y-105025000D03*
X24620000Y-110500000D03*
%TD*%
D15*
%TO.C,R1LED_G2*%
X203852500Y-81500000D03*
D16*
X203852500Y-66260000D03*
%TD*%
D15*
%TO.C,R4*%
X173852500Y-105000000D03*
D16*
X189092500Y-105000000D03*
%TD*%
D11*
%TO.C,D3*%
X266845000Y-62000000D03*
D12*
X269385000Y-62000000D03*
%TD*%
D20*
%TO.C,REF\u002A\u002A*%
X134062500Y-54000000D03*
D21*
X131522500Y-54000000D03*
X128982500Y-54000000D03*
X126442500Y-54000000D03*
X123902500Y-54000000D03*
X121362500Y-54000000D03*
%TD*%
D15*
%TO.C,R11*%
X250620000Y-81500000D03*
D16*
X250620000Y-66260000D03*
%TD*%
D24*
%TO.C,SW3*%
X44620000Y-109000000D03*
D10*
X39620000Y-109000000D03*
X42120000Y-109000000D03*
D25*
X47720000Y-116500000D03*
X36520000Y-116500000D03*
D10*
X39620000Y-123500000D03*
X44620000Y-123500000D03*
%TD*%
D19*
%TO.C,UC1*%
X43300000Y-84620000D03*
D16*
X45840000Y-84620000D03*
X48380000Y-84620000D03*
X50920000Y-84620000D03*
X53460000Y-84620000D03*
X56000000Y-84620000D03*
X58540000Y-84620000D03*
X61080000Y-84620000D03*
X63620000Y-84620000D03*
X66160000Y-84620000D03*
X68700000Y-84620000D03*
X71240000Y-84620000D03*
X73780000Y-84620000D03*
X76320000Y-84620000D03*
X76320000Y-77000000D03*
X73780000Y-77000000D03*
X71240000Y-77000000D03*
X68700000Y-77000000D03*
X66160000Y-77000000D03*
X63620000Y-77000000D03*
X61080000Y-77000000D03*
X58540000Y-77000000D03*
X56000000Y-77000000D03*
X53460000Y-77000000D03*
X50920000Y-77000000D03*
X48380000Y-77000000D03*
X45840000Y-77000000D03*
X43300000Y-77000000D03*
%TD*%
D20*
%TO.C,REF\u002A\u002A*%
X40170000Y-42750000D03*
D21*
X37630000Y-42750000D03*
X35090000Y-42750000D03*
X32550000Y-42750000D03*
%TD*%
D20*
%TO.C,REF\u002A\u002A*%
X56670000Y-42750000D03*
D21*
X54130000Y-42750000D03*
X51590000Y-42750000D03*
X49050000Y-42750000D03*
%TD*%
D11*
%TO.C,D1*%
X199077500Y-62000000D03*
D12*
X201617500Y-62000000D03*
%TD*%
D20*
%TO.C,REF\u002A\u002A*%
X265280000Y-54000000D03*
D21*
X262740000Y-54000000D03*
X260200000Y-54000000D03*
X257660000Y-54000000D03*
X255120000Y-54000000D03*
X252580000Y-54000000D03*
%TD*%
D15*
%TO.C,R3*%
X111602500Y-85760000D03*
D16*
X111602500Y-101000000D03*
%TD*%
D10*
%TO.C,SW10*%
X256120000Y-96500000D03*
X251620000Y-96500000D03*
X256120000Y-90000000D03*
X251620000Y-90000000D03*
%TD*%
D11*
%TO.C,D2*%
X184045143Y-62026657D03*
D12*
X186585143Y-62026657D03*
%TD*%
D15*
%TO.C,R2*%
X119482500Y-81500000D03*
D16*
X119482500Y-66260000D03*
%TD*%
D20*
%TO.C,J1*%
X27870000Y-58370000D03*
D21*
X27870000Y-55830000D03*
X27870000Y-53290000D03*
X27870000Y-50750000D03*
%TD*%
D19*
%TO.C,SW8*%
X158732500Y-89000000D03*
D16*
X166352500Y-89000000D03*
%TD*%
D13*
%TO.C,J4*%
X277120000Y-105500000D03*
D14*
X279120000Y-105500000D03*
%TD*%
D15*
%TO.C,R12*%
X242620000Y-85760000D03*
D16*
X242620000Y-101000000D03*
%TD*%
D20*
%TO.C,REF\u002A\u002A*%
X74370000Y-42750000D03*
D21*
X71830000Y-42750000D03*
X69290000Y-42750000D03*
X66750000Y-42750000D03*
%TD*%
D15*
%TO.C,R5*%
X110732500Y-105000000D03*
D16*
X125972500Y-105000000D03*
%TD*%
D20*
%TO.C,REF\u002A\u002A*%
X134022500Y-113750000D03*
D21*
X131482500Y-113750000D03*
%TD*%
D15*
%TO.C,R1*%
X112482500Y-81500000D03*
D16*
X97242500Y-81500000D03*
%TD*%
D10*
%TO.C,SW5*%
X125482500Y-96500000D03*
X120982500Y-96500000D03*
X125482500Y-90000000D03*
X120982500Y-90000000D03*
%TD*%
%TO.C,SW11*%
X267120000Y-90000000D03*
X271620000Y-90000000D03*
X267120000Y-96500000D03*
X271620000Y-96500000D03*
%TD*%
D20*
%TO.C,REF\u002A\u002A*%
X197392500Y-114000000D03*
D21*
X194852500Y-114000000D03*
%TD*%
D13*
%TO.C,J2*%
X209352500Y-105500000D03*
D14*
X211352500Y-105500000D03*
%TD*%
D15*
%TO.C,R1LED_G3*%
X271620000Y-81500000D03*
D16*
X271620000Y-66260000D03*
%TD*%
D15*
%TO.C,R1LED_R1*%
X124482500Y-81500000D03*
D16*
X124482500Y-66260000D03*
%TD*%
D20*
%TO.C,REF\u002A\u002A*%
X260160000Y-114000000D03*
D21*
X257620000Y-114000000D03*
%TD*%
M02*
