%TF.GenerationSoftware,KiCad,Pcbnew,8.0.6*%
%TF.CreationDate,2024-12-22T20:43:21-05:00*%
%TF.ProjectId,flowcontrol_BL,666c6f77-636f-46e7-9472-6f6c5f424c2e,rev?*%
%TF.SameCoordinates,Original*%
%TF.FileFunction,Copper,L4,Bot*%
%TF.FilePolarity,Positive*%
%FSLAX46Y46*%
G04 Gerber Fmt 4.6, Leading zero omitted, Abs format (unit mm)*
G04 Created by KiCad (PCBNEW 8.0.6) date 2024-12-22 20:43:21*
%MOMM*%
%LPD*%
G01*
G04 APERTURE LIST*
%TA.AperFunction,ComponentPad*%
%ADD10C,2.000000*%
%TD*%
%TA.AperFunction,ComponentPad*%
%ADD11R,1.800000X1.800000*%
%TD*%
%TA.AperFunction,ComponentPad*%
%ADD12C,1.800000*%
%TD*%
%TA.AperFunction,ComponentPad*%
%ADD13R,1.350000X1.350000*%
%TD*%
%TA.AperFunction,ComponentPad*%
%ADD14O,1.350000X1.350000*%
%TD*%
%TA.AperFunction,ComponentPad*%
%ADD15C,1.600000*%
%TD*%
%TA.AperFunction,ComponentPad*%
%ADD16O,1.600000X1.600000*%
%TD*%
%TA.AperFunction,ComponentPad*%
%ADD17R,1.500000X1.500000*%
%TD*%
%TA.AperFunction,ComponentPad*%
%ADD18C,1.500000*%
%TD*%
%TA.AperFunction,ComponentPad*%
%ADD19R,1.600000X1.600000*%
%TD*%
%TA.AperFunction,ComponentPad*%
%ADD20R,1.700000X1.700000*%
%TD*%
%TA.AperFunction,ComponentPad*%
%ADD21O,1.700000X1.700000*%
%TD*%
%TA.AperFunction,ComponentPad*%
%ADD22R,3.500000X2.500000*%
%TD*%
%TA.AperFunction,ComponentPad*%
%ADD23O,3.500000X2.500000*%
%TD*%
%TA.AperFunction,ComponentPad*%
%ADD24R,2.000000X2.000000*%
%TD*%
%TA.AperFunction,ComponentPad*%
%ADD25R,2.000000X3.200000*%
%TD*%
%TA.AperFunction,ViaPad*%
%ADD26C,0.600000*%
%TD*%
%TA.AperFunction,Conductor*%
%ADD27C,0.200000*%
%TD*%
G04 APERTURE END LIST*
D10*
%TO.P,SW2,1,1*%
%TO.N,unconnected-(SW2-Pad1)*%
X188352500Y-96500000D03*
%TO.P,SW2,2,2*%
%TO.N,unconnected-(SW2-Pad2)*%
X183852500Y-96500000D03*
%TO.P,SW2,3,3*%
%TO.N,/Microcontroller/SOL2_SEL*%
X188352500Y-90000000D03*
%TO.P,SW2,4,4*%
%TO.N,/Input Display/VCC_E*%
X183852500Y-90000000D03*
%TD*%
D11*
%TO.P,D4,1,K*%
%TO.N,GND*%
X252080000Y-62000000D03*
D12*
%TO.P,D4,2,A*%
%TO.N,Net-(D4-A)*%
X254620000Y-62000000D03*
%TD*%
D13*
%TO.P,J3,1,Pin_1*%
%TO.N,/Input Display/12V_R*%
X145982500Y-105500000D03*
D14*
%TO.P,J3,2,Pin_2*%
%TO.N,Net-(J3-Pin_2)*%
X147982500Y-105500000D03*
%TD*%
D15*
%TO.P,R10,1*%
%TO.N,Net-(R10-Pad1)*%
X243620000Y-81500000D03*
D16*
%TO.P,R10,2*%
%TO.N,/Microcontroller/SOL3_OUT*%
X228380000Y-81500000D03*
%TD*%
D15*
%TO.P,R6,1*%
%TO.N,Net-(R1LED_G2-Pad1)*%
X175852500Y-81500000D03*
D16*
%TO.P,R6,2*%
%TO.N,/Microcontroller/SOL2_OUT*%
X160612500Y-81500000D03*
%TD*%
D11*
%TO.P,D5,1,K*%
%TO.N,GND*%
X135707500Y-61760000D03*
D12*
%TO.P,D5,2,A*%
%TO.N,Net-(D5-A)*%
X138247500Y-61760000D03*
%TD*%
D15*
%TO.P,R1LED_R2,1*%
%TO.N,/Microcontroller/SOL2_WAIT*%
X187852500Y-81500000D03*
D16*
%TO.P,R1LED_R2,2*%
%TO.N,Net-(D2-A)*%
X187852500Y-66260000D03*
%TD*%
D15*
%TO.P,R8,1*%
%TO.N,Net-(R1LED_G2-Pad1)*%
X174852500Y-85760000D03*
D16*
%TO.P,R8,2*%
%TO.N,GND*%
X174852500Y-101000000D03*
%TD*%
D11*
%TO.P,D6,1,K*%
%TO.N,GND*%
X120707500Y-61760000D03*
D12*
%TO.P,D6,2,A*%
%TO.N,Net-(D6-A)*%
X123247500Y-61760000D03*
%TD*%
D15*
%TO.P,R7,1*%
%TO.N,Net-(R1LED_G2-Pad1)*%
X182852500Y-81500000D03*
D16*
%TO.P,R7,2*%
%TO.N,GND*%
X182852500Y-66260000D03*
%TD*%
D17*
%TO.P,U1,1,e*%
%TO.N,unconnected-(U1-e-Pad1)*%
X50670000Y-65250000D03*
D18*
%TO.P,U1,2,d*%
%TO.N,unconnected-(U1-d-Pad2)*%
X53210000Y-65250000D03*
%TO.P,U1,3,DPX*%
%TO.N,unconnected-(U1-DPX-Pad3)*%
X55750000Y-65250000D03*
%TO.P,U1,4,c*%
%TO.N,unconnected-(U1-c-Pad4)*%
X58290000Y-65250000D03*
%TO.P,U1,5,g*%
%TO.N,unconnected-(U1-g-Pad5)*%
X60830000Y-65250000D03*
%TO.P,U1,6,CA4*%
%TO.N,unconnected-(U1-CA4-Pad6)*%
X63370000Y-65250000D03*
%TO.P,U1,7,b*%
%TO.N,unconnected-(U1-b-Pad7)*%
X63370000Y-50010000D03*
%TO.P,U1,8,CA3*%
%TO.N,unconnected-(U1-CA3-Pad8)*%
X60830000Y-50010000D03*
%TO.P,U1,9,CA2*%
%TO.N,unconnected-(U1-CA2-Pad9)*%
X58290000Y-50010000D03*
%TO.P,U1,10,f*%
%TO.N,unconnected-(U1-f-Pad10)*%
X55750000Y-50010000D03*
%TO.P,U1,11,a*%
%TO.N,unconnected-(U1-a-Pad11)*%
X53210000Y-50010000D03*
%TO.P,U1,12,CA1*%
%TO.N,unconnected-(U1-CA1-Pad12)*%
X50670000Y-50010000D03*
%TD*%
D10*
%TO.P,SW6,1,1*%
%TO.N,/Input Display/VCC_E*%
X135982500Y-90000000D03*
%TO.P,SW6,2,2*%
%TO.N,Net-(R1-Pad1)*%
X140482500Y-90000000D03*
%TO.P,SW6,3,3*%
%TO.N,unconnected-(SW6-Pad3)*%
X135982500Y-96500000D03*
%TO.P,SW6,4,4*%
%TO.N,unconnected-(SW6-Pad4)*%
X140482500Y-96500000D03*
%TD*%
D15*
%TO.P,R1LED_R3,1*%
%TO.N,/Microcontroller/SOL3_WAIT*%
X255620000Y-81500000D03*
D16*
%TO.P,R1LED_R3,2*%
%TO.N,Net-(D4-A)*%
X255620000Y-66260000D03*
%TD*%
D15*
%TO.P,R1LED_G1,1*%
%TO.N,Net-(R1-Pad1)*%
X140482500Y-81500000D03*
D16*
%TO.P,R1LED_G1,2*%
%TO.N,Net-(D5-A)*%
X140482500Y-66260000D03*
%TD*%
D19*
%TO.P,SW12,1,A*%
%TO.N,/Microcontroller/SOL3_MAIN*%
X226500000Y-89000000D03*
D16*
%TO.P,SW12,2,B*%
%TO.N,/Input Display/VCC_E*%
X234120000Y-89000000D03*
%TD*%
D15*
%TO.P,R9,1*%
%TO.N,GND*%
X241620000Y-105000000D03*
D16*
%TO.P,R9,2*%
%TO.N,/Microcontroller/SOL3_SEL*%
X256860000Y-105000000D03*
%TD*%
D19*
%TO.P,SW13,1,A*%
%TO.N,/Microcontroller/SOL1_MAIN*%
X95362500Y-89500000D03*
D16*
%TO.P,SW13,2,B*%
%TO.N,/Input Display/VCC_E*%
X102982500Y-89500000D03*
%TD*%
D20*
%TO.P,REF\u002A\u002A,1*%
%TO.N,N/C*%
X197432500Y-54000000D03*
D21*
%TO.P,REF\u002A\u002A,2*%
X194892500Y-54000000D03*
%TO.P,REF\u002A\u002A,3*%
X192352500Y-54000000D03*
%TO.P,REF\u002A\u002A,4*%
X189812500Y-54000000D03*
%TO.P,REF\u002A\u002A,5*%
X187272500Y-54000000D03*
%TO.P,REF\u002A\u002A,6*%
X184732500Y-54000000D03*
%TD*%
D10*
%TO.P,SW7,1,1*%
%TO.N,/Input Display/VCC_E*%
X199352500Y-90000000D03*
%TO.P,SW7,2,2*%
%TO.N,Net-(R1LED_G2-Pad1)*%
X203852500Y-90000000D03*
%TO.P,SW7,3,3*%
%TO.N,unconnected-(SW7-Pad3)*%
X199352500Y-96500000D03*
%TO.P,SW7,4,4*%
%TO.N,unconnected-(SW7-Pad4)*%
X203852500Y-96500000D03*
%TD*%
D22*
%TO.P,U1,1,IN*%
%TO.N,/Input Display/12V_R*%
X24620000Y-99550000D03*
D23*
%TO.P,U1,2,GND*%
%TO.N,GND*%
X24620000Y-105025000D03*
%TO.P,U1,3,OUT*%
%TO.N,/Input Display/VCC_E*%
X24620000Y-110500000D03*
%TD*%
D15*
%TO.P,R1LED_G2,1*%
%TO.N,Net-(R1LED_G2-Pad1)*%
X203852500Y-81500000D03*
D16*
%TO.P,R1LED_G2,2*%
%TO.N,Net-(D1-A)*%
X203852500Y-66260000D03*
%TD*%
D15*
%TO.P,R4,1*%
%TO.N,GND*%
X173852500Y-105000000D03*
D16*
%TO.P,R4,2*%
%TO.N,/Microcontroller/SOL2_SEL*%
X189092500Y-105000000D03*
%TD*%
D11*
%TO.P,D3,1,K*%
%TO.N,GND*%
X266845000Y-62000000D03*
D12*
%TO.P,D3,2,A*%
%TO.N,Net-(D3-A)*%
X269385000Y-62000000D03*
%TD*%
D20*
%TO.P,REF\u002A\u002A,1*%
%TO.N,N/C*%
X134062500Y-54000000D03*
D21*
%TO.P,REF\u002A\u002A,2*%
X131522500Y-54000000D03*
%TO.P,REF\u002A\u002A,3*%
X128982500Y-54000000D03*
%TO.P,REF\u002A\u002A,4*%
X126442500Y-54000000D03*
%TO.P,REF\u002A\u002A,5*%
X123902500Y-54000000D03*
%TO.P,REF\u002A\u002A,6*%
X121362500Y-54000000D03*
%TD*%
D15*
%TO.P,R11,1*%
%TO.N,Net-(R10-Pad1)*%
X250620000Y-81500000D03*
D16*
%TO.P,R11,2*%
%TO.N,GND*%
X250620000Y-66260000D03*
%TD*%
D24*
%TO.P,SW3,A,A*%
%TO.N,/Input Display/DT*%
X44620000Y-109000000D03*
D10*
%TO.P,SW3,B,B*%
%TO.N,GND*%
X39620000Y-109000000D03*
%TO.P,SW3,C,C*%
%TO.N,/Input Display/CLOCK*%
X42120000Y-109000000D03*
D25*
%TO.P,SW3,MP*%
%TO.N,N/C*%
X47720000Y-116500000D03*
X36520000Y-116500000D03*
D10*
%TO.P,SW3,S1,S1*%
%TO.N,/Input Display/VCC_E*%
X39620000Y-123500000D03*
%TO.P,SW3,S2,S2*%
%TO.N,/Input Display/SWITCH*%
X44620000Y-123500000D03*
%TD*%
D19*
%TO.P,UC1,1,~{RESET}/PC6*%
%TO.N,unconnected-(UC1-~{RESET}{slash}PC6-Pad1)*%
X43300000Y-84620000D03*
D16*
%TO.P,UC1,2,PD0*%
%TO.N,unconnected-(UC1-PD0-Pad2)*%
X45840000Y-84620000D03*
%TO.P,UC1,3,PD1*%
%TO.N,unconnected-(UC1-PD1-Pad3)*%
X48380000Y-84620000D03*
%TO.P,UC1,4,PD2*%
%TO.N,/Input Display/CLOCK*%
X50920000Y-84620000D03*
%TO.P,UC1,5,PD3*%
%TO.N,/Input Display/DT*%
X53460000Y-84620000D03*
%TO.P,UC1,6,PD4*%
%TO.N,/Microcontroller/SOL1_WAIT*%
X56000000Y-84620000D03*
%TO.P,UC1,7,VCC*%
%TO.N,Net-(U4-OUT)*%
X58540000Y-84620000D03*
%TO.P,UC1,8,GND*%
%TO.N,GND*%
X61080000Y-84620000D03*
%TO.P,UC1,9,XTAL1/PB6*%
%TO.N,unconnected-(UC1-XTAL1{slash}PB6-Pad9)*%
X63620000Y-84620000D03*
%TO.P,UC1,10,XTAL2/PB7*%
%TO.N,unconnected-(UC1-XTAL2{slash}PB7-Pad10)*%
X66160000Y-84620000D03*
%TO.P,UC1,11,PD5*%
%TO.N,/Microcontroller/SOL1_MAIN*%
X68700000Y-84620000D03*
%TO.P,UC1,12,PD6*%
%TO.N,/Microcontroller/SOL1_OUT*%
X71240000Y-84620000D03*
%TO.P,UC1,13,PD7*%
%TO.N,/Microcontroller/SOL1_SEL*%
X73780000Y-84620000D03*
%TO.P,UC1,14,PB0*%
%TO.N,/Microcontroller/SOL2_MAIN*%
X76320000Y-84620000D03*
%TO.P,UC1,15,PB1*%
%TO.N,/Microcontroller/SOL2_OUT*%
X76320000Y-77000000D03*
%TO.P,UC1,16,PB2*%
%TO.N,/Microcontroller/SOL2_WAIT*%
X73780000Y-77000000D03*
%TO.P,UC1,17,PB3*%
%TO.N,/Microcontroller/SOL2_SEL*%
X71240000Y-77000000D03*
%TO.P,UC1,18,PB4*%
%TO.N,/Input Display/SWITCH*%
X68700000Y-77000000D03*
%TO.P,UC1,19,PB5*%
%TO.N,unconnected-(UC1-PB5-Pad19)*%
X66160000Y-77000000D03*
%TO.P,UC1,20,AVCC*%
%TO.N,/Input Display/VCC_E*%
X63620000Y-77000000D03*
%TO.P,UC1,21,AREF*%
%TO.N,unconnected-(UC1-AREF-Pad21)*%
X61080000Y-77000000D03*
%TO.P,UC1,22,GND*%
%TO.N,GND*%
X58540000Y-77000000D03*
%TO.P,UC1,23,PC0*%
%TO.N,/Microcontroller/SOL3_MAIN*%
X56000000Y-77000000D03*
%TO.P,UC1,24,PC1*%
%TO.N,/Microcontroller/SOL3_OUT*%
X53460000Y-77000000D03*
%TO.P,UC1,25,PC2*%
%TO.N,/Microcontroller/SOL3_WAIT*%
X50920000Y-77000000D03*
%TO.P,UC1,26,PC3*%
%TO.N,/Microcontroller/SOL3_SEL*%
X48380000Y-77000000D03*
%TO.P,UC1,27,PC4*%
%TO.N,/Input Display/SDA*%
X45840000Y-77000000D03*
%TO.P,UC1,28,PC5*%
%TO.N,/Input Display/SCL*%
X43300000Y-77000000D03*
%TD*%
D20*
%TO.P,REF\u002A\u002A,1*%
%TO.N,N/C*%
X40170000Y-42750000D03*
D21*
%TO.P,REF\u002A\u002A,2*%
X37630000Y-42750000D03*
%TO.P,REF\u002A\u002A,3*%
X35090000Y-42750000D03*
%TO.P,REF\u002A\u002A,4*%
X32550000Y-42750000D03*
%TD*%
D20*
%TO.P,REF\u002A\u002A,1*%
%TO.N,N/C*%
X56670000Y-42750000D03*
D21*
%TO.P,REF\u002A\u002A,2*%
X54130000Y-42750000D03*
%TO.P,REF\u002A\u002A,3*%
X51590000Y-42750000D03*
%TO.P,REF\u002A\u002A,4*%
X49050000Y-42750000D03*
%TD*%
D11*
%TO.P,D1,1,K*%
%TO.N,GND*%
X199077500Y-62000000D03*
D12*
%TO.P,D1,2,A*%
%TO.N,Net-(D1-A)*%
X201617500Y-62000000D03*
%TD*%
D20*
%TO.P,REF\u002A\u002A,1*%
%TO.N,N/C*%
X265280000Y-54000000D03*
D21*
%TO.P,REF\u002A\u002A,2*%
X262740000Y-54000000D03*
%TO.P,REF\u002A\u002A,3*%
X260200000Y-54000000D03*
%TO.P,REF\u002A\u002A,4*%
X257660000Y-54000000D03*
%TO.P,REF\u002A\u002A,5*%
X255120000Y-54000000D03*
%TO.P,REF\u002A\u002A,6*%
X252580000Y-54000000D03*
%TD*%
D15*
%TO.P,R3,1*%
%TO.N,Net-(R1-Pad1)*%
X111602500Y-85760000D03*
D16*
%TO.P,R3,2*%
%TO.N,GND*%
X111602500Y-101000000D03*
%TD*%
D10*
%TO.P,SW10,1,1*%
%TO.N,unconnected-(SW10-Pad1)*%
X256120000Y-96500000D03*
%TO.P,SW10,2,2*%
%TO.N,unconnected-(SW10-Pad2)*%
X251620000Y-96500000D03*
%TO.P,SW10,3,3*%
%TO.N,/Microcontroller/SOL3_SEL*%
X256120000Y-90000000D03*
%TO.P,SW10,4,4*%
%TO.N,/Input Display/VCC_E*%
X251620000Y-90000000D03*
%TD*%
D11*
%TO.P,D2,1,K*%
%TO.N,GND*%
X184045143Y-62026657D03*
D12*
%TO.P,D2,2,A*%
%TO.N,Net-(D2-A)*%
X186585143Y-62026657D03*
%TD*%
D15*
%TO.P,R2,1*%
%TO.N,Net-(R1-Pad1)*%
X119482500Y-81500000D03*
D16*
%TO.P,R2,2*%
%TO.N,GND*%
X119482500Y-66260000D03*
%TD*%
D20*
%TO.P,J1,1,Pin_1*%
%TO.N,/Input Display/SCL*%
X27870000Y-58370000D03*
D21*
%TO.P,J1,2,Pin_2*%
%TO.N,/Input Display/SDA*%
X27870000Y-55830000D03*
%TO.P,J1,3,Pin_3*%
%TO.N,GND*%
X27870000Y-53290000D03*
%TO.P,J1,4,Pin_4*%
%TO.N,/Input Display/VCC_E*%
X27870000Y-50750000D03*
%TD*%
D19*
%TO.P,SW8,1,A*%
%TO.N,/Microcontroller/SOL2_MAIN*%
X158732500Y-89000000D03*
D16*
%TO.P,SW8,2,B*%
%TO.N,/Input Display/VCC_E*%
X166352500Y-89000000D03*
%TD*%
D13*
%TO.P,J4,1,Pin_1*%
%TO.N,/Input Display/12V_R*%
X277120000Y-105500000D03*
D14*
%TO.P,J4,2,Pin_2*%
%TO.N,Net-(J4-Pin_2)*%
X279120000Y-105500000D03*
%TD*%
D15*
%TO.P,R12,1*%
%TO.N,Net-(R10-Pad1)*%
X242620000Y-85760000D03*
D16*
%TO.P,R12,2*%
%TO.N,GND*%
X242620000Y-101000000D03*
%TD*%
D20*
%TO.P,REF\u002A\u002A,1*%
%TO.N,N/C*%
X74370000Y-42750000D03*
D21*
%TO.P,REF\u002A\u002A,2*%
X71830000Y-42750000D03*
%TO.P,REF\u002A\u002A,3*%
X69290000Y-42750000D03*
%TO.P,REF\u002A\u002A,4*%
X66750000Y-42750000D03*
%TD*%
D15*
%TO.P,R5,1*%
%TO.N,GND*%
X110732500Y-105000000D03*
D16*
%TO.P,R5,2*%
%TO.N,/Microcontroller/SOL1_SEL*%
X125972500Y-105000000D03*
%TD*%
D20*
%TO.P,REF\u002A\u002A,1*%
%TO.N,N/C*%
X134022500Y-113750000D03*
D21*
%TO.P,REF\u002A\u002A,2*%
X131482500Y-113750000D03*
%TD*%
D15*
%TO.P,R1,1*%
%TO.N,Net-(R1-Pad1)*%
X112482500Y-81500000D03*
D16*
%TO.P,R1,2*%
%TO.N,/Microcontroller/SOL1_OUT*%
X97242500Y-81500000D03*
%TD*%
D10*
%TO.P,SW5,1,1*%
%TO.N,unconnected-(SW5-Pad1)*%
X125482500Y-96500000D03*
%TO.P,SW5,2,2*%
%TO.N,unconnected-(SW5-Pad2)*%
X120982500Y-96500000D03*
%TO.P,SW5,3,3*%
%TO.N,/Microcontroller/SOL1_SEL*%
X125482500Y-90000000D03*
%TO.P,SW5,4,4*%
%TO.N,/Input Display/VCC_E*%
X120982500Y-90000000D03*
%TD*%
%TO.P,SW11,1,1*%
%TO.N,/Input Display/VCC_E*%
X267120000Y-90000000D03*
%TO.P,SW11,2,2*%
%TO.N,Net-(R10-Pad1)*%
X271620000Y-90000000D03*
%TO.P,SW11,3,3*%
%TO.N,unconnected-(SW11-Pad3)*%
X267120000Y-96500000D03*
%TO.P,SW11,4,4*%
%TO.N,unconnected-(SW11-Pad4)*%
X271620000Y-96500000D03*
%TD*%
D20*
%TO.P,REF\u002A\u002A,1*%
%TO.N,N/C*%
X197392500Y-114000000D03*
D21*
%TO.P,REF\u002A\u002A,2*%
X194852500Y-114000000D03*
%TD*%
D13*
%TO.P,J2,1,Pin_1*%
%TO.N,/Input Display/12V_R*%
X209352500Y-105500000D03*
D14*
%TO.P,J2,2,Pin_2*%
%TO.N,Net-(J2-Pin_2)*%
X211352500Y-105500000D03*
%TD*%
D15*
%TO.P,R1LED_G3,1*%
%TO.N,Net-(R10-Pad1)*%
X271620000Y-81500000D03*
D16*
%TO.P,R1LED_G3,2*%
%TO.N,Net-(D3-A)*%
X271620000Y-66260000D03*
%TD*%
D15*
%TO.P,R1LED_R1,1*%
%TO.N,/Microcontroller/SOL1_WAIT*%
X124482500Y-81500000D03*
D16*
%TO.P,R1LED_R1,2*%
%TO.N,Net-(D6-A)*%
X124482500Y-66260000D03*
%TD*%
D20*
%TO.P,REF\u002A\u002A,1*%
%TO.N,N/C*%
X260160000Y-114000000D03*
D21*
%TO.P,REF\u002A\u002A,2*%
X257620000Y-114000000D03*
%TD*%
D26*
%TO.N,GND*%
X273500000Y-65000000D03*
X205000000Y-65000000D03*
X58500000Y-114500000D03*
X142500000Y-64500000D03*
%TO.N,/Input Display/SWITCH*%
X54000000Y-105000000D03*
X54000000Y-107500000D03*
%TO.N,Net-(U4-OUT)*%
X56500000Y-108000000D03*
%TD*%
D27*
%TO.N,GND*%
X135707500Y-61760000D02*
X134507500Y-60560000D01*
X61080000Y-82080000D02*
X61080000Y-84620000D01*
X247000000Y-69880000D02*
X250620000Y-66260000D01*
X173852500Y-102147500D02*
X173852500Y-105000000D01*
X241620000Y-105000000D02*
X241620000Y-102000000D01*
X252080000Y-62000000D02*
X252080000Y-64800000D01*
X24500000Y-127500000D02*
X53500000Y-127500000D01*
X27870000Y-53290000D02*
X34830000Y-53290000D01*
X117740000Y-66260000D02*
X116000000Y-68000000D01*
X53500000Y-127500000D02*
X56000000Y-125000000D01*
X24620000Y-105025000D02*
X22570000Y-107075000D01*
X184045143Y-62026657D02*
X184045143Y-65067357D01*
X185245143Y-60826657D02*
X197904157Y-60826657D01*
X205000000Y-65000000D02*
X202077500Y-65000000D01*
X273500000Y-65000000D02*
X269845000Y-65000000D01*
X58500000Y-114500000D02*
X58500000Y-115500000D01*
X121907500Y-60560000D02*
X120707500Y-61760000D01*
X174852500Y-101147500D02*
X173852500Y-102147500D01*
X39620000Y-109000000D02*
X28595000Y-109000000D01*
X179500000Y-69612500D02*
X179500000Y-96500000D01*
X116000000Y-96602500D02*
X111602500Y-101000000D01*
X61080000Y-84620000D02*
X61080000Y-115420000D01*
X182852500Y-66260000D02*
X179500000Y-69612500D01*
X22570000Y-125570000D02*
X24500000Y-127500000D01*
X120707500Y-65035000D02*
X119482500Y-66260000D01*
X58540000Y-77000000D02*
X58540000Y-79540000D01*
X179500000Y-96500000D02*
X179352500Y-96500000D01*
X247000000Y-96620000D02*
X247000000Y-69880000D01*
X119482500Y-66260000D02*
X117740000Y-66260000D01*
X184045143Y-62026657D02*
X185245143Y-60826657D01*
X179352500Y-96500000D02*
X174852500Y-101000000D01*
X58540000Y-79540000D02*
X61080000Y-82080000D01*
X22570000Y-107075000D02*
X22570000Y-125570000D01*
X120707500Y-61760000D02*
X120707500Y-65035000D01*
X253280000Y-60800000D02*
X265645000Y-60800000D01*
X174852500Y-101000000D02*
X174852500Y-101147500D01*
X265645000Y-60800000D02*
X266845000Y-62000000D01*
X241620000Y-102000000D02*
X242620000Y-101000000D01*
X110732500Y-101870000D02*
X111602500Y-101000000D01*
X110732500Y-105000000D02*
X110732500Y-101870000D01*
X34830000Y-53290000D02*
X58540000Y-77000000D01*
X252080000Y-62000000D02*
X253280000Y-60800000D01*
X134507500Y-60560000D02*
X121907500Y-60560000D01*
X252080000Y-64800000D02*
X250620000Y-66260000D01*
X242620000Y-101000000D02*
X247000000Y-96620000D01*
X138447500Y-64500000D02*
X135707500Y-61760000D01*
X197904157Y-60826657D02*
X199077500Y-62000000D01*
X116000000Y-68000000D02*
X116000000Y-96602500D01*
X28595000Y-109000000D02*
X24620000Y-105025000D01*
X269845000Y-65000000D02*
X266845000Y-62000000D01*
X142500000Y-64500000D02*
X138447500Y-64500000D01*
X184045143Y-65067357D02*
X182852500Y-66260000D01*
X61080000Y-115420000D02*
X61000000Y-115500000D01*
X202077500Y-65000000D02*
X199077500Y-62000000D01*
%TO.N,/Input Display/SDA*%
X45840000Y-73800000D02*
X45840000Y-77000000D01*
X27870000Y-55830000D02*
X45840000Y-73800000D01*
%TO.N,/Input Display/SCL*%
X43300000Y-73800000D02*
X43300000Y-77000000D01*
X27870000Y-58370000D02*
X43300000Y-73800000D01*
%TO.N,/Input Display/CLOCK*%
X50920000Y-84620000D02*
X50920000Y-93080000D01*
X42500000Y-102000000D02*
X42120000Y-102380000D01*
X42500000Y-101500000D02*
X42500000Y-102000000D01*
X50920000Y-93080000D02*
X42500000Y-101500000D01*
X42120000Y-102380000D02*
X42120000Y-109000000D01*
%TO.N,/Input Display/DT*%
X53460000Y-84620000D02*
X53460000Y-94040000D01*
X53460000Y-94040000D02*
X44620000Y-102880000D01*
X44620000Y-102880000D02*
X44620000Y-109000000D01*
%TO.N,/Input Display/SWITCH*%
X54000000Y-107500000D02*
X54000000Y-105000000D01*
%TO.N,Net-(U4-OUT)*%
X58540000Y-105960000D02*
X56500000Y-108000000D01*
X58540000Y-84620000D02*
X58540000Y-105960000D01*
%TD*%
%TA.AperFunction,Conductor*%
%TO.N,GND*%
G36*
X74943039Y-115019685D02*
G01*
X74988794Y-115072489D01*
X75000000Y-115124000D01*
X75000000Y-125376000D01*
X74980315Y-125443039D01*
X74927511Y-125488794D01*
X74876000Y-125500000D01*
X55124000Y-125500000D01*
X55056961Y-125480315D01*
X55011206Y-125427511D01*
X55000000Y-125376000D01*
X55000000Y-115124000D01*
X55019685Y-115056961D01*
X55072489Y-115011206D01*
X55124000Y-115000000D01*
X74876000Y-115000000D01*
X74943039Y-115019685D01*
G37*
%TD.AperFunction*%
%TD*%
M02*
