M48
; DRILL file {KiCad 8.0.6} date 2024-12-22T20:43:36-0500
; FORMAT={-:-/ absolute / inch / decimal}
; #@! TF.CreationDate,2024-12-22T20:43:36-05:00
; #@! TF.GenerationSoftware,Kicad,Pcbnew,8.0.6
; #@! TF.FileFunction,Plated,1,4,PTH
FMAT,2
INCH
; #@! TA.AperFunction,Plated,PTH,ViaDrill
T1C0.0118
; #@! TA.AperFunction,Plated,PTH,ComponentDrill
T2C0.0315
; #@! TA.AperFunction,Plated,PTH,ComponentDrill
T3C0.0354
; #@! TA.AperFunction,Plated,PTH,ComponentDrill
T4C0.0394
; #@! TA.AperFunction,Plated,PTH,ComponentDrill
T5C0.0433
; #@! TA.AperFunction,Plated,PTH,ComponentDrill
T6C0.0591
%
G90
G05
T1
X2.126Y-4.1339
X2.126Y-4.2323
X2.2244Y-4.252
X2.3031Y-4.5079
X5.6102Y-2.5394
X8.0709Y-2.5591
X10.7677Y-2.5591
T2
X1.7047Y-3.0315
X1.7047Y-3.3315
X1.8047Y-3.0315
X1.8047Y-3.3315
X1.9047Y-3.0315
X1.9047Y-3.3315
X2.0047Y-3.0315
X2.0047Y-3.3315
X2.1047Y-3.0315
X2.1047Y-3.3315
X2.2047Y-3.0315
X2.2047Y-3.3315
X2.3047Y-3.0315
X2.3047Y-3.3315
X2.4047Y-3.0315
X2.4047Y-3.3315
X2.5047Y-3.0315
X2.5047Y-3.3315
X2.6047Y-3.0315
X2.6047Y-3.3315
X2.7047Y-3.0315
X2.7047Y-3.3315
X2.8047Y-3.0315
X2.8047Y-3.3315
X2.9047Y-3.0315
X2.9047Y-3.3315
X3.0047Y-3.0315
X3.0047Y-3.3315
X3.7544Y-3.5236
X3.8284Y-3.2087
X4.0544Y-3.5236
X4.3595Y-4.1339
X4.3938Y-3.3764
X4.3938Y-3.9764
X4.4284Y-3.2087
X4.704Y-2.6087
X4.704Y-3.2087
X4.9009Y-2.6087
X4.9009Y-3.2087
X4.9595Y-4.1339
X5.5308Y-2.6087
X5.5308Y-3.2087
X5.7473Y-4.1535
X5.8261Y-4.1535
X6.2493Y-3.5039
X6.3233Y-3.2087
X6.5493Y-3.5039
X6.8446Y-4.1339
X6.884Y-3.3764
X6.884Y-3.9764
X6.9233Y-3.2087
X7.1989Y-2.6087
X7.1989Y-3.2087
X7.3958Y-2.6087
X7.3958Y-3.2087
X7.4446Y-4.1339
X8.0257Y-2.6087
X8.0257Y-3.2087
X8.2422Y-4.1535
X8.321Y-4.1535
X8.9173Y-3.5039
X8.9913Y-3.2087
X9.2173Y-3.5039
X9.5126Y-4.1339
X9.552Y-3.3764
X9.552Y-3.9764
X9.5913Y-3.2087
X9.8669Y-2.6087
X9.8669Y-3.2087
X10.0638Y-2.6087
X10.0638Y-3.2087
X10.1126Y-4.1339
X10.6937Y-2.6087
X10.6937Y-3.2087
X10.9102Y-4.1535
X10.989Y-4.1535
T3
X4.7523Y-2.4315
X4.8523Y-2.4315
X5.3428Y-2.4315
X5.4428Y-2.4315
X7.2459Y-2.442
X7.3459Y-2.442
X7.8377Y-2.4409
X7.9377Y-2.4409
X9.9244Y-2.4409
X10.0244Y-2.4409
X10.5057Y-2.4409
X10.6057Y-2.4409
T4
X1.0972Y-1.998
X1.0972Y-2.098
X1.0972Y-2.198
X1.0972Y-2.298
X1.2815Y-1.6831
X1.3815Y-1.6831
X1.4815Y-1.6831
X1.5598Y-4.2913
X1.5598Y-4.8622
X1.5815Y-1.6831
X1.6583Y-4.2913
X1.7567Y-4.2913
X1.7567Y-4.8622
X1.9311Y-1.6831
X1.9949Y-1.9689
X1.9949Y-2.5689
X2.0311Y-1.6831
X2.0949Y-1.9689
X2.0949Y-2.5689
X2.1311Y-1.6831
X2.1949Y-1.9689
X2.1949Y-2.5689
X2.2311Y-1.6831
X2.2949Y-1.9689
X2.2949Y-2.5689
X2.3949Y-1.9689
X2.3949Y-2.5689
X2.4949Y-1.9689
X2.4949Y-2.5689
X2.628Y-1.6831
X2.728Y-1.6831
X2.828Y-1.6831
X2.928Y-1.6831
X4.7781Y-2.126
X4.8781Y-2.126
X4.9781Y-2.126
X5.0781Y-2.126
X5.1765Y-4.4783
X5.1781Y-2.126
X5.2765Y-4.4783
X5.2781Y-2.126
X7.2729Y-2.126
X7.3729Y-2.126
X7.4729Y-2.126
X7.5729Y-2.126
X7.6714Y-4.4882
X7.6729Y-2.126
X7.7714Y-4.4882
X7.7729Y-2.126
X9.9441Y-2.126
X10.0441Y-2.126
X10.1425Y-4.4882
X10.1441Y-2.126
X10.2425Y-4.4882
X10.2441Y-2.126
X10.3441Y-2.126
X10.4441Y-2.126
T5
X4.7631Y-3.5433
X4.7631Y-3.7992
X4.9403Y-3.5433
X4.9403Y-3.7992
X5.3536Y-3.5433
X5.3536Y-3.7992
X5.5308Y-3.5433
X5.5308Y-3.7992
X7.2383Y-3.5433
X7.2383Y-3.7992
X7.4155Y-3.5433
X7.4155Y-3.7992
X7.8485Y-3.5433
X7.8485Y-3.7992
X8.0257Y-3.5433
X8.0257Y-3.7992
X9.9063Y-3.5433
X9.9063Y-3.7992
X10.0835Y-3.5433
X10.0835Y-3.7992
X10.5165Y-3.5433
X10.5165Y-3.7992
X10.6937Y-3.5433
X10.6937Y-3.7992
T6
X0.9693Y-3.9193
X0.9693Y-4.1348
X0.9693Y-4.3504
T6
G00X1.4378Y-4.561
M15
G01X1.4378Y-4.6122
M16
G05
G00X1.8787Y-4.561
M15
G01X1.8787Y-4.6122
M16
G05
M30
