%TF.GenerationSoftware,KiCad,Pcbnew,8.0.6*%
%TF.CreationDate,2024-12-22T20:43:21-05:00*%
%TF.ProjectId,flowcontrol_BL,666c6f77-636f-46e7-9472-6f6c5f424c2e,rev?*%
%TF.SameCoordinates,Original*%
%TF.FileFunction,Legend,Top*%
%TF.FilePolarity,Positive*%
%FSLAX46Y46*%
G04 Gerber Fmt 4.6, Leading zero omitted, Abs format (unit mm)*
G04 Created by KiCad (PCBNEW 8.0.6) date 2024-12-22 20:43:21*
%MOMM*%
%LPD*%
G01*
G04 APERTURE LIST*
%ADD10C,0.150000*%
%ADD11C,0.120000*%
G04 APERTURE END LIST*
D10*
X190759700Y-94583332D02*
X190807319Y-94440475D01*
X190807319Y-94440475D02*
X190807319Y-94202380D01*
X190807319Y-94202380D02*
X190759700Y-94107142D01*
X190759700Y-94107142D02*
X190712080Y-94059523D01*
X190712080Y-94059523D02*
X190616842Y-94011904D01*
X190616842Y-94011904D02*
X190521604Y-94011904D01*
X190521604Y-94011904D02*
X190426366Y-94059523D01*
X190426366Y-94059523D02*
X190378747Y-94107142D01*
X190378747Y-94107142D02*
X190331128Y-94202380D01*
X190331128Y-94202380D02*
X190283509Y-94392856D01*
X190283509Y-94392856D02*
X190235890Y-94488094D01*
X190235890Y-94488094D02*
X190188271Y-94535713D01*
X190188271Y-94535713D02*
X190093033Y-94583332D01*
X190093033Y-94583332D02*
X189997795Y-94583332D01*
X189997795Y-94583332D02*
X189902557Y-94535713D01*
X189902557Y-94535713D02*
X189854938Y-94488094D01*
X189854938Y-94488094D02*
X189807319Y-94392856D01*
X189807319Y-94392856D02*
X189807319Y-94154761D01*
X189807319Y-94154761D02*
X189854938Y-94011904D01*
X189807319Y-93678570D02*
X190807319Y-93440475D01*
X190807319Y-93440475D02*
X190093033Y-93249999D01*
X190093033Y-93249999D02*
X190807319Y-93059523D01*
X190807319Y-93059523D02*
X189807319Y-92821428D01*
X189902557Y-92488094D02*
X189854938Y-92440475D01*
X189854938Y-92440475D02*
X189807319Y-92345237D01*
X189807319Y-92345237D02*
X189807319Y-92107142D01*
X189807319Y-92107142D02*
X189854938Y-92011904D01*
X189854938Y-92011904D02*
X189902557Y-91964285D01*
X189902557Y-91964285D02*
X189997795Y-91916666D01*
X189997795Y-91916666D02*
X190093033Y-91916666D01*
X190093033Y-91916666D02*
X190235890Y-91964285D01*
X190235890Y-91964285D02*
X190807319Y-92535713D01*
X190807319Y-92535713D02*
X190807319Y-91916666D01*
X252611905Y-59494819D02*
X252611905Y-58494819D01*
X252611905Y-58494819D02*
X252850000Y-58494819D01*
X252850000Y-58494819D02*
X252992857Y-58542438D01*
X252992857Y-58542438D02*
X253088095Y-58637676D01*
X253088095Y-58637676D02*
X253135714Y-58732914D01*
X253135714Y-58732914D02*
X253183333Y-58923390D01*
X253183333Y-58923390D02*
X253183333Y-59066247D01*
X253183333Y-59066247D02*
X253135714Y-59256723D01*
X253135714Y-59256723D02*
X253088095Y-59351961D01*
X253088095Y-59351961D02*
X252992857Y-59447200D01*
X252992857Y-59447200D02*
X252850000Y-59494819D01*
X252850000Y-59494819D02*
X252611905Y-59494819D01*
X254040476Y-58828152D02*
X254040476Y-59494819D01*
X253802381Y-58447200D02*
X253564286Y-59161485D01*
X253564286Y-59161485D02*
X254183333Y-59161485D01*
X142937319Y-105833333D02*
X143651604Y-105833333D01*
X143651604Y-105833333D02*
X143794461Y-105880952D01*
X143794461Y-105880952D02*
X143889700Y-105976190D01*
X143889700Y-105976190D02*
X143937319Y-106119047D01*
X143937319Y-106119047D02*
X143937319Y-106214285D01*
X142937319Y-105452380D02*
X142937319Y-104833333D01*
X142937319Y-104833333D02*
X143318271Y-105166666D01*
X143318271Y-105166666D02*
X143318271Y-105023809D01*
X143318271Y-105023809D02*
X143365890Y-104928571D01*
X143365890Y-104928571D02*
X143413509Y-104880952D01*
X143413509Y-104880952D02*
X143508747Y-104833333D01*
X143508747Y-104833333D02*
X143746842Y-104833333D01*
X143746842Y-104833333D02*
X143842080Y-104880952D01*
X143842080Y-104880952D02*
X143889700Y-104928571D01*
X143889700Y-104928571D02*
X143937319Y-105023809D01*
X143937319Y-105023809D02*
X143937319Y-105309523D01*
X143937319Y-105309523D02*
X143889700Y-105404761D01*
X143889700Y-105404761D02*
X143842080Y-105452380D01*
X235357142Y-84674819D02*
X235023809Y-84198628D01*
X234785714Y-84674819D02*
X234785714Y-83674819D01*
X234785714Y-83674819D02*
X235166666Y-83674819D01*
X235166666Y-83674819D02*
X235261904Y-83722438D01*
X235261904Y-83722438D02*
X235309523Y-83770057D01*
X235309523Y-83770057D02*
X235357142Y-83865295D01*
X235357142Y-83865295D02*
X235357142Y-84008152D01*
X235357142Y-84008152D02*
X235309523Y-84103390D01*
X235309523Y-84103390D02*
X235261904Y-84151009D01*
X235261904Y-84151009D02*
X235166666Y-84198628D01*
X235166666Y-84198628D02*
X234785714Y-84198628D01*
X236309523Y-84674819D02*
X235738095Y-84674819D01*
X236023809Y-84674819D02*
X236023809Y-83674819D01*
X236023809Y-83674819D02*
X235928571Y-83817676D01*
X235928571Y-83817676D02*
X235833333Y-83912914D01*
X235833333Y-83912914D02*
X235738095Y-83960533D01*
X236928571Y-83674819D02*
X237023809Y-83674819D01*
X237023809Y-83674819D02*
X237119047Y-83722438D01*
X237119047Y-83722438D02*
X237166666Y-83770057D01*
X237166666Y-83770057D02*
X237214285Y-83865295D01*
X237214285Y-83865295D02*
X237261904Y-84055771D01*
X237261904Y-84055771D02*
X237261904Y-84293866D01*
X237261904Y-84293866D02*
X237214285Y-84484342D01*
X237214285Y-84484342D02*
X237166666Y-84579580D01*
X237166666Y-84579580D02*
X237119047Y-84627200D01*
X237119047Y-84627200D02*
X237023809Y-84674819D01*
X237023809Y-84674819D02*
X236928571Y-84674819D01*
X236928571Y-84674819D02*
X236833333Y-84627200D01*
X236833333Y-84627200D02*
X236785714Y-84579580D01*
X236785714Y-84579580D02*
X236738095Y-84484342D01*
X236738095Y-84484342D02*
X236690476Y-84293866D01*
X236690476Y-84293866D02*
X236690476Y-84055771D01*
X236690476Y-84055771D02*
X236738095Y-83865295D01*
X236738095Y-83865295D02*
X236785714Y-83770057D01*
X236785714Y-83770057D02*
X236833333Y-83722438D01*
X236833333Y-83722438D02*
X236928571Y-83674819D01*
X168065833Y-84674819D02*
X167732500Y-84198628D01*
X167494405Y-84674819D02*
X167494405Y-83674819D01*
X167494405Y-83674819D02*
X167875357Y-83674819D01*
X167875357Y-83674819D02*
X167970595Y-83722438D01*
X167970595Y-83722438D02*
X168018214Y-83770057D01*
X168018214Y-83770057D02*
X168065833Y-83865295D01*
X168065833Y-83865295D02*
X168065833Y-84008152D01*
X168065833Y-84008152D02*
X168018214Y-84103390D01*
X168018214Y-84103390D02*
X167970595Y-84151009D01*
X167970595Y-84151009D02*
X167875357Y-84198628D01*
X167875357Y-84198628D02*
X167494405Y-84198628D01*
X168922976Y-83674819D02*
X168732500Y-83674819D01*
X168732500Y-83674819D02*
X168637262Y-83722438D01*
X168637262Y-83722438D02*
X168589643Y-83770057D01*
X168589643Y-83770057D02*
X168494405Y-83912914D01*
X168494405Y-83912914D02*
X168446786Y-84103390D01*
X168446786Y-84103390D02*
X168446786Y-84484342D01*
X168446786Y-84484342D02*
X168494405Y-84579580D01*
X168494405Y-84579580D02*
X168542024Y-84627200D01*
X168542024Y-84627200D02*
X168637262Y-84674819D01*
X168637262Y-84674819D02*
X168827738Y-84674819D01*
X168827738Y-84674819D02*
X168922976Y-84627200D01*
X168922976Y-84627200D02*
X168970595Y-84579580D01*
X168970595Y-84579580D02*
X169018214Y-84484342D01*
X169018214Y-84484342D02*
X169018214Y-84246247D01*
X169018214Y-84246247D02*
X168970595Y-84151009D01*
X168970595Y-84151009D02*
X168922976Y-84103390D01*
X168922976Y-84103390D02*
X168827738Y-84055771D01*
X168827738Y-84055771D02*
X168637262Y-84055771D01*
X168637262Y-84055771D02*
X168542024Y-84103390D01*
X168542024Y-84103390D02*
X168494405Y-84151009D01*
X168494405Y-84151009D02*
X168446786Y-84246247D01*
X136239405Y-59254819D02*
X136239405Y-58254819D01*
X136239405Y-58254819D02*
X136477500Y-58254819D01*
X136477500Y-58254819D02*
X136620357Y-58302438D01*
X136620357Y-58302438D02*
X136715595Y-58397676D01*
X136715595Y-58397676D02*
X136763214Y-58492914D01*
X136763214Y-58492914D02*
X136810833Y-58683390D01*
X136810833Y-58683390D02*
X136810833Y-58826247D01*
X136810833Y-58826247D02*
X136763214Y-59016723D01*
X136763214Y-59016723D02*
X136715595Y-59111961D01*
X136715595Y-59111961D02*
X136620357Y-59207200D01*
X136620357Y-59207200D02*
X136477500Y-59254819D01*
X136477500Y-59254819D02*
X136239405Y-59254819D01*
X137715595Y-58254819D02*
X137239405Y-58254819D01*
X137239405Y-58254819D02*
X137191786Y-58731009D01*
X137191786Y-58731009D02*
X137239405Y-58683390D01*
X137239405Y-58683390D02*
X137334643Y-58635771D01*
X137334643Y-58635771D02*
X137572738Y-58635771D01*
X137572738Y-58635771D02*
X137667976Y-58683390D01*
X137667976Y-58683390D02*
X137715595Y-58731009D01*
X137715595Y-58731009D02*
X137763214Y-58826247D01*
X137763214Y-58826247D02*
X137763214Y-59064342D01*
X137763214Y-59064342D02*
X137715595Y-59159580D01*
X137715595Y-59159580D02*
X137667976Y-59207200D01*
X137667976Y-59207200D02*
X137572738Y-59254819D01*
X137572738Y-59254819D02*
X137334643Y-59254819D01*
X137334643Y-59254819D02*
X137239405Y-59207200D01*
X137239405Y-59207200D02*
X137191786Y-59159580D01*
X185587319Y-76760952D02*
X185111128Y-77094285D01*
X185587319Y-77332380D02*
X184587319Y-77332380D01*
X184587319Y-77332380D02*
X184587319Y-76951428D01*
X184587319Y-76951428D02*
X184634938Y-76856190D01*
X184634938Y-76856190D02*
X184682557Y-76808571D01*
X184682557Y-76808571D02*
X184777795Y-76760952D01*
X184777795Y-76760952D02*
X184920652Y-76760952D01*
X184920652Y-76760952D02*
X185015890Y-76808571D01*
X185015890Y-76808571D02*
X185063509Y-76856190D01*
X185063509Y-76856190D02*
X185111128Y-76951428D01*
X185111128Y-76951428D02*
X185111128Y-77332380D01*
X185587319Y-75808571D02*
X185587319Y-76379999D01*
X185587319Y-76094285D02*
X184587319Y-76094285D01*
X184587319Y-76094285D02*
X184730176Y-76189523D01*
X184730176Y-76189523D02*
X184825414Y-76284761D01*
X184825414Y-76284761D02*
X184873033Y-76379999D01*
X185587319Y-74903809D02*
X185587319Y-75379999D01*
X185587319Y-75379999D02*
X184587319Y-75379999D01*
X185063509Y-74570475D02*
X185063509Y-74237142D01*
X185587319Y-74094285D02*
X185587319Y-74570475D01*
X185587319Y-74570475D02*
X184587319Y-74570475D01*
X184587319Y-74570475D02*
X184587319Y-74094285D01*
X185587319Y-73665713D02*
X184587319Y-73665713D01*
X184587319Y-73665713D02*
X184587319Y-73427618D01*
X184587319Y-73427618D02*
X184634938Y-73284761D01*
X184634938Y-73284761D02*
X184730176Y-73189523D01*
X184730176Y-73189523D02*
X184825414Y-73141904D01*
X184825414Y-73141904D02*
X185015890Y-73094285D01*
X185015890Y-73094285D02*
X185158747Y-73094285D01*
X185158747Y-73094285D02*
X185349223Y-73141904D01*
X185349223Y-73141904D02*
X185444461Y-73189523D01*
X185444461Y-73189523D02*
X185539700Y-73284761D01*
X185539700Y-73284761D02*
X185587319Y-73427618D01*
X185587319Y-73427618D02*
X185587319Y-73665713D01*
X185682557Y-72903809D02*
X185682557Y-72141904D01*
X185587319Y-71332380D02*
X185111128Y-71665713D01*
X185587319Y-71903808D02*
X184587319Y-71903808D01*
X184587319Y-71903808D02*
X184587319Y-71522856D01*
X184587319Y-71522856D02*
X184634938Y-71427618D01*
X184634938Y-71427618D02*
X184682557Y-71379999D01*
X184682557Y-71379999D02*
X184777795Y-71332380D01*
X184777795Y-71332380D02*
X184920652Y-71332380D01*
X184920652Y-71332380D02*
X185015890Y-71379999D01*
X185015890Y-71379999D02*
X185063509Y-71427618D01*
X185063509Y-71427618D02*
X185111128Y-71522856D01*
X185111128Y-71522856D02*
X185111128Y-71903808D01*
X184682557Y-70951427D02*
X184634938Y-70903808D01*
X184634938Y-70903808D02*
X184587319Y-70808570D01*
X184587319Y-70808570D02*
X184587319Y-70570475D01*
X184587319Y-70570475D02*
X184634938Y-70475237D01*
X184634938Y-70475237D02*
X184682557Y-70427618D01*
X184682557Y-70427618D02*
X184777795Y-70379999D01*
X184777795Y-70379999D02*
X184873033Y-70379999D01*
X184873033Y-70379999D02*
X185015890Y-70427618D01*
X185015890Y-70427618D02*
X185587319Y-70999046D01*
X185587319Y-70999046D02*
X185587319Y-70379999D01*
X60333095Y-104459819D02*
X60333095Y-105269342D01*
X60333095Y-105269342D02*
X60380714Y-105364580D01*
X60380714Y-105364580D02*
X60428333Y-105412200D01*
X60428333Y-105412200D02*
X60523571Y-105459819D01*
X60523571Y-105459819D02*
X60714047Y-105459819D01*
X60714047Y-105459819D02*
X60809285Y-105412200D01*
X60809285Y-105412200D02*
X60856904Y-105364580D01*
X60856904Y-105364580D02*
X60904523Y-105269342D01*
X60904523Y-105269342D02*
X60904523Y-104459819D01*
X61809285Y-104793152D02*
X61809285Y-105459819D01*
X61571190Y-104412200D02*
X61333095Y-105126485D01*
X61333095Y-105126485D02*
X61952142Y-105126485D01*
X178027319Y-93546666D02*
X177551128Y-93879999D01*
X178027319Y-94118094D02*
X177027319Y-94118094D01*
X177027319Y-94118094D02*
X177027319Y-93737142D01*
X177027319Y-93737142D02*
X177074938Y-93641904D01*
X177074938Y-93641904D02*
X177122557Y-93594285D01*
X177122557Y-93594285D02*
X177217795Y-93546666D01*
X177217795Y-93546666D02*
X177360652Y-93546666D01*
X177360652Y-93546666D02*
X177455890Y-93594285D01*
X177455890Y-93594285D02*
X177503509Y-93641904D01*
X177503509Y-93641904D02*
X177551128Y-93737142D01*
X177551128Y-93737142D02*
X177551128Y-94118094D01*
X177455890Y-92975237D02*
X177408271Y-93070475D01*
X177408271Y-93070475D02*
X177360652Y-93118094D01*
X177360652Y-93118094D02*
X177265414Y-93165713D01*
X177265414Y-93165713D02*
X177217795Y-93165713D01*
X177217795Y-93165713D02*
X177122557Y-93118094D01*
X177122557Y-93118094D02*
X177074938Y-93070475D01*
X177074938Y-93070475D02*
X177027319Y-92975237D01*
X177027319Y-92975237D02*
X177027319Y-92784761D01*
X177027319Y-92784761D02*
X177074938Y-92689523D01*
X177074938Y-92689523D02*
X177122557Y-92641904D01*
X177122557Y-92641904D02*
X177217795Y-92594285D01*
X177217795Y-92594285D02*
X177265414Y-92594285D01*
X177265414Y-92594285D02*
X177360652Y-92641904D01*
X177360652Y-92641904D02*
X177408271Y-92689523D01*
X177408271Y-92689523D02*
X177455890Y-92784761D01*
X177455890Y-92784761D02*
X177455890Y-92975237D01*
X177455890Y-92975237D02*
X177503509Y-93070475D01*
X177503509Y-93070475D02*
X177551128Y-93118094D01*
X177551128Y-93118094D02*
X177646366Y-93165713D01*
X177646366Y-93165713D02*
X177836842Y-93165713D01*
X177836842Y-93165713D02*
X177932080Y-93118094D01*
X177932080Y-93118094D02*
X177979700Y-93070475D01*
X177979700Y-93070475D02*
X178027319Y-92975237D01*
X178027319Y-92975237D02*
X178027319Y-92784761D01*
X178027319Y-92784761D02*
X177979700Y-92689523D01*
X177979700Y-92689523D02*
X177932080Y-92641904D01*
X177932080Y-92641904D02*
X177836842Y-92594285D01*
X177836842Y-92594285D02*
X177646366Y-92594285D01*
X177646366Y-92594285D02*
X177551128Y-92641904D01*
X177551128Y-92641904D02*
X177503509Y-92689523D01*
X177503509Y-92689523D02*
X177455890Y-92784761D01*
X121239405Y-59254819D02*
X121239405Y-58254819D01*
X121239405Y-58254819D02*
X121477500Y-58254819D01*
X121477500Y-58254819D02*
X121620357Y-58302438D01*
X121620357Y-58302438D02*
X121715595Y-58397676D01*
X121715595Y-58397676D02*
X121763214Y-58492914D01*
X121763214Y-58492914D02*
X121810833Y-58683390D01*
X121810833Y-58683390D02*
X121810833Y-58826247D01*
X121810833Y-58826247D02*
X121763214Y-59016723D01*
X121763214Y-59016723D02*
X121715595Y-59111961D01*
X121715595Y-59111961D02*
X121620357Y-59207200D01*
X121620357Y-59207200D02*
X121477500Y-59254819D01*
X121477500Y-59254819D02*
X121239405Y-59254819D01*
X122667976Y-58254819D02*
X122477500Y-58254819D01*
X122477500Y-58254819D02*
X122382262Y-58302438D01*
X122382262Y-58302438D02*
X122334643Y-58350057D01*
X122334643Y-58350057D02*
X122239405Y-58492914D01*
X122239405Y-58492914D02*
X122191786Y-58683390D01*
X122191786Y-58683390D02*
X122191786Y-59064342D01*
X122191786Y-59064342D02*
X122239405Y-59159580D01*
X122239405Y-59159580D02*
X122287024Y-59207200D01*
X122287024Y-59207200D02*
X122382262Y-59254819D01*
X122382262Y-59254819D02*
X122572738Y-59254819D01*
X122572738Y-59254819D02*
X122667976Y-59207200D01*
X122667976Y-59207200D02*
X122715595Y-59159580D01*
X122715595Y-59159580D02*
X122763214Y-59064342D01*
X122763214Y-59064342D02*
X122763214Y-58826247D01*
X122763214Y-58826247D02*
X122715595Y-58731009D01*
X122715595Y-58731009D02*
X122667976Y-58683390D01*
X122667976Y-58683390D02*
X122572738Y-58635771D01*
X122572738Y-58635771D02*
X122382262Y-58635771D01*
X122382262Y-58635771D02*
X122287024Y-58683390D01*
X122287024Y-58683390D02*
X122239405Y-58731009D01*
X122239405Y-58731009D02*
X122191786Y-58826247D01*
X180587319Y-74046666D02*
X180111128Y-74379999D01*
X180587319Y-74618094D02*
X179587319Y-74618094D01*
X179587319Y-74618094D02*
X179587319Y-74237142D01*
X179587319Y-74237142D02*
X179634938Y-74141904D01*
X179634938Y-74141904D02*
X179682557Y-74094285D01*
X179682557Y-74094285D02*
X179777795Y-74046666D01*
X179777795Y-74046666D02*
X179920652Y-74046666D01*
X179920652Y-74046666D02*
X180015890Y-74094285D01*
X180015890Y-74094285D02*
X180063509Y-74141904D01*
X180063509Y-74141904D02*
X180111128Y-74237142D01*
X180111128Y-74237142D02*
X180111128Y-74618094D01*
X179587319Y-73713332D02*
X179587319Y-73046666D01*
X179587319Y-73046666D02*
X180587319Y-73475237D01*
X30124819Y-66011904D02*
X30934342Y-66011904D01*
X30934342Y-66011904D02*
X31029580Y-65964285D01*
X31029580Y-65964285D02*
X31077200Y-65916666D01*
X31077200Y-65916666D02*
X31124819Y-65821428D01*
X31124819Y-65821428D02*
X31124819Y-65630952D01*
X31124819Y-65630952D02*
X31077200Y-65535714D01*
X31077200Y-65535714D02*
X31029580Y-65488095D01*
X31029580Y-65488095D02*
X30934342Y-65440476D01*
X30934342Y-65440476D02*
X30124819Y-65440476D01*
X31124819Y-64440476D02*
X31124819Y-65011904D01*
X31124819Y-64726190D02*
X30124819Y-64726190D01*
X30124819Y-64726190D02*
X30267676Y-64821428D01*
X30267676Y-64821428D02*
X30362914Y-64916666D01*
X30362914Y-64916666D02*
X30410533Y-65011904D01*
X134389700Y-94583332D02*
X134437319Y-94440475D01*
X134437319Y-94440475D02*
X134437319Y-94202380D01*
X134437319Y-94202380D02*
X134389700Y-94107142D01*
X134389700Y-94107142D02*
X134342080Y-94059523D01*
X134342080Y-94059523D02*
X134246842Y-94011904D01*
X134246842Y-94011904D02*
X134151604Y-94011904D01*
X134151604Y-94011904D02*
X134056366Y-94059523D01*
X134056366Y-94059523D02*
X134008747Y-94107142D01*
X134008747Y-94107142D02*
X133961128Y-94202380D01*
X133961128Y-94202380D02*
X133913509Y-94392856D01*
X133913509Y-94392856D02*
X133865890Y-94488094D01*
X133865890Y-94488094D02*
X133818271Y-94535713D01*
X133818271Y-94535713D02*
X133723033Y-94583332D01*
X133723033Y-94583332D02*
X133627795Y-94583332D01*
X133627795Y-94583332D02*
X133532557Y-94535713D01*
X133532557Y-94535713D02*
X133484938Y-94488094D01*
X133484938Y-94488094D02*
X133437319Y-94392856D01*
X133437319Y-94392856D02*
X133437319Y-94154761D01*
X133437319Y-94154761D02*
X133484938Y-94011904D01*
X133437319Y-93678570D02*
X134437319Y-93440475D01*
X134437319Y-93440475D02*
X133723033Y-93249999D01*
X133723033Y-93249999D02*
X134437319Y-93059523D01*
X134437319Y-93059523D02*
X133437319Y-92821428D01*
X133437319Y-92011904D02*
X133437319Y-92202380D01*
X133437319Y-92202380D02*
X133484938Y-92297618D01*
X133484938Y-92297618D02*
X133532557Y-92345237D01*
X133532557Y-92345237D02*
X133675414Y-92440475D01*
X133675414Y-92440475D02*
X133865890Y-92488094D01*
X133865890Y-92488094D02*
X134246842Y-92488094D01*
X134246842Y-92488094D02*
X134342080Y-92440475D01*
X134342080Y-92440475D02*
X134389700Y-92392856D01*
X134389700Y-92392856D02*
X134437319Y-92297618D01*
X134437319Y-92297618D02*
X134437319Y-92107142D01*
X134437319Y-92107142D02*
X134389700Y-92011904D01*
X134389700Y-92011904D02*
X134342080Y-91964285D01*
X134342080Y-91964285D02*
X134246842Y-91916666D01*
X134246842Y-91916666D02*
X134008747Y-91916666D01*
X134008747Y-91916666D02*
X133913509Y-91964285D01*
X133913509Y-91964285D02*
X133865890Y-92011904D01*
X133865890Y-92011904D02*
X133818271Y-92107142D01*
X133818271Y-92107142D02*
X133818271Y-92297618D01*
X133818271Y-92297618D02*
X133865890Y-92392856D01*
X133865890Y-92392856D02*
X133913509Y-92440475D01*
X133913509Y-92440475D02*
X134008747Y-92488094D01*
X253354819Y-76760952D02*
X252878628Y-77094285D01*
X253354819Y-77332380D02*
X252354819Y-77332380D01*
X252354819Y-77332380D02*
X252354819Y-76951428D01*
X252354819Y-76951428D02*
X252402438Y-76856190D01*
X252402438Y-76856190D02*
X252450057Y-76808571D01*
X252450057Y-76808571D02*
X252545295Y-76760952D01*
X252545295Y-76760952D02*
X252688152Y-76760952D01*
X252688152Y-76760952D02*
X252783390Y-76808571D01*
X252783390Y-76808571D02*
X252831009Y-76856190D01*
X252831009Y-76856190D02*
X252878628Y-76951428D01*
X252878628Y-76951428D02*
X252878628Y-77332380D01*
X253354819Y-75808571D02*
X253354819Y-76379999D01*
X253354819Y-76094285D02*
X252354819Y-76094285D01*
X252354819Y-76094285D02*
X252497676Y-76189523D01*
X252497676Y-76189523D02*
X252592914Y-76284761D01*
X252592914Y-76284761D02*
X252640533Y-76379999D01*
X253354819Y-74903809D02*
X253354819Y-75379999D01*
X253354819Y-75379999D02*
X252354819Y-75379999D01*
X252831009Y-74570475D02*
X252831009Y-74237142D01*
X253354819Y-74094285D02*
X253354819Y-74570475D01*
X253354819Y-74570475D02*
X252354819Y-74570475D01*
X252354819Y-74570475D02*
X252354819Y-74094285D01*
X253354819Y-73665713D02*
X252354819Y-73665713D01*
X252354819Y-73665713D02*
X252354819Y-73427618D01*
X252354819Y-73427618D02*
X252402438Y-73284761D01*
X252402438Y-73284761D02*
X252497676Y-73189523D01*
X252497676Y-73189523D02*
X252592914Y-73141904D01*
X252592914Y-73141904D02*
X252783390Y-73094285D01*
X252783390Y-73094285D02*
X252926247Y-73094285D01*
X252926247Y-73094285D02*
X253116723Y-73141904D01*
X253116723Y-73141904D02*
X253211961Y-73189523D01*
X253211961Y-73189523D02*
X253307200Y-73284761D01*
X253307200Y-73284761D02*
X253354819Y-73427618D01*
X253354819Y-73427618D02*
X253354819Y-73665713D01*
X253450057Y-72903809D02*
X253450057Y-72141904D01*
X253354819Y-71332380D02*
X252878628Y-71665713D01*
X253354819Y-71903808D02*
X252354819Y-71903808D01*
X252354819Y-71903808D02*
X252354819Y-71522856D01*
X252354819Y-71522856D02*
X252402438Y-71427618D01*
X252402438Y-71427618D02*
X252450057Y-71379999D01*
X252450057Y-71379999D02*
X252545295Y-71332380D01*
X252545295Y-71332380D02*
X252688152Y-71332380D01*
X252688152Y-71332380D02*
X252783390Y-71379999D01*
X252783390Y-71379999D02*
X252831009Y-71427618D01*
X252831009Y-71427618D02*
X252878628Y-71522856D01*
X252878628Y-71522856D02*
X252878628Y-71903808D01*
X252354819Y-70999046D02*
X252354819Y-70379999D01*
X252354819Y-70379999D02*
X252735771Y-70713332D01*
X252735771Y-70713332D02*
X252735771Y-70570475D01*
X252735771Y-70570475D02*
X252783390Y-70475237D01*
X252783390Y-70475237D02*
X252831009Y-70427618D01*
X252831009Y-70427618D02*
X252926247Y-70379999D01*
X252926247Y-70379999D02*
X253164342Y-70379999D01*
X253164342Y-70379999D02*
X253259580Y-70427618D01*
X253259580Y-70427618D02*
X253307200Y-70475237D01*
X253307200Y-70475237D02*
X253354819Y-70570475D01*
X253354819Y-70570475D02*
X253354819Y-70856189D01*
X253354819Y-70856189D02*
X253307200Y-70951427D01*
X253307200Y-70951427D02*
X253259580Y-70999046D01*
X138217319Y-76760952D02*
X137741128Y-77094285D01*
X138217319Y-77332380D02*
X137217319Y-77332380D01*
X137217319Y-77332380D02*
X137217319Y-76951428D01*
X137217319Y-76951428D02*
X137264938Y-76856190D01*
X137264938Y-76856190D02*
X137312557Y-76808571D01*
X137312557Y-76808571D02*
X137407795Y-76760952D01*
X137407795Y-76760952D02*
X137550652Y-76760952D01*
X137550652Y-76760952D02*
X137645890Y-76808571D01*
X137645890Y-76808571D02*
X137693509Y-76856190D01*
X137693509Y-76856190D02*
X137741128Y-76951428D01*
X137741128Y-76951428D02*
X137741128Y-77332380D01*
X138217319Y-75808571D02*
X138217319Y-76379999D01*
X138217319Y-76094285D02*
X137217319Y-76094285D01*
X137217319Y-76094285D02*
X137360176Y-76189523D01*
X137360176Y-76189523D02*
X137455414Y-76284761D01*
X137455414Y-76284761D02*
X137503033Y-76379999D01*
X138217319Y-74903809D02*
X138217319Y-75379999D01*
X138217319Y-75379999D02*
X137217319Y-75379999D01*
X137693509Y-74570475D02*
X137693509Y-74237142D01*
X138217319Y-74094285D02*
X138217319Y-74570475D01*
X138217319Y-74570475D02*
X137217319Y-74570475D01*
X137217319Y-74570475D02*
X137217319Y-74094285D01*
X138217319Y-73665713D02*
X137217319Y-73665713D01*
X137217319Y-73665713D02*
X137217319Y-73427618D01*
X137217319Y-73427618D02*
X137264938Y-73284761D01*
X137264938Y-73284761D02*
X137360176Y-73189523D01*
X137360176Y-73189523D02*
X137455414Y-73141904D01*
X137455414Y-73141904D02*
X137645890Y-73094285D01*
X137645890Y-73094285D02*
X137788747Y-73094285D01*
X137788747Y-73094285D02*
X137979223Y-73141904D01*
X137979223Y-73141904D02*
X138074461Y-73189523D01*
X138074461Y-73189523D02*
X138169700Y-73284761D01*
X138169700Y-73284761D02*
X138217319Y-73427618D01*
X138217319Y-73427618D02*
X138217319Y-73665713D01*
X138312557Y-72903809D02*
X138312557Y-72141904D01*
X137264938Y-71379999D02*
X137217319Y-71475237D01*
X137217319Y-71475237D02*
X137217319Y-71618094D01*
X137217319Y-71618094D02*
X137264938Y-71760951D01*
X137264938Y-71760951D02*
X137360176Y-71856189D01*
X137360176Y-71856189D02*
X137455414Y-71903808D01*
X137455414Y-71903808D02*
X137645890Y-71951427D01*
X137645890Y-71951427D02*
X137788747Y-71951427D01*
X137788747Y-71951427D02*
X137979223Y-71903808D01*
X137979223Y-71903808D02*
X138074461Y-71856189D01*
X138074461Y-71856189D02*
X138169700Y-71760951D01*
X138169700Y-71760951D02*
X138217319Y-71618094D01*
X138217319Y-71618094D02*
X138217319Y-71522856D01*
X138217319Y-71522856D02*
X138169700Y-71379999D01*
X138169700Y-71379999D02*
X138122080Y-71332380D01*
X138122080Y-71332380D02*
X137788747Y-71332380D01*
X137788747Y-71332380D02*
X137788747Y-71522856D01*
X138217319Y-70379999D02*
X138217319Y-70951427D01*
X138217319Y-70665713D02*
X137217319Y-70665713D01*
X137217319Y-70665713D02*
X137360176Y-70760951D01*
X137360176Y-70760951D02*
X137455414Y-70856189D01*
X137455414Y-70856189D02*
X137503033Y-70951427D01*
X207952557Y-64157738D02*
X207904938Y-64252976D01*
X207904938Y-64252976D02*
X207809700Y-64348214D01*
X207809700Y-64348214D02*
X207666842Y-64491071D01*
X207666842Y-64491071D02*
X207619223Y-64586309D01*
X207619223Y-64586309D02*
X207619223Y-64681547D01*
X207857319Y-64633928D02*
X207809700Y-64729166D01*
X207809700Y-64729166D02*
X207714461Y-64824404D01*
X207714461Y-64824404D02*
X207523985Y-64872023D01*
X207523985Y-64872023D02*
X207190652Y-64872023D01*
X207190652Y-64872023D02*
X207000176Y-64824404D01*
X207000176Y-64824404D02*
X206904938Y-64729166D01*
X206904938Y-64729166D02*
X206857319Y-64633928D01*
X206857319Y-64633928D02*
X206857319Y-64443452D01*
X206857319Y-64443452D02*
X206904938Y-64348214D01*
X206904938Y-64348214D02*
X207000176Y-64252976D01*
X207000176Y-64252976D02*
X207190652Y-64205357D01*
X207190652Y-64205357D02*
X207523985Y-64205357D01*
X207523985Y-64205357D02*
X207714461Y-64252976D01*
X207714461Y-64252976D02*
X207809700Y-64348214D01*
X207809700Y-64348214D02*
X207857319Y-64443452D01*
X207857319Y-64443452D02*
X207857319Y-64633928D01*
X206952557Y-63824404D02*
X206904938Y-63776785D01*
X206904938Y-63776785D02*
X206857319Y-63681547D01*
X206857319Y-63681547D02*
X206857319Y-63443452D01*
X206857319Y-63443452D02*
X206904938Y-63348214D01*
X206904938Y-63348214D02*
X206952557Y-63300595D01*
X206952557Y-63300595D02*
X207047795Y-63252976D01*
X207047795Y-63252976D02*
X207143033Y-63252976D01*
X207143033Y-63252976D02*
X207285890Y-63300595D01*
X207285890Y-63300595D02*
X207857319Y-63872023D01*
X207857319Y-63872023D02*
X207857319Y-63252976D01*
X228500476Y-85987200D02*
X228643333Y-86034819D01*
X228643333Y-86034819D02*
X228881428Y-86034819D01*
X228881428Y-86034819D02*
X228976666Y-85987200D01*
X228976666Y-85987200D02*
X229024285Y-85939580D01*
X229024285Y-85939580D02*
X229071904Y-85844342D01*
X229071904Y-85844342D02*
X229071904Y-85749104D01*
X229071904Y-85749104D02*
X229024285Y-85653866D01*
X229024285Y-85653866D02*
X228976666Y-85606247D01*
X228976666Y-85606247D02*
X228881428Y-85558628D01*
X228881428Y-85558628D02*
X228690952Y-85511009D01*
X228690952Y-85511009D02*
X228595714Y-85463390D01*
X228595714Y-85463390D02*
X228548095Y-85415771D01*
X228548095Y-85415771D02*
X228500476Y-85320533D01*
X228500476Y-85320533D02*
X228500476Y-85225295D01*
X228500476Y-85225295D02*
X228548095Y-85130057D01*
X228548095Y-85130057D02*
X228595714Y-85082438D01*
X228595714Y-85082438D02*
X228690952Y-85034819D01*
X228690952Y-85034819D02*
X228929047Y-85034819D01*
X228929047Y-85034819D02*
X229071904Y-85082438D01*
X229405238Y-85034819D02*
X229643333Y-86034819D01*
X229643333Y-86034819D02*
X229833809Y-85320533D01*
X229833809Y-85320533D02*
X230024285Y-86034819D01*
X230024285Y-86034819D02*
X230262381Y-85034819D01*
X231167142Y-86034819D02*
X230595714Y-86034819D01*
X230881428Y-86034819D02*
X230881428Y-85034819D01*
X230881428Y-85034819D02*
X230786190Y-85177676D01*
X230786190Y-85177676D02*
X230690952Y-85272914D01*
X230690952Y-85272914D02*
X230595714Y-85320533D01*
X231548095Y-85130057D02*
X231595714Y-85082438D01*
X231595714Y-85082438D02*
X231690952Y-85034819D01*
X231690952Y-85034819D02*
X231929047Y-85034819D01*
X231929047Y-85034819D02*
X232024285Y-85082438D01*
X232024285Y-85082438D02*
X232071904Y-85130057D01*
X232071904Y-85130057D02*
X232119523Y-85225295D01*
X232119523Y-85225295D02*
X232119523Y-85320533D01*
X232119523Y-85320533D02*
X232071904Y-85463390D01*
X232071904Y-85463390D02*
X231500476Y-86034819D01*
X231500476Y-86034819D02*
X232119523Y-86034819D01*
X249073333Y-102734819D02*
X248740000Y-102258628D01*
X248501905Y-102734819D02*
X248501905Y-101734819D01*
X248501905Y-101734819D02*
X248882857Y-101734819D01*
X248882857Y-101734819D02*
X248978095Y-101782438D01*
X248978095Y-101782438D02*
X249025714Y-101830057D01*
X249025714Y-101830057D02*
X249073333Y-101925295D01*
X249073333Y-101925295D02*
X249073333Y-102068152D01*
X249073333Y-102068152D02*
X249025714Y-102163390D01*
X249025714Y-102163390D02*
X248978095Y-102211009D01*
X248978095Y-102211009D02*
X248882857Y-102258628D01*
X248882857Y-102258628D02*
X248501905Y-102258628D01*
X249549524Y-102734819D02*
X249740000Y-102734819D01*
X249740000Y-102734819D02*
X249835238Y-102687200D01*
X249835238Y-102687200D02*
X249882857Y-102639580D01*
X249882857Y-102639580D02*
X249978095Y-102496723D01*
X249978095Y-102496723D02*
X250025714Y-102306247D01*
X250025714Y-102306247D02*
X250025714Y-101925295D01*
X250025714Y-101925295D02*
X249978095Y-101830057D01*
X249978095Y-101830057D02*
X249930476Y-101782438D01*
X249930476Y-101782438D02*
X249835238Y-101734819D01*
X249835238Y-101734819D02*
X249644762Y-101734819D01*
X249644762Y-101734819D02*
X249549524Y-101782438D01*
X249549524Y-101782438D02*
X249501905Y-101830057D01*
X249501905Y-101830057D02*
X249454286Y-101925295D01*
X249454286Y-101925295D02*
X249454286Y-102163390D01*
X249454286Y-102163390D02*
X249501905Y-102258628D01*
X249501905Y-102258628D02*
X249549524Y-102306247D01*
X249549524Y-102306247D02*
X249644762Y-102353866D01*
X249644762Y-102353866D02*
X249835238Y-102353866D01*
X249835238Y-102353866D02*
X249930476Y-102306247D01*
X249930476Y-102306247D02*
X249978095Y-102258628D01*
X249978095Y-102258628D02*
X250025714Y-102163390D01*
X97362976Y-86487200D02*
X97505833Y-86534819D01*
X97505833Y-86534819D02*
X97743928Y-86534819D01*
X97743928Y-86534819D02*
X97839166Y-86487200D01*
X97839166Y-86487200D02*
X97886785Y-86439580D01*
X97886785Y-86439580D02*
X97934404Y-86344342D01*
X97934404Y-86344342D02*
X97934404Y-86249104D01*
X97934404Y-86249104D02*
X97886785Y-86153866D01*
X97886785Y-86153866D02*
X97839166Y-86106247D01*
X97839166Y-86106247D02*
X97743928Y-86058628D01*
X97743928Y-86058628D02*
X97553452Y-86011009D01*
X97553452Y-86011009D02*
X97458214Y-85963390D01*
X97458214Y-85963390D02*
X97410595Y-85915771D01*
X97410595Y-85915771D02*
X97362976Y-85820533D01*
X97362976Y-85820533D02*
X97362976Y-85725295D01*
X97362976Y-85725295D02*
X97410595Y-85630057D01*
X97410595Y-85630057D02*
X97458214Y-85582438D01*
X97458214Y-85582438D02*
X97553452Y-85534819D01*
X97553452Y-85534819D02*
X97791547Y-85534819D01*
X97791547Y-85534819D02*
X97934404Y-85582438D01*
X98267738Y-85534819D02*
X98505833Y-86534819D01*
X98505833Y-86534819D02*
X98696309Y-85820533D01*
X98696309Y-85820533D02*
X98886785Y-86534819D01*
X98886785Y-86534819D02*
X99124881Y-85534819D01*
X100029642Y-86534819D02*
X99458214Y-86534819D01*
X99743928Y-86534819D02*
X99743928Y-85534819D01*
X99743928Y-85534819D02*
X99648690Y-85677676D01*
X99648690Y-85677676D02*
X99553452Y-85772914D01*
X99553452Y-85772914D02*
X99458214Y-85820533D01*
X100362976Y-85534819D02*
X100982023Y-85534819D01*
X100982023Y-85534819D02*
X100648690Y-85915771D01*
X100648690Y-85915771D02*
X100791547Y-85915771D01*
X100791547Y-85915771D02*
X100886785Y-85963390D01*
X100886785Y-85963390D02*
X100934404Y-86011009D01*
X100934404Y-86011009D02*
X100982023Y-86106247D01*
X100982023Y-86106247D02*
X100982023Y-86344342D01*
X100982023Y-86344342D02*
X100934404Y-86439580D01*
X100934404Y-86439580D02*
X100886785Y-86487200D01*
X100886785Y-86487200D02*
X100791547Y-86534819D01*
X100791547Y-86534819D02*
X100505833Y-86534819D01*
X100505833Y-86534819D02*
X100410595Y-86487200D01*
X100410595Y-86487200D02*
X100362976Y-86439580D01*
X200217319Y-55333333D02*
X199741128Y-55666666D01*
X200217319Y-55904761D02*
X199217319Y-55904761D01*
X199217319Y-55904761D02*
X199217319Y-55523809D01*
X199217319Y-55523809D02*
X199264938Y-55428571D01*
X199264938Y-55428571D02*
X199312557Y-55380952D01*
X199312557Y-55380952D02*
X199407795Y-55333333D01*
X199407795Y-55333333D02*
X199550652Y-55333333D01*
X199550652Y-55333333D02*
X199645890Y-55380952D01*
X199645890Y-55380952D02*
X199693509Y-55428571D01*
X199693509Y-55428571D02*
X199741128Y-55523809D01*
X199741128Y-55523809D02*
X199741128Y-55904761D01*
X199693509Y-54904761D02*
X199693509Y-54571428D01*
X200217319Y-54428571D02*
X200217319Y-54904761D01*
X200217319Y-54904761D02*
X199217319Y-54904761D01*
X199217319Y-54904761D02*
X199217319Y-54428571D01*
X199693509Y-53666666D02*
X199693509Y-53999999D01*
X200217319Y-53999999D02*
X199217319Y-53999999D01*
X199217319Y-53999999D02*
X199217319Y-53523809D01*
X199217319Y-52999999D02*
X199455414Y-52999999D01*
X199360176Y-53238094D02*
X199455414Y-52999999D01*
X199455414Y-52999999D02*
X199360176Y-52761904D01*
X199645890Y-53142856D02*
X199455414Y-52999999D01*
X199455414Y-52999999D02*
X199645890Y-52857142D01*
X199217319Y-52238094D02*
X199455414Y-52238094D01*
X199360176Y-52476189D02*
X199455414Y-52238094D01*
X199455414Y-52238094D02*
X199360176Y-51999999D01*
X199645890Y-52380951D02*
X199455414Y-52238094D01*
X199455414Y-52238094D02*
X199645890Y-52095237D01*
X197759700Y-94583332D02*
X197807319Y-94440475D01*
X197807319Y-94440475D02*
X197807319Y-94202380D01*
X197807319Y-94202380D02*
X197759700Y-94107142D01*
X197759700Y-94107142D02*
X197712080Y-94059523D01*
X197712080Y-94059523D02*
X197616842Y-94011904D01*
X197616842Y-94011904D02*
X197521604Y-94011904D01*
X197521604Y-94011904D02*
X197426366Y-94059523D01*
X197426366Y-94059523D02*
X197378747Y-94107142D01*
X197378747Y-94107142D02*
X197331128Y-94202380D01*
X197331128Y-94202380D02*
X197283509Y-94392856D01*
X197283509Y-94392856D02*
X197235890Y-94488094D01*
X197235890Y-94488094D02*
X197188271Y-94535713D01*
X197188271Y-94535713D02*
X197093033Y-94583332D01*
X197093033Y-94583332D02*
X196997795Y-94583332D01*
X196997795Y-94583332D02*
X196902557Y-94535713D01*
X196902557Y-94535713D02*
X196854938Y-94488094D01*
X196854938Y-94488094D02*
X196807319Y-94392856D01*
X196807319Y-94392856D02*
X196807319Y-94154761D01*
X196807319Y-94154761D02*
X196854938Y-94011904D01*
X196807319Y-93678570D02*
X197807319Y-93440475D01*
X197807319Y-93440475D02*
X197093033Y-93249999D01*
X197093033Y-93249999D02*
X197807319Y-93059523D01*
X197807319Y-93059523D02*
X196807319Y-92821428D01*
X196807319Y-92535713D02*
X196807319Y-91869047D01*
X196807319Y-91869047D02*
X197807319Y-92297618D01*
X28364819Y-105786904D02*
X29174342Y-105786904D01*
X29174342Y-105786904D02*
X29269580Y-105739285D01*
X29269580Y-105739285D02*
X29317200Y-105691666D01*
X29317200Y-105691666D02*
X29364819Y-105596428D01*
X29364819Y-105596428D02*
X29364819Y-105405952D01*
X29364819Y-105405952D02*
X29317200Y-105310714D01*
X29317200Y-105310714D02*
X29269580Y-105263095D01*
X29269580Y-105263095D02*
X29174342Y-105215476D01*
X29174342Y-105215476D02*
X28364819Y-105215476D01*
X29364819Y-104215476D02*
X29364819Y-104786904D01*
X29364819Y-104501190D02*
X28364819Y-104501190D01*
X28364819Y-104501190D02*
X28507676Y-104596428D01*
X28507676Y-104596428D02*
X28602914Y-104691666D01*
X28602914Y-104691666D02*
X28650533Y-104786904D01*
X201587319Y-76760952D02*
X201111128Y-77094285D01*
X201587319Y-77332380D02*
X200587319Y-77332380D01*
X200587319Y-77332380D02*
X200587319Y-76951428D01*
X200587319Y-76951428D02*
X200634938Y-76856190D01*
X200634938Y-76856190D02*
X200682557Y-76808571D01*
X200682557Y-76808571D02*
X200777795Y-76760952D01*
X200777795Y-76760952D02*
X200920652Y-76760952D01*
X200920652Y-76760952D02*
X201015890Y-76808571D01*
X201015890Y-76808571D02*
X201063509Y-76856190D01*
X201063509Y-76856190D02*
X201111128Y-76951428D01*
X201111128Y-76951428D02*
X201111128Y-77332380D01*
X201587319Y-75808571D02*
X201587319Y-76379999D01*
X201587319Y-76094285D02*
X200587319Y-76094285D01*
X200587319Y-76094285D02*
X200730176Y-76189523D01*
X200730176Y-76189523D02*
X200825414Y-76284761D01*
X200825414Y-76284761D02*
X200873033Y-76379999D01*
X201587319Y-74903809D02*
X201587319Y-75379999D01*
X201587319Y-75379999D02*
X200587319Y-75379999D01*
X201063509Y-74570475D02*
X201063509Y-74237142D01*
X201587319Y-74094285D02*
X201587319Y-74570475D01*
X201587319Y-74570475D02*
X200587319Y-74570475D01*
X200587319Y-74570475D02*
X200587319Y-74094285D01*
X201587319Y-73665713D02*
X200587319Y-73665713D01*
X200587319Y-73665713D02*
X200587319Y-73427618D01*
X200587319Y-73427618D02*
X200634938Y-73284761D01*
X200634938Y-73284761D02*
X200730176Y-73189523D01*
X200730176Y-73189523D02*
X200825414Y-73141904D01*
X200825414Y-73141904D02*
X201015890Y-73094285D01*
X201015890Y-73094285D02*
X201158747Y-73094285D01*
X201158747Y-73094285D02*
X201349223Y-73141904D01*
X201349223Y-73141904D02*
X201444461Y-73189523D01*
X201444461Y-73189523D02*
X201539700Y-73284761D01*
X201539700Y-73284761D02*
X201587319Y-73427618D01*
X201587319Y-73427618D02*
X201587319Y-73665713D01*
X201682557Y-72903809D02*
X201682557Y-72141904D01*
X200634938Y-71379999D02*
X200587319Y-71475237D01*
X200587319Y-71475237D02*
X200587319Y-71618094D01*
X200587319Y-71618094D02*
X200634938Y-71760951D01*
X200634938Y-71760951D02*
X200730176Y-71856189D01*
X200730176Y-71856189D02*
X200825414Y-71903808D01*
X200825414Y-71903808D02*
X201015890Y-71951427D01*
X201015890Y-71951427D02*
X201158747Y-71951427D01*
X201158747Y-71951427D02*
X201349223Y-71903808D01*
X201349223Y-71903808D02*
X201444461Y-71856189D01*
X201444461Y-71856189D02*
X201539700Y-71760951D01*
X201539700Y-71760951D02*
X201587319Y-71618094D01*
X201587319Y-71618094D02*
X201587319Y-71522856D01*
X201587319Y-71522856D02*
X201539700Y-71379999D01*
X201539700Y-71379999D02*
X201492080Y-71332380D01*
X201492080Y-71332380D02*
X201158747Y-71332380D01*
X201158747Y-71332380D02*
X201158747Y-71522856D01*
X200682557Y-70951427D02*
X200634938Y-70903808D01*
X200634938Y-70903808D02*
X200587319Y-70808570D01*
X200587319Y-70808570D02*
X200587319Y-70570475D01*
X200587319Y-70570475D02*
X200634938Y-70475237D01*
X200634938Y-70475237D02*
X200682557Y-70427618D01*
X200682557Y-70427618D02*
X200777795Y-70379999D01*
X200777795Y-70379999D02*
X200873033Y-70379999D01*
X200873033Y-70379999D02*
X201015890Y-70427618D01*
X201015890Y-70427618D02*
X201587319Y-70999046D01*
X201587319Y-70999046D02*
X201587319Y-70379999D01*
X181305833Y-102734819D02*
X180972500Y-102258628D01*
X180734405Y-102734819D02*
X180734405Y-101734819D01*
X180734405Y-101734819D02*
X181115357Y-101734819D01*
X181115357Y-101734819D02*
X181210595Y-101782438D01*
X181210595Y-101782438D02*
X181258214Y-101830057D01*
X181258214Y-101830057D02*
X181305833Y-101925295D01*
X181305833Y-101925295D02*
X181305833Y-102068152D01*
X181305833Y-102068152D02*
X181258214Y-102163390D01*
X181258214Y-102163390D02*
X181210595Y-102211009D01*
X181210595Y-102211009D02*
X181115357Y-102258628D01*
X181115357Y-102258628D02*
X180734405Y-102258628D01*
X182162976Y-102068152D02*
X182162976Y-102734819D01*
X181924881Y-101687200D02*
X181686786Y-102401485D01*
X181686786Y-102401485D02*
X182305833Y-102401485D01*
X267376905Y-59494819D02*
X267376905Y-58494819D01*
X267376905Y-58494819D02*
X267615000Y-58494819D01*
X267615000Y-58494819D02*
X267757857Y-58542438D01*
X267757857Y-58542438D02*
X267853095Y-58637676D01*
X267853095Y-58637676D02*
X267900714Y-58732914D01*
X267900714Y-58732914D02*
X267948333Y-58923390D01*
X267948333Y-58923390D02*
X267948333Y-59066247D01*
X267948333Y-59066247D02*
X267900714Y-59256723D01*
X267900714Y-59256723D02*
X267853095Y-59351961D01*
X267853095Y-59351961D02*
X267757857Y-59447200D01*
X267757857Y-59447200D02*
X267615000Y-59494819D01*
X267615000Y-59494819D02*
X267376905Y-59494819D01*
X268281667Y-58494819D02*
X268900714Y-58494819D01*
X268900714Y-58494819D02*
X268567381Y-58875771D01*
X268567381Y-58875771D02*
X268710238Y-58875771D01*
X268710238Y-58875771D02*
X268805476Y-58923390D01*
X268805476Y-58923390D02*
X268853095Y-58971009D01*
X268853095Y-58971009D02*
X268900714Y-59066247D01*
X268900714Y-59066247D02*
X268900714Y-59304342D01*
X268900714Y-59304342D02*
X268853095Y-59399580D01*
X268853095Y-59399580D02*
X268805476Y-59447200D01*
X268805476Y-59447200D02*
X268710238Y-59494819D01*
X268710238Y-59494819D02*
X268424524Y-59494819D01*
X268424524Y-59494819D02*
X268329286Y-59447200D01*
X268329286Y-59447200D02*
X268281667Y-59399580D01*
X136847319Y-55333333D02*
X136371128Y-55666666D01*
X136847319Y-55904761D02*
X135847319Y-55904761D01*
X135847319Y-55904761D02*
X135847319Y-55523809D01*
X135847319Y-55523809D02*
X135894938Y-55428571D01*
X135894938Y-55428571D02*
X135942557Y-55380952D01*
X135942557Y-55380952D02*
X136037795Y-55333333D01*
X136037795Y-55333333D02*
X136180652Y-55333333D01*
X136180652Y-55333333D02*
X136275890Y-55380952D01*
X136275890Y-55380952D02*
X136323509Y-55428571D01*
X136323509Y-55428571D02*
X136371128Y-55523809D01*
X136371128Y-55523809D02*
X136371128Y-55904761D01*
X136323509Y-54904761D02*
X136323509Y-54571428D01*
X136847319Y-54428571D02*
X136847319Y-54904761D01*
X136847319Y-54904761D02*
X135847319Y-54904761D01*
X135847319Y-54904761D02*
X135847319Y-54428571D01*
X136323509Y-53666666D02*
X136323509Y-53999999D01*
X136847319Y-53999999D02*
X135847319Y-53999999D01*
X135847319Y-53999999D02*
X135847319Y-53523809D01*
X135847319Y-52999999D02*
X136085414Y-52999999D01*
X135990176Y-53238094D02*
X136085414Y-52999999D01*
X136085414Y-52999999D02*
X135990176Y-52761904D01*
X136275890Y-53142856D02*
X136085414Y-52999999D01*
X136085414Y-52999999D02*
X136275890Y-52857142D01*
X135847319Y-52238094D02*
X136085414Y-52238094D01*
X135990176Y-52476189D02*
X136085414Y-52238094D01*
X136085414Y-52238094D02*
X135990176Y-51999999D01*
X136275890Y-52380951D02*
X136085414Y-52238094D01*
X136085414Y-52238094D02*
X136275890Y-52095237D01*
X248354819Y-74522857D02*
X247878628Y-74856190D01*
X248354819Y-75094285D02*
X247354819Y-75094285D01*
X247354819Y-75094285D02*
X247354819Y-74713333D01*
X247354819Y-74713333D02*
X247402438Y-74618095D01*
X247402438Y-74618095D02*
X247450057Y-74570476D01*
X247450057Y-74570476D02*
X247545295Y-74522857D01*
X247545295Y-74522857D02*
X247688152Y-74522857D01*
X247688152Y-74522857D02*
X247783390Y-74570476D01*
X247783390Y-74570476D02*
X247831009Y-74618095D01*
X247831009Y-74618095D02*
X247878628Y-74713333D01*
X247878628Y-74713333D02*
X247878628Y-75094285D01*
X248354819Y-73570476D02*
X248354819Y-74141904D01*
X248354819Y-73856190D02*
X247354819Y-73856190D01*
X247354819Y-73856190D02*
X247497676Y-73951428D01*
X247497676Y-73951428D02*
X247592914Y-74046666D01*
X247592914Y-74046666D02*
X247640533Y-74141904D01*
X248354819Y-72618095D02*
X248354819Y-73189523D01*
X248354819Y-72903809D02*
X247354819Y-72903809D01*
X247354819Y-72903809D02*
X247497676Y-72999047D01*
X247497676Y-72999047D02*
X247592914Y-73094285D01*
X247592914Y-73094285D02*
X247640533Y-73189523D01*
X49727200Y-113133332D02*
X49774819Y-112990475D01*
X49774819Y-112990475D02*
X49774819Y-112752380D01*
X49774819Y-112752380D02*
X49727200Y-112657142D01*
X49727200Y-112657142D02*
X49679580Y-112609523D01*
X49679580Y-112609523D02*
X49584342Y-112561904D01*
X49584342Y-112561904D02*
X49489104Y-112561904D01*
X49489104Y-112561904D02*
X49393866Y-112609523D01*
X49393866Y-112609523D02*
X49346247Y-112657142D01*
X49346247Y-112657142D02*
X49298628Y-112752380D01*
X49298628Y-112752380D02*
X49251009Y-112942856D01*
X49251009Y-112942856D02*
X49203390Y-113038094D01*
X49203390Y-113038094D02*
X49155771Y-113085713D01*
X49155771Y-113085713D02*
X49060533Y-113133332D01*
X49060533Y-113133332D02*
X48965295Y-113133332D01*
X48965295Y-113133332D02*
X48870057Y-113085713D01*
X48870057Y-113085713D02*
X48822438Y-113038094D01*
X48822438Y-113038094D02*
X48774819Y-112942856D01*
X48774819Y-112942856D02*
X48774819Y-112704761D01*
X48774819Y-112704761D02*
X48822438Y-112561904D01*
X48774819Y-112228570D02*
X49774819Y-111990475D01*
X49774819Y-111990475D02*
X49060533Y-111799999D01*
X49060533Y-111799999D02*
X49774819Y-111609523D01*
X49774819Y-111609523D02*
X48774819Y-111371428D01*
X48774819Y-111085713D02*
X48774819Y-110466666D01*
X48774819Y-110466666D02*
X49155771Y-110799999D01*
X49155771Y-110799999D02*
X49155771Y-110657142D01*
X49155771Y-110657142D02*
X49203390Y-110561904D01*
X49203390Y-110561904D02*
X49251009Y-110514285D01*
X49251009Y-110514285D02*
X49346247Y-110466666D01*
X49346247Y-110466666D02*
X49584342Y-110466666D01*
X49584342Y-110466666D02*
X49679580Y-110514285D01*
X49679580Y-110514285D02*
X49727200Y-110561904D01*
X49727200Y-110561904D02*
X49774819Y-110657142D01*
X49774819Y-110657142D02*
X49774819Y-110942856D01*
X49774819Y-110942856D02*
X49727200Y-111038094D01*
X49727200Y-111038094D02*
X49679580Y-111085713D01*
X40424819Y-82071904D02*
X41234342Y-82071904D01*
X41234342Y-82071904D02*
X41329580Y-82024285D01*
X41329580Y-82024285D02*
X41377200Y-81976666D01*
X41377200Y-81976666D02*
X41424819Y-81881428D01*
X41424819Y-81881428D02*
X41424819Y-81690952D01*
X41424819Y-81690952D02*
X41377200Y-81595714D01*
X41377200Y-81595714D02*
X41329580Y-81548095D01*
X41329580Y-81548095D02*
X41234342Y-81500476D01*
X41234342Y-81500476D02*
X40424819Y-81500476D01*
X41329580Y-80452857D02*
X41377200Y-80500476D01*
X41377200Y-80500476D02*
X41424819Y-80643333D01*
X41424819Y-80643333D02*
X41424819Y-80738571D01*
X41424819Y-80738571D02*
X41377200Y-80881428D01*
X41377200Y-80881428D02*
X41281961Y-80976666D01*
X41281961Y-80976666D02*
X41186723Y-81024285D01*
X41186723Y-81024285D02*
X40996247Y-81071904D01*
X40996247Y-81071904D02*
X40853390Y-81071904D01*
X40853390Y-81071904D02*
X40662914Y-81024285D01*
X40662914Y-81024285D02*
X40567676Y-80976666D01*
X40567676Y-80976666D02*
X40472438Y-80881428D01*
X40472438Y-80881428D02*
X40424819Y-80738571D01*
X40424819Y-80738571D02*
X40424819Y-80643333D01*
X40424819Y-80643333D02*
X40472438Y-80500476D01*
X40472438Y-80500476D02*
X40520057Y-80452857D01*
X41424819Y-79500476D02*
X41424819Y-80071904D01*
X41424819Y-79786190D02*
X40424819Y-79786190D01*
X40424819Y-79786190D02*
X40567676Y-79881428D01*
X40567676Y-79881428D02*
X40662914Y-79976666D01*
X40662914Y-79976666D02*
X40710533Y-80071904D01*
X42954819Y-44083333D02*
X42478628Y-44416666D01*
X42954819Y-44654761D02*
X41954819Y-44654761D01*
X41954819Y-44654761D02*
X41954819Y-44273809D01*
X41954819Y-44273809D02*
X42002438Y-44178571D01*
X42002438Y-44178571D02*
X42050057Y-44130952D01*
X42050057Y-44130952D02*
X42145295Y-44083333D01*
X42145295Y-44083333D02*
X42288152Y-44083333D01*
X42288152Y-44083333D02*
X42383390Y-44130952D01*
X42383390Y-44130952D02*
X42431009Y-44178571D01*
X42431009Y-44178571D02*
X42478628Y-44273809D01*
X42478628Y-44273809D02*
X42478628Y-44654761D01*
X42431009Y-43654761D02*
X42431009Y-43321428D01*
X42954819Y-43178571D02*
X42954819Y-43654761D01*
X42954819Y-43654761D02*
X41954819Y-43654761D01*
X41954819Y-43654761D02*
X41954819Y-43178571D01*
X42431009Y-42416666D02*
X42431009Y-42749999D01*
X42954819Y-42749999D02*
X41954819Y-42749999D01*
X41954819Y-42749999D02*
X41954819Y-42273809D01*
X41954819Y-41749999D02*
X42192914Y-41749999D01*
X42097676Y-41988094D02*
X42192914Y-41749999D01*
X42192914Y-41749999D02*
X42097676Y-41511904D01*
X42383390Y-41892856D02*
X42192914Y-41749999D01*
X42192914Y-41749999D02*
X42383390Y-41607142D01*
X41954819Y-40988094D02*
X42192914Y-40988094D01*
X42097676Y-41226189D02*
X42192914Y-40988094D01*
X42192914Y-40988094D02*
X42097676Y-40749999D01*
X42383390Y-41130951D02*
X42192914Y-40988094D01*
X42192914Y-40988094D02*
X42383390Y-40845237D01*
X59454819Y-44083333D02*
X58978628Y-44416666D01*
X59454819Y-44654761D02*
X58454819Y-44654761D01*
X58454819Y-44654761D02*
X58454819Y-44273809D01*
X58454819Y-44273809D02*
X58502438Y-44178571D01*
X58502438Y-44178571D02*
X58550057Y-44130952D01*
X58550057Y-44130952D02*
X58645295Y-44083333D01*
X58645295Y-44083333D02*
X58788152Y-44083333D01*
X58788152Y-44083333D02*
X58883390Y-44130952D01*
X58883390Y-44130952D02*
X58931009Y-44178571D01*
X58931009Y-44178571D02*
X58978628Y-44273809D01*
X58978628Y-44273809D02*
X58978628Y-44654761D01*
X58931009Y-43654761D02*
X58931009Y-43321428D01*
X59454819Y-43178571D02*
X59454819Y-43654761D01*
X59454819Y-43654761D02*
X58454819Y-43654761D01*
X58454819Y-43654761D02*
X58454819Y-43178571D01*
X58931009Y-42416666D02*
X58931009Y-42749999D01*
X59454819Y-42749999D02*
X58454819Y-42749999D01*
X58454819Y-42749999D02*
X58454819Y-42273809D01*
X58454819Y-41749999D02*
X58692914Y-41749999D01*
X58597676Y-41988094D02*
X58692914Y-41749999D01*
X58692914Y-41749999D02*
X58597676Y-41511904D01*
X58883390Y-41892856D02*
X58692914Y-41749999D01*
X58692914Y-41749999D02*
X58883390Y-41607142D01*
X58454819Y-40988094D02*
X58692914Y-40988094D01*
X58597676Y-41226189D02*
X58692914Y-40988094D01*
X58692914Y-40988094D02*
X58597676Y-40749999D01*
X58883390Y-41130951D02*
X58692914Y-40988094D01*
X58692914Y-40988094D02*
X58883390Y-40845237D01*
X199609405Y-59494819D02*
X199609405Y-58494819D01*
X199609405Y-58494819D02*
X199847500Y-58494819D01*
X199847500Y-58494819D02*
X199990357Y-58542438D01*
X199990357Y-58542438D02*
X200085595Y-58637676D01*
X200085595Y-58637676D02*
X200133214Y-58732914D01*
X200133214Y-58732914D02*
X200180833Y-58923390D01*
X200180833Y-58923390D02*
X200180833Y-59066247D01*
X200180833Y-59066247D02*
X200133214Y-59256723D01*
X200133214Y-59256723D02*
X200085595Y-59351961D01*
X200085595Y-59351961D02*
X199990357Y-59447200D01*
X199990357Y-59447200D02*
X199847500Y-59494819D01*
X199847500Y-59494819D02*
X199609405Y-59494819D01*
X201133214Y-59494819D02*
X200561786Y-59494819D01*
X200847500Y-59494819D02*
X200847500Y-58494819D01*
X200847500Y-58494819D02*
X200752262Y-58637676D01*
X200752262Y-58637676D02*
X200657024Y-58732914D01*
X200657024Y-58732914D02*
X200561786Y-58780533D01*
X268064819Y-55333333D02*
X267588628Y-55666666D01*
X268064819Y-55904761D02*
X267064819Y-55904761D01*
X267064819Y-55904761D02*
X267064819Y-55523809D01*
X267064819Y-55523809D02*
X267112438Y-55428571D01*
X267112438Y-55428571D02*
X267160057Y-55380952D01*
X267160057Y-55380952D02*
X267255295Y-55333333D01*
X267255295Y-55333333D02*
X267398152Y-55333333D01*
X267398152Y-55333333D02*
X267493390Y-55380952D01*
X267493390Y-55380952D02*
X267541009Y-55428571D01*
X267541009Y-55428571D02*
X267588628Y-55523809D01*
X267588628Y-55523809D02*
X267588628Y-55904761D01*
X267541009Y-54904761D02*
X267541009Y-54571428D01*
X268064819Y-54428571D02*
X268064819Y-54904761D01*
X268064819Y-54904761D02*
X267064819Y-54904761D01*
X267064819Y-54904761D02*
X267064819Y-54428571D01*
X267541009Y-53666666D02*
X267541009Y-53999999D01*
X268064819Y-53999999D02*
X267064819Y-53999999D01*
X267064819Y-53999999D02*
X267064819Y-53523809D01*
X267064819Y-52999999D02*
X267302914Y-52999999D01*
X267207676Y-53238094D02*
X267302914Y-52999999D01*
X267302914Y-52999999D02*
X267207676Y-52761904D01*
X267493390Y-53142856D02*
X267302914Y-52999999D01*
X267302914Y-52999999D02*
X267493390Y-52857142D01*
X267064819Y-52238094D02*
X267302914Y-52238094D01*
X267207676Y-52476189D02*
X267302914Y-52238094D01*
X267302914Y-52238094D02*
X267207676Y-51999999D01*
X267493390Y-52380951D02*
X267302914Y-52238094D01*
X267302914Y-52238094D02*
X267493390Y-52095237D01*
X114777319Y-93546666D02*
X114301128Y-93879999D01*
X114777319Y-94118094D02*
X113777319Y-94118094D01*
X113777319Y-94118094D02*
X113777319Y-93737142D01*
X113777319Y-93737142D02*
X113824938Y-93641904D01*
X113824938Y-93641904D02*
X113872557Y-93594285D01*
X113872557Y-93594285D02*
X113967795Y-93546666D01*
X113967795Y-93546666D02*
X114110652Y-93546666D01*
X114110652Y-93546666D02*
X114205890Y-93594285D01*
X114205890Y-93594285D02*
X114253509Y-93641904D01*
X114253509Y-93641904D02*
X114301128Y-93737142D01*
X114301128Y-93737142D02*
X114301128Y-94118094D01*
X113777319Y-93213332D02*
X113777319Y-92594285D01*
X113777319Y-92594285D02*
X114158271Y-92927618D01*
X114158271Y-92927618D02*
X114158271Y-92784761D01*
X114158271Y-92784761D02*
X114205890Y-92689523D01*
X114205890Y-92689523D02*
X114253509Y-92641904D01*
X114253509Y-92641904D02*
X114348747Y-92594285D01*
X114348747Y-92594285D02*
X114586842Y-92594285D01*
X114586842Y-92594285D02*
X114682080Y-92641904D01*
X114682080Y-92641904D02*
X114729700Y-92689523D01*
X114729700Y-92689523D02*
X114777319Y-92784761D01*
X114777319Y-92784761D02*
X114777319Y-93070475D01*
X114777319Y-93070475D02*
X114729700Y-93165713D01*
X114729700Y-93165713D02*
X114682080Y-93213332D01*
X258527200Y-95059523D02*
X258574819Y-94916666D01*
X258574819Y-94916666D02*
X258574819Y-94678571D01*
X258574819Y-94678571D02*
X258527200Y-94583333D01*
X258527200Y-94583333D02*
X258479580Y-94535714D01*
X258479580Y-94535714D02*
X258384342Y-94488095D01*
X258384342Y-94488095D02*
X258289104Y-94488095D01*
X258289104Y-94488095D02*
X258193866Y-94535714D01*
X258193866Y-94535714D02*
X258146247Y-94583333D01*
X258146247Y-94583333D02*
X258098628Y-94678571D01*
X258098628Y-94678571D02*
X258051009Y-94869047D01*
X258051009Y-94869047D02*
X258003390Y-94964285D01*
X258003390Y-94964285D02*
X257955771Y-95011904D01*
X257955771Y-95011904D02*
X257860533Y-95059523D01*
X257860533Y-95059523D02*
X257765295Y-95059523D01*
X257765295Y-95059523D02*
X257670057Y-95011904D01*
X257670057Y-95011904D02*
X257622438Y-94964285D01*
X257622438Y-94964285D02*
X257574819Y-94869047D01*
X257574819Y-94869047D02*
X257574819Y-94630952D01*
X257574819Y-94630952D02*
X257622438Y-94488095D01*
X257574819Y-94154761D02*
X258574819Y-93916666D01*
X258574819Y-93916666D02*
X257860533Y-93726190D01*
X257860533Y-93726190D02*
X258574819Y-93535714D01*
X258574819Y-93535714D02*
X257574819Y-93297619D01*
X258574819Y-92392857D02*
X258574819Y-92964285D01*
X258574819Y-92678571D02*
X257574819Y-92678571D01*
X257574819Y-92678571D02*
X257717676Y-92773809D01*
X257717676Y-92773809D02*
X257812914Y-92869047D01*
X257812914Y-92869047D02*
X257860533Y-92964285D01*
X257574819Y-91773809D02*
X257574819Y-91678571D01*
X257574819Y-91678571D02*
X257622438Y-91583333D01*
X257622438Y-91583333D02*
X257670057Y-91535714D01*
X257670057Y-91535714D02*
X257765295Y-91488095D01*
X257765295Y-91488095D02*
X257955771Y-91440476D01*
X257955771Y-91440476D02*
X258193866Y-91440476D01*
X258193866Y-91440476D02*
X258384342Y-91488095D01*
X258384342Y-91488095D02*
X258479580Y-91535714D01*
X258479580Y-91535714D02*
X258527200Y-91583333D01*
X258527200Y-91583333D02*
X258574819Y-91678571D01*
X258574819Y-91678571D02*
X258574819Y-91773809D01*
X258574819Y-91773809D02*
X258527200Y-91869047D01*
X258527200Y-91869047D02*
X258479580Y-91916666D01*
X258479580Y-91916666D02*
X258384342Y-91964285D01*
X258384342Y-91964285D02*
X258193866Y-92011904D01*
X258193866Y-92011904D02*
X257955771Y-92011904D01*
X257955771Y-92011904D02*
X257765295Y-91964285D01*
X257765295Y-91964285D02*
X257670057Y-91916666D01*
X257670057Y-91916666D02*
X257622438Y-91869047D01*
X257622438Y-91869047D02*
X257574819Y-91773809D01*
X275570057Y-64157738D02*
X275522438Y-64252976D01*
X275522438Y-64252976D02*
X275427200Y-64348214D01*
X275427200Y-64348214D02*
X275284342Y-64491071D01*
X275284342Y-64491071D02*
X275236723Y-64586309D01*
X275236723Y-64586309D02*
X275236723Y-64681547D01*
X275474819Y-64633928D02*
X275427200Y-64729166D01*
X275427200Y-64729166D02*
X275331961Y-64824404D01*
X275331961Y-64824404D02*
X275141485Y-64872023D01*
X275141485Y-64872023D02*
X274808152Y-64872023D01*
X274808152Y-64872023D02*
X274617676Y-64824404D01*
X274617676Y-64824404D02*
X274522438Y-64729166D01*
X274522438Y-64729166D02*
X274474819Y-64633928D01*
X274474819Y-64633928D02*
X274474819Y-64443452D01*
X274474819Y-64443452D02*
X274522438Y-64348214D01*
X274522438Y-64348214D02*
X274617676Y-64252976D01*
X274617676Y-64252976D02*
X274808152Y-64205357D01*
X274808152Y-64205357D02*
X275141485Y-64205357D01*
X275141485Y-64205357D02*
X275331961Y-64252976D01*
X275331961Y-64252976D02*
X275427200Y-64348214D01*
X275427200Y-64348214D02*
X275474819Y-64443452D01*
X275474819Y-64443452D02*
X275474819Y-64633928D01*
X274474819Y-63872023D02*
X274474819Y-63252976D01*
X274474819Y-63252976D02*
X274855771Y-63586309D01*
X274855771Y-63586309D02*
X274855771Y-63443452D01*
X274855771Y-63443452D02*
X274903390Y-63348214D01*
X274903390Y-63348214D02*
X274951009Y-63300595D01*
X274951009Y-63300595D02*
X275046247Y-63252976D01*
X275046247Y-63252976D02*
X275284342Y-63252976D01*
X275284342Y-63252976D02*
X275379580Y-63300595D01*
X275379580Y-63300595D02*
X275427200Y-63348214D01*
X275427200Y-63348214D02*
X275474819Y-63443452D01*
X275474819Y-63443452D02*
X275474819Y-63729166D01*
X275474819Y-63729166D02*
X275427200Y-63824404D01*
X275427200Y-63824404D02*
X275379580Y-63872023D01*
X184577048Y-59521476D02*
X184577048Y-58521476D01*
X184577048Y-58521476D02*
X184815143Y-58521476D01*
X184815143Y-58521476D02*
X184958000Y-58569095D01*
X184958000Y-58569095D02*
X185053238Y-58664333D01*
X185053238Y-58664333D02*
X185100857Y-58759571D01*
X185100857Y-58759571D02*
X185148476Y-58950047D01*
X185148476Y-58950047D02*
X185148476Y-59092904D01*
X185148476Y-59092904D02*
X185100857Y-59283380D01*
X185100857Y-59283380D02*
X185053238Y-59378618D01*
X185053238Y-59378618D02*
X184958000Y-59473857D01*
X184958000Y-59473857D02*
X184815143Y-59521476D01*
X184815143Y-59521476D02*
X184577048Y-59521476D01*
X185529429Y-58616714D02*
X185577048Y-58569095D01*
X185577048Y-58569095D02*
X185672286Y-58521476D01*
X185672286Y-58521476D02*
X185910381Y-58521476D01*
X185910381Y-58521476D02*
X186005619Y-58569095D01*
X186005619Y-58569095D02*
X186053238Y-58616714D01*
X186053238Y-58616714D02*
X186100857Y-58711952D01*
X186100857Y-58711952D02*
X186100857Y-58807190D01*
X186100857Y-58807190D02*
X186053238Y-58950047D01*
X186053238Y-58950047D02*
X185481810Y-59521476D01*
X185481810Y-59521476D02*
X186100857Y-59521476D01*
X117217319Y-74046666D02*
X116741128Y-74379999D01*
X117217319Y-74618094D02*
X116217319Y-74618094D01*
X116217319Y-74618094D02*
X116217319Y-74237142D01*
X116217319Y-74237142D02*
X116264938Y-74141904D01*
X116264938Y-74141904D02*
X116312557Y-74094285D01*
X116312557Y-74094285D02*
X116407795Y-74046666D01*
X116407795Y-74046666D02*
X116550652Y-74046666D01*
X116550652Y-74046666D02*
X116645890Y-74094285D01*
X116645890Y-74094285D02*
X116693509Y-74141904D01*
X116693509Y-74141904D02*
X116741128Y-74237142D01*
X116741128Y-74237142D02*
X116741128Y-74618094D01*
X116312557Y-73665713D02*
X116264938Y-73618094D01*
X116264938Y-73618094D02*
X116217319Y-73522856D01*
X116217319Y-73522856D02*
X116217319Y-73284761D01*
X116217319Y-73284761D02*
X116264938Y-73189523D01*
X116264938Y-73189523D02*
X116312557Y-73141904D01*
X116312557Y-73141904D02*
X116407795Y-73094285D01*
X116407795Y-73094285D02*
X116503033Y-73094285D01*
X116503033Y-73094285D02*
X116645890Y-73141904D01*
X116645890Y-73141904D02*
X117217319Y-73713332D01*
X117217319Y-73713332D02*
X117217319Y-73094285D01*
X27536666Y-60154819D02*
X27536666Y-60869104D01*
X27536666Y-60869104D02*
X27489047Y-61011961D01*
X27489047Y-61011961D02*
X27393809Y-61107200D01*
X27393809Y-61107200D02*
X27250952Y-61154819D01*
X27250952Y-61154819D02*
X27155714Y-61154819D01*
X28536666Y-61154819D02*
X27965238Y-61154819D01*
X28250952Y-61154819D02*
X28250952Y-60154819D01*
X28250952Y-60154819D02*
X28155714Y-60297676D01*
X28155714Y-60297676D02*
X28060476Y-60392914D01*
X28060476Y-60392914D02*
X27965238Y-60440533D01*
X161209167Y-85987200D02*
X161352024Y-86034819D01*
X161352024Y-86034819D02*
X161590119Y-86034819D01*
X161590119Y-86034819D02*
X161685357Y-85987200D01*
X161685357Y-85987200D02*
X161732976Y-85939580D01*
X161732976Y-85939580D02*
X161780595Y-85844342D01*
X161780595Y-85844342D02*
X161780595Y-85749104D01*
X161780595Y-85749104D02*
X161732976Y-85653866D01*
X161732976Y-85653866D02*
X161685357Y-85606247D01*
X161685357Y-85606247D02*
X161590119Y-85558628D01*
X161590119Y-85558628D02*
X161399643Y-85511009D01*
X161399643Y-85511009D02*
X161304405Y-85463390D01*
X161304405Y-85463390D02*
X161256786Y-85415771D01*
X161256786Y-85415771D02*
X161209167Y-85320533D01*
X161209167Y-85320533D02*
X161209167Y-85225295D01*
X161209167Y-85225295D02*
X161256786Y-85130057D01*
X161256786Y-85130057D02*
X161304405Y-85082438D01*
X161304405Y-85082438D02*
X161399643Y-85034819D01*
X161399643Y-85034819D02*
X161637738Y-85034819D01*
X161637738Y-85034819D02*
X161780595Y-85082438D01*
X162113929Y-85034819D02*
X162352024Y-86034819D01*
X162352024Y-86034819D02*
X162542500Y-85320533D01*
X162542500Y-85320533D02*
X162732976Y-86034819D01*
X162732976Y-86034819D02*
X162971072Y-85034819D01*
X163494881Y-85463390D02*
X163399643Y-85415771D01*
X163399643Y-85415771D02*
X163352024Y-85368152D01*
X163352024Y-85368152D02*
X163304405Y-85272914D01*
X163304405Y-85272914D02*
X163304405Y-85225295D01*
X163304405Y-85225295D02*
X163352024Y-85130057D01*
X163352024Y-85130057D02*
X163399643Y-85082438D01*
X163399643Y-85082438D02*
X163494881Y-85034819D01*
X163494881Y-85034819D02*
X163685357Y-85034819D01*
X163685357Y-85034819D02*
X163780595Y-85082438D01*
X163780595Y-85082438D02*
X163828214Y-85130057D01*
X163828214Y-85130057D02*
X163875833Y-85225295D01*
X163875833Y-85225295D02*
X163875833Y-85272914D01*
X163875833Y-85272914D02*
X163828214Y-85368152D01*
X163828214Y-85368152D02*
X163780595Y-85415771D01*
X163780595Y-85415771D02*
X163685357Y-85463390D01*
X163685357Y-85463390D02*
X163494881Y-85463390D01*
X163494881Y-85463390D02*
X163399643Y-85511009D01*
X163399643Y-85511009D02*
X163352024Y-85558628D01*
X163352024Y-85558628D02*
X163304405Y-85653866D01*
X163304405Y-85653866D02*
X163304405Y-85844342D01*
X163304405Y-85844342D02*
X163352024Y-85939580D01*
X163352024Y-85939580D02*
X163399643Y-85987200D01*
X163399643Y-85987200D02*
X163494881Y-86034819D01*
X163494881Y-86034819D02*
X163685357Y-86034819D01*
X163685357Y-86034819D02*
X163780595Y-85987200D01*
X163780595Y-85987200D02*
X163828214Y-85939580D01*
X163828214Y-85939580D02*
X163875833Y-85844342D01*
X163875833Y-85844342D02*
X163875833Y-85653866D01*
X163875833Y-85653866D02*
X163828214Y-85558628D01*
X163828214Y-85558628D02*
X163780595Y-85511009D01*
X163780595Y-85511009D02*
X163685357Y-85463390D01*
X274074819Y-105833333D02*
X274789104Y-105833333D01*
X274789104Y-105833333D02*
X274931961Y-105880952D01*
X274931961Y-105880952D02*
X275027200Y-105976190D01*
X275027200Y-105976190D02*
X275074819Y-106119047D01*
X275074819Y-106119047D02*
X275074819Y-106214285D01*
X274408152Y-104928571D02*
X275074819Y-104928571D01*
X274027200Y-105166666D02*
X274741485Y-105404761D01*
X274741485Y-105404761D02*
X274741485Y-104785714D01*
X245794819Y-94022857D02*
X245318628Y-94356190D01*
X245794819Y-94594285D02*
X244794819Y-94594285D01*
X244794819Y-94594285D02*
X244794819Y-94213333D01*
X244794819Y-94213333D02*
X244842438Y-94118095D01*
X244842438Y-94118095D02*
X244890057Y-94070476D01*
X244890057Y-94070476D02*
X244985295Y-94022857D01*
X244985295Y-94022857D02*
X245128152Y-94022857D01*
X245128152Y-94022857D02*
X245223390Y-94070476D01*
X245223390Y-94070476D02*
X245271009Y-94118095D01*
X245271009Y-94118095D02*
X245318628Y-94213333D01*
X245318628Y-94213333D02*
X245318628Y-94594285D01*
X245794819Y-93070476D02*
X245794819Y-93641904D01*
X245794819Y-93356190D02*
X244794819Y-93356190D01*
X244794819Y-93356190D02*
X244937676Y-93451428D01*
X244937676Y-93451428D02*
X245032914Y-93546666D01*
X245032914Y-93546666D02*
X245080533Y-93641904D01*
X244890057Y-92689523D02*
X244842438Y-92641904D01*
X244842438Y-92641904D02*
X244794819Y-92546666D01*
X244794819Y-92546666D02*
X244794819Y-92308571D01*
X244794819Y-92308571D02*
X244842438Y-92213333D01*
X244842438Y-92213333D02*
X244890057Y-92165714D01*
X244890057Y-92165714D02*
X244985295Y-92118095D01*
X244985295Y-92118095D02*
X245080533Y-92118095D01*
X245080533Y-92118095D02*
X245223390Y-92165714D01*
X245223390Y-92165714D02*
X245794819Y-92737142D01*
X245794819Y-92737142D02*
X245794819Y-92118095D01*
X77154819Y-44083333D02*
X76678628Y-44416666D01*
X77154819Y-44654761D02*
X76154819Y-44654761D01*
X76154819Y-44654761D02*
X76154819Y-44273809D01*
X76154819Y-44273809D02*
X76202438Y-44178571D01*
X76202438Y-44178571D02*
X76250057Y-44130952D01*
X76250057Y-44130952D02*
X76345295Y-44083333D01*
X76345295Y-44083333D02*
X76488152Y-44083333D01*
X76488152Y-44083333D02*
X76583390Y-44130952D01*
X76583390Y-44130952D02*
X76631009Y-44178571D01*
X76631009Y-44178571D02*
X76678628Y-44273809D01*
X76678628Y-44273809D02*
X76678628Y-44654761D01*
X76631009Y-43654761D02*
X76631009Y-43321428D01*
X77154819Y-43178571D02*
X77154819Y-43654761D01*
X77154819Y-43654761D02*
X76154819Y-43654761D01*
X76154819Y-43654761D02*
X76154819Y-43178571D01*
X76631009Y-42416666D02*
X76631009Y-42749999D01*
X77154819Y-42749999D02*
X76154819Y-42749999D01*
X76154819Y-42749999D02*
X76154819Y-42273809D01*
X76154819Y-41749999D02*
X76392914Y-41749999D01*
X76297676Y-41988094D02*
X76392914Y-41749999D01*
X76392914Y-41749999D02*
X76297676Y-41511904D01*
X76583390Y-41892856D02*
X76392914Y-41749999D01*
X76392914Y-41749999D02*
X76583390Y-41607142D01*
X76154819Y-40988094D02*
X76392914Y-40988094D01*
X76297676Y-41226189D02*
X76392914Y-40988094D01*
X76392914Y-40988094D02*
X76297676Y-40749999D01*
X76583390Y-41130951D02*
X76392914Y-40988094D01*
X76392914Y-40988094D02*
X76583390Y-40845237D01*
X118185833Y-102734819D02*
X117852500Y-102258628D01*
X117614405Y-102734819D02*
X117614405Y-101734819D01*
X117614405Y-101734819D02*
X117995357Y-101734819D01*
X117995357Y-101734819D02*
X118090595Y-101782438D01*
X118090595Y-101782438D02*
X118138214Y-101830057D01*
X118138214Y-101830057D02*
X118185833Y-101925295D01*
X118185833Y-101925295D02*
X118185833Y-102068152D01*
X118185833Y-102068152D02*
X118138214Y-102163390D01*
X118138214Y-102163390D02*
X118090595Y-102211009D01*
X118090595Y-102211009D02*
X117995357Y-102258628D01*
X117995357Y-102258628D02*
X117614405Y-102258628D01*
X119090595Y-101734819D02*
X118614405Y-101734819D01*
X118614405Y-101734819D02*
X118566786Y-102211009D01*
X118566786Y-102211009D02*
X118614405Y-102163390D01*
X118614405Y-102163390D02*
X118709643Y-102115771D01*
X118709643Y-102115771D02*
X118947738Y-102115771D01*
X118947738Y-102115771D02*
X119042976Y-102163390D01*
X119042976Y-102163390D02*
X119090595Y-102211009D01*
X119090595Y-102211009D02*
X119138214Y-102306247D01*
X119138214Y-102306247D02*
X119138214Y-102544342D01*
X119138214Y-102544342D02*
X119090595Y-102639580D01*
X119090595Y-102639580D02*
X119042976Y-102687200D01*
X119042976Y-102687200D02*
X118947738Y-102734819D01*
X118947738Y-102734819D02*
X118709643Y-102734819D01*
X118709643Y-102734819D02*
X118614405Y-102687200D01*
X118614405Y-102687200D02*
X118566786Y-102639580D01*
X136807319Y-115083333D02*
X136331128Y-115416666D01*
X136807319Y-115654761D02*
X135807319Y-115654761D01*
X135807319Y-115654761D02*
X135807319Y-115273809D01*
X135807319Y-115273809D02*
X135854938Y-115178571D01*
X135854938Y-115178571D02*
X135902557Y-115130952D01*
X135902557Y-115130952D02*
X135997795Y-115083333D01*
X135997795Y-115083333D02*
X136140652Y-115083333D01*
X136140652Y-115083333D02*
X136235890Y-115130952D01*
X136235890Y-115130952D02*
X136283509Y-115178571D01*
X136283509Y-115178571D02*
X136331128Y-115273809D01*
X136331128Y-115273809D02*
X136331128Y-115654761D01*
X136283509Y-114654761D02*
X136283509Y-114321428D01*
X136807319Y-114178571D02*
X136807319Y-114654761D01*
X136807319Y-114654761D02*
X135807319Y-114654761D01*
X135807319Y-114654761D02*
X135807319Y-114178571D01*
X136283509Y-113416666D02*
X136283509Y-113749999D01*
X136807319Y-113749999D02*
X135807319Y-113749999D01*
X135807319Y-113749999D02*
X135807319Y-113273809D01*
X135807319Y-112749999D02*
X136045414Y-112749999D01*
X135950176Y-112988094D02*
X136045414Y-112749999D01*
X136045414Y-112749999D02*
X135950176Y-112511904D01*
X136235890Y-112892856D02*
X136045414Y-112749999D01*
X136045414Y-112749999D02*
X136235890Y-112607142D01*
X135807319Y-111988094D02*
X136045414Y-111988094D01*
X135950176Y-112226189D02*
X136045414Y-111988094D01*
X136045414Y-111988094D02*
X135950176Y-111749999D01*
X136235890Y-112130951D02*
X136045414Y-111988094D01*
X136045414Y-111988094D02*
X136235890Y-111845237D01*
X104695833Y-84674819D02*
X104362500Y-84198628D01*
X104124405Y-84674819D02*
X104124405Y-83674819D01*
X104124405Y-83674819D02*
X104505357Y-83674819D01*
X104505357Y-83674819D02*
X104600595Y-83722438D01*
X104600595Y-83722438D02*
X104648214Y-83770057D01*
X104648214Y-83770057D02*
X104695833Y-83865295D01*
X104695833Y-83865295D02*
X104695833Y-84008152D01*
X104695833Y-84008152D02*
X104648214Y-84103390D01*
X104648214Y-84103390D02*
X104600595Y-84151009D01*
X104600595Y-84151009D02*
X104505357Y-84198628D01*
X104505357Y-84198628D02*
X104124405Y-84198628D01*
X105648214Y-84674819D02*
X105076786Y-84674819D01*
X105362500Y-84674819D02*
X105362500Y-83674819D01*
X105362500Y-83674819D02*
X105267262Y-83817676D01*
X105267262Y-83817676D02*
X105172024Y-83912914D01*
X105172024Y-83912914D02*
X105076786Y-83960533D01*
X127889700Y-94583332D02*
X127937319Y-94440475D01*
X127937319Y-94440475D02*
X127937319Y-94202380D01*
X127937319Y-94202380D02*
X127889700Y-94107142D01*
X127889700Y-94107142D02*
X127842080Y-94059523D01*
X127842080Y-94059523D02*
X127746842Y-94011904D01*
X127746842Y-94011904D02*
X127651604Y-94011904D01*
X127651604Y-94011904D02*
X127556366Y-94059523D01*
X127556366Y-94059523D02*
X127508747Y-94107142D01*
X127508747Y-94107142D02*
X127461128Y-94202380D01*
X127461128Y-94202380D02*
X127413509Y-94392856D01*
X127413509Y-94392856D02*
X127365890Y-94488094D01*
X127365890Y-94488094D02*
X127318271Y-94535713D01*
X127318271Y-94535713D02*
X127223033Y-94583332D01*
X127223033Y-94583332D02*
X127127795Y-94583332D01*
X127127795Y-94583332D02*
X127032557Y-94535713D01*
X127032557Y-94535713D02*
X126984938Y-94488094D01*
X126984938Y-94488094D02*
X126937319Y-94392856D01*
X126937319Y-94392856D02*
X126937319Y-94154761D01*
X126937319Y-94154761D02*
X126984938Y-94011904D01*
X126937319Y-93678570D02*
X127937319Y-93440475D01*
X127937319Y-93440475D02*
X127223033Y-93249999D01*
X127223033Y-93249999D02*
X127937319Y-93059523D01*
X127937319Y-93059523D02*
X126937319Y-92821428D01*
X126937319Y-91964285D02*
X126937319Y-92440475D01*
X126937319Y-92440475D02*
X127413509Y-92488094D01*
X127413509Y-92488094D02*
X127365890Y-92440475D01*
X127365890Y-92440475D02*
X127318271Y-92345237D01*
X127318271Y-92345237D02*
X127318271Y-92107142D01*
X127318271Y-92107142D02*
X127365890Y-92011904D01*
X127365890Y-92011904D02*
X127413509Y-91964285D01*
X127413509Y-91964285D02*
X127508747Y-91916666D01*
X127508747Y-91916666D02*
X127746842Y-91916666D01*
X127746842Y-91916666D02*
X127842080Y-91964285D01*
X127842080Y-91964285D02*
X127889700Y-92011904D01*
X127889700Y-92011904D02*
X127937319Y-92107142D01*
X127937319Y-92107142D02*
X127937319Y-92345237D01*
X127937319Y-92345237D02*
X127889700Y-92440475D01*
X127889700Y-92440475D02*
X127842080Y-92488094D01*
X265527200Y-95059523D02*
X265574819Y-94916666D01*
X265574819Y-94916666D02*
X265574819Y-94678571D01*
X265574819Y-94678571D02*
X265527200Y-94583333D01*
X265527200Y-94583333D02*
X265479580Y-94535714D01*
X265479580Y-94535714D02*
X265384342Y-94488095D01*
X265384342Y-94488095D02*
X265289104Y-94488095D01*
X265289104Y-94488095D02*
X265193866Y-94535714D01*
X265193866Y-94535714D02*
X265146247Y-94583333D01*
X265146247Y-94583333D02*
X265098628Y-94678571D01*
X265098628Y-94678571D02*
X265051009Y-94869047D01*
X265051009Y-94869047D02*
X265003390Y-94964285D01*
X265003390Y-94964285D02*
X264955771Y-95011904D01*
X264955771Y-95011904D02*
X264860533Y-95059523D01*
X264860533Y-95059523D02*
X264765295Y-95059523D01*
X264765295Y-95059523D02*
X264670057Y-95011904D01*
X264670057Y-95011904D02*
X264622438Y-94964285D01*
X264622438Y-94964285D02*
X264574819Y-94869047D01*
X264574819Y-94869047D02*
X264574819Y-94630952D01*
X264574819Y-94630952D02*
X264622438Y-94488095D01*
X264574819Y-94154761D02*
X265574819Y-93916666D01*
X265574819Y-93916666D02*
X264860533Y-93726190D01*
X264860533Y-93726190D02*
X265574819Y-93535714D01*
X265574819Y-93535714D02*
X264574819Y-93297619D01*
X265574819Y-92392857D02*
X265574819Y-92964285D01*
X265574819Y-92678571D02*
X264574819Y-92678571D01*
X264574819Y-92678571D02*
X264717676Y-92773809D01*
X264717676Y-92773809D02*
X264812914Y-92869047D01*
X264812914Y-92869047D02*
X264860533Y-92964285D01*
X265574819Y-91440476D02*
X265574819Y-92011904D01*
X265574819Y-91726190D02*
X264574819Y-91726190D01*
X264574819Y-91726190D02*
X264717676Y-91821428D01*
X264717676Y-91821428D02*
X264812914Y-91916666D01*
X264812914Y-91916666D02*
X264860533Y-92011904D01*
X200177319Y-115333333D02*
X199701128Y-115666666D01*
X200177319Y-115904761D02*
X199177319Y-115904761D01*
X199177319Y-115904761D02*
X199177319Y-115523809D01*
X199177319Y-115523809D02*
X199224938Y-115428571D01*
X199224938Y-115428571D02*
X199272557Y-115380952D01*
X199272557Y-115380952D02*
X199367795Y-115333333D01*
X199367795Y-115333333D02*
X199510652Y-115333333D01*
X199510652Y-115333333D02*
X199605890Y-115380952D01*
X199605890Y-115380952D02*
X199653509Y-115428571D01*
X199653509Y-115428571D02*
X199701128Y-115523809D01*
X199701128Y-115523809D02*
X199701128Y-115904761D01*
X199653509Y-114904761D02*
X199653509Y-114571428D01*
X200177319Y-114428571D02*
X200177319Y-114904761D01*
X200177319Y-114904761D02*
X199177319Y-114904761D01*
X199177319Y-114904761D02*
X199177319Y-114428571D01*
X199653509Y-113666666D02*
X199653509Y-113999999D01*
X200177319Y-113999999D02*
X199177319Y-113999999D01*
X199177319Y-113999999D02*
X199177319Y-113523809D01*
X199177319Y-112999999D02*
X199415414Y-112999999D01*
X199320176Y-113238094D02*
X199415414Y-112999999D01*
X199415414Y-112999999D02*
X199320176Y-112761904D01*
X199605890Y-113142856D02*
X199415414Y-112999999D01*
X199415414Y-112999999D02*
X199605890Y-112857142D01*
X199177319Y-112238094D02*
X199415414Y-112238094D01*
X199320176Y-112476189D02*
X199415414Y-112238094D01*
X199415414Y-112238094D02*
X199320176Y-111999999D01*
X199605890Y-112380951D02*
X199415414Y-112238094D01*
X199415414Y-112238094D02*
X199605890Y-112095237D01*
X206307319Y-105833333D02*
X207021604Y-105833333D01*
X207021604Y-105833333D02*
X207164461Y-105880952D01*
X207164461Y-105880952D02*
X207259700Y-105976190D01*
X207259700Y-105976190D02*
X207307319Y-106119047D01*
X207307319Y-106119047D02*
X207307319Y-106214285D01*
X206402557Y-105404761D02*
X206354938Y-105357142D01*
X206354938Y-105357142D02*
X206307319Y-105261904D01*
X206307319Y-105261904D02*
X206307319Y-105023809D01*
X206307319Y-105023809D02*
X206354938Y-104928571D01*
X206354938Y-104928571D02*
X206402557Y-104880952D01*
X206402557Y-104880952D02*
X206497795Y-104833333D01*
X206497795Y-104833333D02*
X206593033Y-104833333D01*
X206593033Y-104833333D02*
X206735890Y-104880952D01*
X206735890Y-104880952D02*
X207307319Y-105452380D01*
X207307319Y-105452380D02*
X207307319Y-104833333D01*
X144582557Y-64157738D02*
X144534938Y-64252976D01*
X144534938Y-64252976D02*
X144439700Y-64348214D01*
X144439700Y-64348214D02*
X144296842Y-64491071D01*
X144296842Y-64491071D02*
X144249223Y-64586309D01*
X144249223Y-64586309D02*
X144249223Y-64681547D01*
X144487319Y-64633928D02*
X144439700Y-64729166D01*
X144439700Y-64729166D02*
X144344461Y-64824404D01*
X144344461Y-64824404D02*
X144153985Y-64872023D01*
X144153985Y-64872023D02*
X143820652Y-64872023D01*
X143820652Y-64872023D02*
X143630176Y-64824404D01*
X143630176Y-64824404D02*
X143534938Y-64729166D01*
X143534938Y-64729166D02*
X143487319Y-64633928D01*
X143487319Y-64633928D02*
X143487319Y-64443452D01*
X143487319Y-64443452D02*
X143534938Y-64348214D01*
X143534938Y-64348214D02*
X143630176Y-64252976D01*
X143630176Y-64252976D02*
X143820652Y-64205357D01*
X143820652Y-64205357D02*
X144153985Y-64205357D01*
X144153985Y-64205357D02*
X144344461Y-64252976D01*
X144344461Y-64252976D02*
X144439700Y-64348214D01*
X144439700Y-64348214D02*
X144487319Y-64443452D01*
X144487319Y-64443452D02*
X144487319Y-64633928D01*
X144487319Y-63252976D02*
X144487319Y-63824404D01*
X144487319Y-63538690D02*
X143487319Y-63538690D01*
X143487319Y-63538690D02*
X143630176Y-63633928D01*
X143630176Y-63633928D02*
X143725414Y-63729166D01*
X143725414Y-63729166D02*
X143773033Y-63824404D01*
X269354819Y-76760952D02*
X268878628Y-77094285D01*
X269354819Y-77332380D02*
X268354819Y-77332380D01*
X268354819Y-77332380D02*
X268354819Y-76951428D01*
X268354819Y-76951428D02*
X268402438Y-76856190D01*
X268402438Y-76856190D02*
X268450057Y-76808571D01*
X268450057Y-76808571D02*
X268545295Y-76760952D01*
X268545295Y-76760952D02*
X268688152Y-76760952D01*
X268688152Y-76760952D02*
X268783390Y-76808571D01*
X268783390Y-76808571D02*
X268831009Y-76856190D01*
X268831009Y-76856190D02*
X268878628Y-76951428D01*
X268878628Y-76951428D02*
X268878628Y-77332380D01*
X269354819Y-75808571D02*
X269354819Y-76379999D01*
X269354819Y-76094285D02*
X268354819Y-76094285D01*
X268354819Y-76094285D02*
X268497676Y-76189523D01*
X268497676Y-76189523D02*
X268592914Y-76284761D01*
X268592914Y-76284761D02*
X268640533Y-76379999D01*
X269354819Y-74903809D02*
X269354819Y-75379999D01*
X269354819Y-75379999D02*
X268354819Y-75379999D01*
X268831009Y-74570475D02*
X268831009Y-74237142D01*
X269354819Y-74094285D02*
X269354819Y-74570475D01*
X269354819Y-74570475D02*
X268354819Y-74570475D01*
X268354819Y-74570475D02*
X268354819Y-74094285D01*
X269354819Y-73665713D02*
X268354819Y-73665713D01*
X268354819Y-73665713D02*
X268354819Y-73427618D01*
X268354819Y-73427618D02*
X268402438Y-73284761D01*
X268402438Y-73284761D02*
X268497676Y-73189523D01*
X268497676Y-73189523D02*
X268592914Y-73141904D01*
X268592914Y-73141904D02*
X268783390Y-73094285D01*
X268783390Y-73094285D02*
X268926247Y-73094285D01*
X268926247Y-73094285D02*
X269116723Y-73141904D01*
X269116723Y-73141904D02*
X269211961Y-73189523D01*
X269211961Y-73189523D02*
X269307200Y-73284761D01*
X269307200Y-73284761D02*
X269354819Y-73427618D01*
X269354819Y-73427618D02*
X269354819Y-73665713D01*
X269450057Y-72903809D02*
X269450057Y-72141904D01*
X268402438Y-71379999D02*
X268354819Y-71475237D01*
X268354819Y-71475237D02*
X268354819Y-71618094D01*
X268354819Y-71618094D02*
X268402438Y-71760951D01*
X268402438Y-71760951D02*
X268497676Y-71856189D01*
X268497676Y-71856189D02*
X268592914Y-71903808D01*
X268592914Y-71903808D02*
X268783390Y-71951427D01*
X268783390Y-71951427D02*
X268926247Y-71951427D01*
X268926247Y-71951427D02*
X269116723Y-71903808D01*
X269116723Y-71903808D02*
X269211961Y-71856189D01*
X269211961Y-71856189D02*
X269307200Y-71760951D01*
X269307200Y-71760951D02*
X269354819Y-71618094D01*
X269354819Y-71618094D02*
X269354819Y-71522856D01*
X269354819Y-71522856D02*
X269307200Y-71379999D01*
X269307200Y-71379999D02*
X269259580Y-71332380D01*
X269259580Y-71332380D02*
X268926247Y-71332380D01*
X268926247Y-71332380D02*
X268926247Y-71522856D01*
X268354819Y-70999046D02*
X268354819Y-70379999D01*
X268354819Y-70379999D02*
X268735771Y-70713332D01*
X268735771Y-70713332D02*
X268735771Y-70570475D01*
X268735771Y-70570475D02*
X268783390Y-70475237D01*
X268783390Y-70475237D02*
X268831009Y-70427618D01*
X268831009Y-70427618D02*
X268926247Y-70379999D01*
X268926247Y-70379999D02*
X269164342Y-70379999D01*
X269164342Y-70379999D02*
X269259580Y-70427618D01*
X269259580Y-70427618D02*
X269307200Y-70475237D01*
X269307200Y-70475237D02*
X269354819Y-70570475D01*
X269354819Y-70570475D02*
X269354819Y-70856189D01*
X269354819Y-70856189D02*
X269307200Y-70951427D01*
X269307200Y-70951427D02*
X269259580Y-70999046D01*
X122217319Y-76760952D02*
X121741128Y-77094285D01*
X122217319Y-77332380D02*
X121217319Y-77332380D01*
X121217319Y-77332380D02*
X121217319Y-76951428D01*
X121217319Y-76951428D02*
X121264938Y-76856190D01*
X121264938Y-76856190D02*
X121312557Y-76808571D01*
X121312557Y-76808571D02*
X121407795Y-76760952D01*
X121407795Y-76760952D02*
X121550652Y-76760952D01*
X121550652Y-76760952D02*
X121645890Y-76808571D01*
X121645890Y-76808571D02*
X121693509Y-76856190D01*
X121693509Y-76856190D02*
X121741128Y-76951428D01*
X121741128Y-76951428D02*
X121741128Y-77332380D01*
X122217319Y-75808571D02*
X122217319Y-76379999D01*
X122217319Y-76094285D02*
X121217319Y-76094285D01*
X121217319Y-76094285D02*
X121360176Y-76189523D01*
X121360176Y-76189523D02*
X121455414Y-76284761D01*
X121455414Y-76284761D02*
X121503033Y-76379999D01*
X122217319Y-74903809D02*
X122217319Y-75379999D01*
X122217319Y-75379999D02*
X121217319Y-75379999D01*
X121693509Y-74570475D02*
X121693509Y-74237142D01*
X122217319Y-74094285D02*
X122217319Y-74570475D01*
X122217319Y-74570475D02*
X121217319Y-74570475D01*
X121217319Y-74570475D02*
X121217319Y-74094285D01*
X122217319Y-73665713D02*
X121217319Y-73665713D01*
X121217319Y-73665713D02*
X121217319Y-73427618D01*
X121217319Y-73427618D02*
X121264938Y-73284761D01*
X121264938Y-73284761D02*
X121360176Y-73189523D01*
X121360176Y-73189523D02*
X121455414Y-73141904D01*
X121455414Y-73141904D02*
X121645890Y-73094285D01*
X121645890Y-73094285D02*
X121788747Y-73094285D01*
X121788747Y-73094285D02*
X121979223Y-73141904D01*
X121979223Y-73141904D02*
X122074461Y-73189523D01*
X122074461Y-73189523D02*
X122169700Y-73284761D01*
X122169700Y-73284761D02*
X122217319Y-73427618D01*
X122217319Y-73427618D02*
X122217319Y-73665713D01*
X122312557Y-72903809D02*
X122312557Y-72141904D01*
X122217319Y-71332380D02*
X121741128Y-71665713D01*
X122217319Y-71903808D02*
X121217319Y-71903808D01*
X121217319Y-71903808D02*
X121217319Y-71522856D01*
X121217319Y-71522856D02*
X121264938Y-71427618D01*
X121264938Y-71427618D02*
X121312557Y-71379999D01*
X121312557Y-71379999D02*
X121407795Y-71332380D01*
X121407795Y-71332380D02*
X121550652Y-71332380D01*
X121550652Y-71332380D02*
X121645890Y-71379999D01*
X121645890Y-71379999D02*
X121693509Y-71427618D01*
X121693509Y-71427618D02*
X121741128Y-71522856D01*
X121741128Y-71522856D02*
X121741128Y-71903808D01*
X122217319Y-70379999D02*
X122217319Y-70951427D01*
X122217319Y-70665713D02*
X121217319Y-70665713D01*
X121217319Y-70665713D02*
X121360176Y-70760951D01*
X121360176Y-70760951D02*
X121455414Y-70856189D01*
X121455414Y-70856189D02*
X121503033Y-70951427D01*
X262944819Y-115333333D02*
X262468628Y-115666666D01*
X262944819Y-115904761D02*
X261944819Y-115904761D01*
X261944819Y-115904761D02*
X261944819Y-115523809D01*
X261944819Y-115523809D02*
X261992438Y-115428571D01*
X261992438Y-115428571D02*
X262040057Y-115380952D01*
X262040057Y-115380952D02*
X262135295Y-115333333D01*
X262135295Y-115333333D02*
X262278152Y-115333333D01*
X262278152Y-115333333D02*
X262373390Y-115380952D01*
X262373390Y-115380952D02*
X262421009Y-115428571D01*
X262421009Y-115428571D02*
X262468628Y-115523809D01*
X262468628Y-115523809D02*
X262468628Y-115904761D01*
X262421009Y-114904761D02*
X262421009Y-114571428D01*
X262944819Y-114428571D02*
X262944819Y-114904761D01*
X262944819Y-114904761D02*
X261944819Y-114904761D01*
X261944819Y-114904761D02*
X261944819Y-114428571D01*
X262421009Y-113666666D02*
X262421009Y-113999999D01*
X262944819Y-113999999D02*
X261944819Y-113999999D01*
X261944819Y-113999999D02*
X261944819Y-113523809D01*
X261944819Y-112999999D02*
X262182914Y-112999999D01*
X262087676Y-113238094D02*
X262182914Y-112999999D01*
X262182914Y-112999999D02*
X262087676Y-112761904D01*
X262373390Y-113142856D02*
X262182914Y-112999999D01*
X262182914Y-112999999D02*
X262373390Y-112857142D01*
X261944819Y-112238094D02*
X262182914Y-112238094D01*
X262087676Y-112476189D02*
X262182914Y-112238094D01*
X262182914Y-112238094D02*
X262087676Y-111999999D01*
X262373390Y-112380951D02*
X262182914Y-112238094D01*
X262182914Y-112238094D02*
X262373390Y-112095237D01*
D11*
%TO.C,SW2*%
X182852500Y-91000000D02*
X182852500Y-95500000D01*
X185352500Y-96750000D02*
X186852500Y-96750000D01*
X186852500Y-89750000D02*
X185352500Y-89750000D01*
X189352500Y-95500000D02*
X189352500Y-91000000D01*
%TO.C,D4*%
X250930000Y-61595000D02*
X250930000Y-62405000D01*
X250690000Y-62000000D02*
G75*
G02*
X256009843Y-61999402I2660000J-700000D01*
G01*
X256009843Y-62000598D02*
G75*
G02*
X250690000Y-62000000I-2659843J700598D01*
G01*
%TO.C,J3*%
X144922500Y-104440000D02*
X145982500Y-104440000D01*
X144922500Y-105500000D02*
X144922500Y-104440000D01*
X146982500Y-104440000D02*
X149042500Y-104440000D01*
X146982500Y-106560000D02*
X146982500Y-104440000D01*
X146982500Y-106560000D02*
X149042500Y-106560000D01*
X149042500Y-106560000D02*
X149042500Y-104440000D01*
%TO.C,R10*%
X229420000Y-81500000D02*
X231380000Y-81500000D01*
X231380000Y-79780000D02*
X231380000Y-83220000D01*
X231380000Y-83220000D02*
X240620000Y-83220000D01*
X240620000Y-79780000D02*
X231380000Y-79780000D01*
X240620000Y-83220000D02*
X240620000Y-79780000D01*
X242580000Y-81500000D02*
X240620000Y-81500000D01*
%TO.C,R6*%
X161652500Y-81500000D02*
X163612500Y-81500000D01*
X163612500Y-79780000D02*
X163612500Y-83220000D01*
X163612500Y-83220000D02*
X172852500Y-83220000D01*
X172852500Y-79780000D02*
X163612500Y-79780000D01*
X172852500Y-83220000D02*
X172852500Y-79780000D01*
X174812500Y-81500000D02*
X172852500Y-81500000D01*
%TO.C,D5*%
X134557500Y-61355000D02*
X134557500Y-62165000D01*
X134317500Y-61760000D02*
G75*
G02*
X139637343Y-61759402I2660000J-700000D01*
G01*
X139637343Y-61760598D02*
G75*
G02*
X134317500Y-61760000I-2659843J700598D01*
G01*
%TO.C,R1LED_R2*%
X186132500Y-69260000D02*
X186132500Y-78500000D01*
X186132500Y-78500000D02*
X189572500Y-78500000D01*
X187852500Y-67300000D02*
X187852500Y-69260000D01*
X187852500Y-80460000D02*
X187852500Y-78500000D01*
X189572500Y-69260000D02*
X186132500Y-69260000D01*
X189572500Y-78500000D02*
X189572500Y-69260000D01*
%TO.C,U4*%
X61095000Y-105845000D02*
X59145000Y-105845000D01*
X61095000Y-105845000D02*
X63045000Y-105845000D01*
X61095000Y-110965000D02*
X59145000Y-110965000D01*
X61095000Y-110965000D02*
X63045000Y-110965000D01*
X58395000Y-105940000D02*
X58155000Y-105610000D01*
X58635000Y-105610000D01*
X58395000Y-105940000D01*
G36*
X58395000Y-105940000D02*
G01*
X58155000Y-105610000D01*
X58635000Y-105610000D01*
X58395000Y-105940000D01*
G37*
%TO.C,R8*%
X173132500Y-88760000D02*
X173132500Y-98000000D01*
X173132500Y-98000000D02*
X176572500Y-98000000D01*
X174852500Y-86800000D02*
X174852500Y-88760000D01*
X174852500Y-99960000D02*
X174852500Y-98000000D01*
X176572500Y-88760000D02*
X173132500Y-88760000D01*
X176572500Y-98000000D02*
X176572500Y-88760000D01*
%TO.C,D6*%
X119557500Y-61355000D02*
X119557500Y-62165000D01*
X119317500Y-61760000D02*
G75*
G02*
X124637343Y-61759402I2660000J-700000D01*
G01*
X124637343Y-61760598D02*
G75*
G02*
X119317500Y-61760000I-2659843J700598D01*
G01*
%TO.C,R7*%
X181132500Y-69260000D02*
X181132500Y-78500000D01*
X181132500Y-78500000D02*
X184572500Y-78500000D01*
X182852500Y-67300000D02*
X182852500Y-69260000D01*
X182852500Y-80460000D02*
X182852500Y-78500000D01*
X184572500Y-69260000D02*
X181132500Y-69260000D01*
X184572500Y-78500000D02*
X184572500Y-69260000D01*
%TO.C,U1*%
X31750000Y-67250000D02*
X31750000Y-48010000D01*
X31750000Y-67250000D02*
X82290000Y-67250000D01*
X49670000Y-67630000D02*
X51670000Y-67630000D01*
X82290000Y-48010000D02*
X31750000Y-48010000D01*
X82290000Y-67250000D02*
X82290000Y-48010000D01*
%TO.C,SW6*%
X134982500Y-91000000D02*
X134982500Y-95500000D01*
X137482500Y-96750000D02*
X138982500Y-96750000D01*
X138982500Y-89750000D02*
X137482500Y-89750000D01*
X141482500Y-95500000D02*
X141482500Y-91000000D01*
%TO.C,R1LED_R3*%
X253900000Y-69260000D02*
X253900000Y-78500000D01*
X253900000Y-78500000D02*
X257340000Y-78500000D01*
X255620000Y-67300000D02*
X255620000Y-69260000D01*
X255620000Y-80460000D02*
X255620000Y-78500000D01*
X257340000Y-69260000D02*
X253900000Y-69260000D01*
X257340000Y-78500000D02*
X257340000Y-69260000D01*
%TO.C,R1LED_G1*%
X138762500Y-69260000D02*
X138762500Y-78500000D01*
X138762500Y-78500000D02*
X142202500Y-78500000D01*
X140482500Y-67300000D02*
X140482500Y-69260000D01*
X140482500Y-80460000D02*
X140482500Y-78500000D01*
X142202500Y-69260000D02*
X138762500Y-69260000D01*
X142202500Y-78500000D02*
X142202500Y-69260000D01*
%TO.C,Q2*%
X208242500Y-64062500D02*
X208242500Y-63412500D01*
X208242500Y-64062500D02*
X208242500Y-64712500D01*
X211362500Y-64062500D02*
X211362500Y-63412500D01*
X211362500Y-64062500D02*
X211362500Y-64712500D01*
X208292500Y-65225000D02*
X207962500Y-65465000D01*
X207962500Y-64985000D01*
X208292500Y-65225000D01*
G36*
X208292500Y-65225000D02*
G01*
X207962500Y-65465000D01*
X207962500Y-64985000D01*
X208292500Y-65225000D01*
G37*
%TO.C,SW12*%
X225120000Y-86340000D02*
X225120000Y-87723000D01*
X225120000Y-86340000D02*
X226504000Y-86340000D01*
X225360000Y-86580000D02*
X225360000Y-91420000D01*
X225360000Y-86580000D02*
X235260000Y-86580000D01*
X225360000Y-91420000D02*
X235260000Y-91420000D01*
X228280000Y-88365000D02*
X228280000Y-89635000D01*
X228280000Y-88485000D02*
X229633333Y-88485000D01*
X228280000Y-88605000D02*
X229633333Y-88605000D01*
X228280000Y-88725000D02*
X229633333Y-88725000D01*
X228280000Y-88845000D02*
X229633333Y-88845000D01*
X228280000Y-88965000D02*
X229633333Y-88965000D01*
X228280000Y-89085000D02*
X229633333Y-89085000D01*
X228280000Y-89205000D02*
X229633333Y-89205000D01*
X228280000Y-89325000D02*
X229633333Y-89325000D01*
X228280000Y-89445000D02*
X229633333Y-89445000D01*
X228280000Y-89565000D02*
X229633333Y-89565000D01*
X228280000Y-89635000D02*
X232340000Y-89635000D01*
X229633333Y-88365000D02*
X229633333Y-89635000D01*
X232340000Y-88365000D02*
X228280000Y-88365000D01*
X232340000Y-89635000D02*
X232340000Y-88365000D01*
X235260000Y-86580000D02*
X235260000Y-91420000D01*
%TO.C,R9*%
X242660000Y-105000000D02*
X244620000Y-105000000D01*
X244620000Y-103280000D02*
X244620000Y-106720000D01*
X244620000Y-106720000D02*
X253860000Y-106720000D01*
X253860000Y-103280000D02*
X244620000Y-103280000D01*
X253860000Y-106720000D02*
X253860000Y-103280000D01*
X255820000Y-105000000D02*
X253860000Y-105000000D01*
%TO.C,SW13*%
X93982500Y-86840000D02*
X93982500Y-88223000D01*
X93982500Y-86840000D02*
X95366500Y-86840000D01*
X94222500Y-87080000D02*
X94222500Y-91920000D01*
X94222500Y-87080000D02*
X104122500Y-87080000D01*
X94222500Y-91920000D02*
X104122500Y-91920000D01*
X97142500Y-88865000D02*
X97142500Y-90135000D01*
X97142500Y-88985000D02*
X98495833Y-88985000D01*
X97142500Y-89105000D02*
X98495833Y-89105000D01*
X97142500Y-89225000D02*
X98495833Y-89225000D01*
X97142500Y-89345000D02*
X98495833Y-89345000D01*
X97142500Y-89465000D02*
X98495833Y-89465000D01*
X97142500Y-89585000D02*
X98495833Y-89585000D01*
X97142500Y-89705000D02*
X98495833Y-89705000D01*
X97142500Y-89825000D02*
X98495833Y-89825000D01*
X97142500Y-89945000D02*
X98495833Y-89945000D01*
X97142500Y-90065000D02*
X98495833Y-90065000D01*
X97142500Y-90135000D02*
X101202500Y-90135000D01*
X98495833Y-88865000D02*
X98495833Y-90135000D01*
X101202500Y-88865000D02*
X97142500Y-88865000D01*
X101202500Y-90135000D02*
X101202500Y-88865000D01*
X104122500Y-87080000D02*
X104122500Y-91920000D01*
%TO.C,REF\u002A\u002A*%
X183402500Y-52670000D02*
X183402500Y-55330000D01*
X196162500Y-52670000D02*
X183402500Y-52670000D01*
X196162500Y-52670000D02*
X196162500Y-55330000D01*
X196162500Y-55330000D02*
X183402500Y-55330000D01*
X197432500Y-52670000D02*
X198762500Y-52670000D01*
X198762500Y-52670000D02*
X198762500Y-54000000D01*
%TO.C,SW7*%
X198352500Y-91000000D02*
X198352500Y-95500000D01*
X200852500Y-96750000D02*
X202352500Y-96750000D01*
X202352500Y-89750000D02*
X200852500Y-89750000D01*
X204852500Y-95500000D02*
X204852500Y-91000000D01*
%TO.C,U1*%
X22870000Y-97435000D02*
X22870000Y-98150000D01*
X22870000Y-100950000D02*
X22870000Y-103625000D01*
X22870000Y-106425000D02*
X22870000Y-109100000D01*
X22870000Y-111900000D02*
X22870000Y-112615000D01*
X26400000Y-97435000D02*
X26400000Y-98150000D01*
X26400000Y-100950000D02*
X26400000Y-103625000D01*
X26400000Y-106425000D02*
X26400000Y-109100000D01*
X26400000Y-111900000D02*
X26400000Y-112615000D01*
X27910000Y-97435000D02*
X22870000Y-97435000D01*
X27910000Y-97435000D02*
X27910000Y-112615000D01*
X27910000Y-102910000D02*
X26400000Y-102910000D01*
X27910000Y-107140000D02*
X26400000Y-107140000D01*
X27910000Y-112615000D02*
X22870000Y-112615000D01*
%TO.C,R1LED_G2*%
X202132500Y-69260000D02*
X202132500Y-78500000D01*
X202132500Y-78500000D02*
X205572500Y-78500000D01*
X203852500Y-67300000D02*
X203852500Y-69260000D01*
X203852500Y-80460000D02*
X203852500Y-78500000D01*
X205572500Y-69260000D02*
X202132500Y-69260000D01*
X205572500Y-78500000D02*
X205572500Y-69260000D01*
%TO.C,R4*%
X174892500Y-105000000D02*
X176852500Y-105000000D01*
X176852500Y-103280000D02*
X176852500Y-106720000D01*
X176852500Y-106720000D02*
X186092500Y-106720000D01*
X186092500Y-103280000D02*
X176852500Y-103280000D01*
X186092500Y-106720000D02*
X186092500Y-103280000D01*
X188052500Y-105000000D02*
X186092500Y-105000000D01*
%TO.C,D3*%
X265695000Y-61595000D02*
X265695000Y-62405000D01*
X265455000Y-62000000D02*
G75*
G02*
X270774843Y-61999402I2660000J-700000D01*
G01*
X270774843Y-62000598D02*
G75*
G02*
X265455000Y-62000000I-2659843J700598D01*
G01*
%TO.C,REF\u002A\u002A*%
X120032500Y-52670000D02*
X120032500Y-55330000D01*
X132792500Y-52670000D02*
X120032500Y-52670000D01*
X132792500Y-52670000D02*
X132792500Y-55330000D01*
X132792500Y-55330000D02*
X120032500Y-55330000D01*
X134062500Y-52670000D02*
X135392500Y-52670000D01*
X135392500Y-52670000D02*
X135392500Y-54000000D01*
%TO.C,R11*%
X248900000Y-69260000D02*
X248900000Y-78500000D01*
X248900000Y-78500000D02*
X252340000Y-78500000D01*
X250620000Y-67300000D02*
X250620000Y-69260000D01*
X250620000Y-80460000D02*
X250620000Y-78500000D01*
X252340000Y-69260000D02*
X248900000Y-69260000D01*
X252340000Y-78500000D02*
X252340000Y-69260000D01*
%TO.C,SW3*%
X36220000Y-114500000D02*
X36220000Y-110400000D01*
X36220000Y-122600000D02*
X36220000Y-118500000D01*
X38620000Y-122600000D02*
X36220000Y-122600000D01*
X42120000Y-116000000D02*
X42120000Y-117000000D01*
X42620000Y-116500000D02*
X41620000Y-116500000D01*
X43420000Y-122600000D02*
X40820000Y-122600000D01*
X45920000Y-109000000D02*
X46220000Y-108700000D01*
X46220000Y-108700000D02*
X46220000Y-109300000D01*
X46220000Y-109300000D02*
X45920000Y-109000000D01*
X48020000Y-110400000D02*
X36220000Y-110400000D01*
X48020000Y-114500000D02*
X48020000Y-110400000D01*
X48020000Y-118500000D02*
X48020000Y-122600000D01*
X48020000Y-122600000D02*
X45620000Y-122600000D01*
X45120000Y-116500000D02*
G75*
G02*
X39120000Y-116500000I-3000000J0D01*
G01*
X39120000Y-116500000D02*
G75*
G02*
X45120000Y-116500000I3000000J0D01*
G01*
%TO.C,UC1*%
X41970000Y-78160000D02*
X41970000Y-79810000D01*
X41970000Y-81810000D02*
X41970000Y-83460000D01*
X41970000Y-83460000D02*
X77650000Y-83460000D01*
X77650000Y-78160000D02*
X41970000Y-78160000D01*
X77650000Y-83460000D02*
X77650000Y-78160000D01*
X41970000Y-79810000D02*
G75*
G02*
X41970000Y-81810000I0J-1000000D01*
G01*
%TO.C,REF\u002A\u002A*%
X31220000Y-41420000D02*
X31220000Y-44080000D01*
X38900000Y-41420000D02*
X31220000Y-41420000D01*
X38900000Y-41420000D02*
X38900000Y-44080000D01*
X38900000Y-44080000D02*
X31220000Y-44080000D01*
X40170000Y-41420000D02*
X41500000Y-41420000D01*
X41500000Y-41420000D02*
X41500000Y-42750000D01*
X47720000Y-41420000D02*
X47720000Y-44080000D01*
X55400000Y-41420000D02*
X47720000Y-41420000D01*
X55400000Y-41420000D02*
X55400000Y-44080000D01*
X55400000Y-44080000D02*
X47720000Y-44080000D01*
X56670000Y-41420000D02*
X58000000Y-41420000D01*
X58000000Y-41420000D02*
X58000000Y-42750000D01*
%TO.C,D1*%
X197927500Y-61595000D02*
X197927500Y-62405000D01*
X197687500Y-62000000D02*
G75*
G02*
X203007343Y-61999402I2660000J-700000D01*
G01*
X203007343Y-62000598D02*
G75*
G02*
X197687500Y-62000000I-2659843J700598D01*
G01*
%TO.C,REF\u002A\u002A*%
X251250000Y-52670000D02*
X251250000Y-55330000D01*
X264010000Y-52670000D02*
X251250000Y-52670000D01*
X264010000Y-52670000D02*
X264010000Y-55330000D01*
X264010000Y-55330000D02*
X251250000Y-55330000D01*
X265280000Y-52670000D02*
X266610000Y-52670000D01*
X266610000Y-52670000D02*
X266610000Y-54000000D01*
%TO.C,R3*%
X109882500Y-88760000D02*
X109882500Y-98000000D01*
X109882500Y-98000000D02*
X113322500Y-98000000D01*
X111602500Y-86800000D02*
X111602500Y-88760000D01*
X111602500Y-99960000D02*
X111602500Y-98000000D01*
X113322500Y-88760000D02*
X109882500Y-88760000D01*
X113322500Y-98000000D02*
X113322500Y-88760000D01*
%TO.C,SW10*%
X250620000Y-91000000D02*
X250620000Y-95500000D01*
X253120000Y-96750000D02*
X254620000Y-96750000D01*
X254620000Y-89750000D02*
X253120000Y-89750000D01*
X257120000Y-95500000D02*
X257120000Y-91000000D01*
%TO.C,Q3*%
X275860000Y-64062500D02*
X275860000Y-63412500D01*
X275860000Y-64062500D02*
X275860000Y-64712500D01*
X278980000Y-64062500D02*
X278980000Y-63412500D01*
X278980000Y-64062500D02*
X278980000Y-64712500D01*
X275910000Y-65225000D02*
X275580000Y-65465000D01*
X275580000Y-64985000D01*
X275910000Y-65225000D01*
G36*
X275910000Y-65225000D02*
G01*
X275580000Y-65465000D01*
X275580000Y-64985000D01*
X275910000Y-65225000D01*
G37*
%TO.C,D2*%
X182895143Y-61621657D02*
X182895143Y-62431657D01*
X182655143Y-62026657D02*
G75*
G02*
X187974986Y-62026059I2660000J-700000D01*
G01*
X187974986Y-62027255D02*
G75*
G02*
X182655143Y-62026657I-2659843J700598D01*
G01*
%TO.C,R2*%
X117762500Y-69260000D02*
X117762500Y-78500000D01*
X117762500Y-78500000D02*
X121202500Y-78500000D01*
X119482500Y-67300000D02*
X119482500Y-69260000D01*
X119482500Y-80460000D02*
X119482500Y-78500000D01*
X121202500Y-69260000D02*
X117762500Y-69260000D01*
X121202500Y-78500000D02*
X121202500Y-69260000D01*
%TO.C,J1*%
X26540000Y-57100000D02*
X26540000Y-49420000D01*
X29200000Y-49420000D02*
X26540000Y-49420000D01*
X29200000Y-57100000D02*
X26540000Y-57100000D01*
X29200000Y-57100000D02*
X29200000Y-49420000D01*
X29200000Y-58370000D02*
X29200000Y-59700000D01*
X29200000Y-59700000D02*
X27870000Y-59700000D01*
%TO.C,SW8*%
X157352500Y-86340000D02*
X157352500Y-87723000D01*
X157352500Y-86340000D02*
X158736500Y-86340000D01*
X157592500Y-86580000D02*
X157592500Y-91420000D01*
X157592500Y-86580000D02*
X167492500Y-86580000D01*
X157592500Y-91420000D02*
X167492500Y-91420000D01*
X160512500Y-88365000D02*
X160512500Y-89635000D01*
X160512500Y-88485000D02*
X161865833Y-88485000D01*
X160512500Y-88605000D02*
X161865833Y-88605000D01*
X160512500Y-88725000D02*
X161865833Y-88725000D01*
X160512500Y-88845000D02*
X161865833Y-88845000D01*
X160512500Y-88965000D02*
X161865833Y-88965000D01*
X160512500Y-89085000D02*
X161865833Y-89085000D01*
X160512500Y-89205000D02*
X161865833Y-89205000D01*
X160512500Y-89325000D02*
X161865833Y-89325000D01*
X160512500Y-89445000D02*
X161865833Y-89445000D01*
X160512500Y-89565000D02*
X161865833Y-89565000D01*
X160512500Y-89635000D02*
X164572500Y-89635000D01*
X161865833Y-88365000D02*
X161865833Y-89635000D01*
X164572500Y-88365000D02*
X160512500Y-88365000D01*
X164572500Y-89635000D02*
X164572500Y-88365000D01*
X167492500Y-86580000D02*
X167492500Y-91420000D01*
%TO.C,J4*%
X276060000Y-104440000D02*
X277120000Y-104440000D01*
X276060000Y-105500000D02*
X276060000Y-104440000D01*
X278120000Y-104440000D02*
X280180000Y-104440000D01*
X278120000Y-106560000D02*
X278120000Y-104440000D01*
X278120000Y-106560000D02*
X280180000Y-106560000D01*
X280180000Y-106560000D02*
X280180000Y-104440000D01*
%TO.C,R12*%
X240900000Y-88760000D02*
X240900000Y-98000000D01*
X240900000Y-98000000D02*
X244340000Y-98000000D01*
X242620000Y-86800000D02*
X242620000Y-88760000D01*
X242620000Y-99960000D02*
X242620000Y-98000000D01*
X244340000Y-88760000D02*
X240900000Y-88760000D01*
X244340000Y-98000000D02*
X244340000Y-88760000D01*
%TO.C,REF\u002A\u002A*%
X65420000Y-41420000D02*
X65420000Y-44080000D01*
X73100000Y-41420000D02*
X65420000Y-41420000D01*
X73100000Y-41420000D02*
X73100000Y-44080000D01*
X73100000Y-44080000D02*
X65420000Y-44080000D01*
X74370000Y-41420000D02*
X75700000Y-41420000D01*
X75700000Y-41420000D02*
X75700000Y-42750000D01*
%TO.C,R5*%
X111772500Y-105000000D02*
X113732500Y-105000000D01*
X113732500Y-103280000D02*
X113732500Y-106720000D01*
X113732500Y-106720000D02*
X122972500Y-106720000D01*
X122972500Y-103280000D02*
X113732500Y-103280000D01*
X122972500Y-106720000D02*
X122972500Y-103280000D01*
X124932500Y-105000000D02*
X122972500Y-105000000D01*
%TO.C,REF\u002A\u002A*%
X130152500Y-112420000D02*
X130152500Y-115080000D01*
X132752500Y-112420000D02*
X130152500Y-112420000D01*
X132752500Y-112420000D02*
X132752500Y-115080000D01*
X132752500Y-115080000D02*
X130152500Y-115080000D01*
X134022500Y-112420000D02*
X135352500Y-112420000D01*
X135352500Y-112420000D02*
X135352500Y-113750000D01*
%TO.C,R1*%
X98282500Y-81500000D02*
X100242500Y-81500000D01*
X100242500Y-79780000D02*
X100242500Y-83220000D01*
X100242500Y-83220000D02*
X109482500Y-83220000D01*
X109482500Y-79780000D02*
X100242500Y-79780000D01*
X109482500Y-83220000D02*
X109482500Y-79780000D01*
X111442500Y-81500000D02*
X109482500Y-81500000D01*
%TO.C,SW5*%
X119982500Y-91000000D02*
X119982500Y-95500000D01*
X122482500Y-96750000D02*
X123982500Y-96750000D01*
X123982500Y-89750000D02*
X122482500Y-89750000D01*
X126482500Y-95500000D02*
X126482500Y-91000000D01*
%TO.C,SW11*%
X266120000Y-91000000D02*
X266120000Y-95500000D01*
X268620000Y-96750000D02*
X270120000Y-96750000D01*
X270120000Y-89750000D02*
X268620000Y-89750000D01*
X272620000Y-95500000D02*
X272620000Y-91000000D01*
%TO.C,REF\u002A\u002A*%
X193522500Y-112670000D02*
X193522500Y-115330000D01*
X196122500Y-112670000D02*
X193522500Y-112670000D01*
X196122500Y-112670000D02*
X196122500Y-115330000D01*
X196122500Y-115330000D02*
X193522500Y-115330000D01*
X197392500Y-112670000D02*
X198722500Y-112670000D01*
X198722500Y-112670000D02*
X198722500Y-114000000D01*
%TO.C,J2*%
X208292500Y-104440000D02*
X209352500Y-104440000D01*
X208292500Y-105500000D02*
X208292500Y-104440000D01*
X210352500Y-104440000D02*
X212412500Y-104440000D01*
X210352500Y-106560000D02*
X210352500Y-104440000D01*
X210352500Y-106560000D02*
X212412500Y-106560000D01*
X212412500Y-106560000D02*
X212412500Y-104440000D01*
%TO.C,Q1*%
X144872500Y-64062500D02*
X144872500Y-63412500D01*
X144872500Y-64062500D02*
X144872500Y-64712500D01*
X147992500Y-64062500D02*
X147992500Y-63412500D01*
X147992500Y-64062500D02*
X147992500Y-64712500D01*
X144922500Y-65225000D02*
X144592500Y-65465000D01*
X144592500Y-64985000D01*
X144922500Y-65225000D01*
G36*
X144922500Y-65225000D02*
G01*
X144592500Y-65465000D01*
X144592500Y-64985000D01*
X144922500Y-65225000D01*
G37*
%TO.C,R1LED_G3*%
X269900000Y-69260000D02*
X269900000Y-78500000D01*
X269900000Y-78500000D02*
X273340000Y-78500000D01*
X271620000Y-67300000D02*
X271620000Y-69260000D01*
X271620000Y-80460000D02*
X271620000Y-78500000D01*
X273340000Y-69260000D02*
X269900000Y-69260000D01*
X273340000Y-78500000D02*
X273340000Y-69260000D01*
%TO.C,R1LED_R1*%
X122762500Y-69260000D02*
X122762500Y-78500000D01*
X122762500Y-78500000D02*
X126202500Y-78500000D01*
X124482500Y-67300000D02*
X124482500Y-69260000D01*
X124482500Y-80460000D02*
X124482500Y-78500000D01*
X126202500Y-69260000D02*
X122762500Y-69260000D01*
X126202500Y-78500000D02*
X126202500Y-69260000D01*
%TO.C,REF\u002A\u002A*%
X256290000Y-112670000D02*
X256290000Y-115330000D01*
X258890000Y-112670000D02*
X256290000Y-112670000D01*
X258890000Y-112670000D02*
X258890000Y-115330000D01*
X258890000Y-115330000D02*
X256290000Y-115330000D01*
X260160000Y-112670000D02*
X261490000Y-112670000D01*
X261490000Y-112670000D02*
X261490000Y-114000000D01*
%TD*%
M02*
