%TF.GenerationSoftware,KiCad,Pcbnew,8.0.6*%
%TF.CreationDate,2024-12-22T20:43:38-05:00*%
%TF.ProjectId,flowcontrol_BL,666c6f77-636f-46e7-9472-6f6c5f424c2e,rev?*%
%TF.SameCoordinates,Original*%
%TF.FileFunction,Drillmap*%
%TF.FilePolarity,Positive*%
%FSLAX45Y45*%
G04 Gerber Fmt 4.5, Leading zero omitted, Abs format (unit mm)*
G04 Created by KiCad (PCBNEW 8.0.6) date 2024-12-22 20:43:38*
%MOMM*%
%LPD*%
G01*
G04 APERTURE LIST*
%ADD10C,0.050000*%
%ADD11C,0.200000*%
%ADD12C,0.100000*%
%ADD13C,0.110000*%
%ADD14C,0.150000*%
G04 APERTURE END LIST*
D10*
X1887000Y-3975000D02*
X8687000Y-3975000D01*
X8687000Y-12925000D01*
X1887000Y-12925000D01*
X1887000Y-3975000D01*
X9198250Y-4900000D02*
X15198250Y-4900000D01*
X15198250Y-12000000D01*
X9198250Y-12000000D01*
X9198250Y-4900000D01*
X22300000Y-4900000D02*
X28300000Y-4900000D01*
X28300000Y-12000000D01*
X22300000Y-12000000D01*
X22300000Y-4900000D01*
X15550000Y-4900000D02*
X21550000Y-4900000D01*
X21550000Y-12000000D01*
X15550000Y-12000000D01*
X15550000Y-4900000D01*
D11*
D12*
X5385000Y-10485000D02*
X5415000Y-10515000D01*
X5415000Y-10485000D02*
X5385000Y-10515000D01*
X5385000Y-10735000D02*
X5415000Y-10765000D01*
X5415000Y-10735000D02*
X5385000Y-10765000D01*
X5635000Y-10785000D02*
X5665000Y-10815000D01*
X5665000Y-10785000D02*
X5635000Y-10815000D01*
X5835000Y-11435000D02*
X5865000Y-11465000D01*
X5865000Y-11435000D02*
X5835000Y-11465000D01*
X14235000Y-6435000D02*
X14265000Y-6465000D01*
X14265000Y-6435000D02*
X14235000Y-6465000D01*
X20485000Y-6485000D02*
X20515000Y-6515000D01*
X20515000Y-6485000D02*
X20485000Y-6515000D01*
X27335000Y-6485000D02*
X27365000Y-6515000D01*
X27365000Y-6485000D02*
X27335000Y-6515000D01*
X4370000Y-7700000D02*
G75*
G02*
X4290000Y-7700000I-40000J0D01*
G01*
X4290000Y-7700000D02*
G75*
G02*
X4370000Y-7700000I40000J0D01*
G01*
X4370000Y-8462000D02*
G75*
G02*
X4290000Y-8462000I-40000J0D01*
G01*
X4290000Y-8462000D02*
G75*
G02*
X4370000Y-8462000I40000J0D01*
G01*
X4624000Y-7700000D02*
G75*
G02*
X4544000Y-7700000I-40000J0D01*
G01*
X4544000Y-7700000D02*
G75*
G02*
X4624000Y-7700000I40000J0D01*
G01*
X4624000Y-8462000D02*
G75*
G02*
X4544000Y-8462000I-40000J0D01*
G01*
X4544000Y-8462000D02*
G75*
G02*
X4624000Y-8462000I40000J0D01*
G01*
X4878000Y-7700000D02*
G75*
G02*
X4798000Y-7700000I-40000J0D01*
G01*
X4798000Y-7700000D02*
G75*
G02*
X4878000Y-7700000I40000J0D01*
G01*
X4878000Y-8462000D02*
G75*
G02*
X4798000Y-8462000I-40000J0D01*
G01*
X4798000Y-8462000D02*
G75*
G02*
X4878000Y-8462000I40000J0D01*
G01*
X5132000Y-7700000D02*
G75*
G02*
X5052000Y-7700000I-40000J0D01*
G01*
X5052000Y-7700000D02*
G75*
G02*
X5132000Y-7700000I40000J0D01*
G01*
X5132000Y-8462000D02*
G75*
G02*
X5052000Y-8462000I-40000J0D01*
G01*
X5052000Y-8462000D02*
G75*
G02*
X5132000Y-8462000I40000J0D01*
G01*
X5386000Y-7700000D02*
G75*
G02*
X5306000Y-7700000I-40000J0D01*
G01*
X5306000Y-7700000D02*
G75*
G02*
X5386000Y-7700000I40000J0D01*
G01*
X5386000Y-8462000D02*
G75*
G02*
X5306000Y-8462000I-40000J0D01*
G01*
X5306000Y-8462000D02*
G75*
G02*
X5386000Y-8462000I40000J0D01*
G01*
X5640000Y-7700000D02*
G75*
G02*
X5560000Y-7700000I-40000J0D01*
G01*
X5560000Y-7700000D02*
G75*
G02*
X5640000Y-7700000I40000J0D01*
G01*
X5640000Y-8462000D02*
G75*
G02*
X5560000Y-8462000I-40000J0D01*
G01*
X5560000Y-8462000D02*
G75*
G02*
X5640000Y-8462000I40000J0D01*
G01*
X5894000Y-7700000D02*
G75*
G02*
X5814000Y-7700000I-40000J0D01*
G01*
X5814000Y-7700000D02*
G75*
G02*
X5894000Y-7700000I40000J0D01*
G01*
X5894000Y-8462000D02*
G75*
G02*
X5814000Y-8462000I-40000J0D01*
G01*
X5814000Y-8462000D02*
G75*
G02*
X5894000Y-8462000I40000J0D01*
G01*
X6148000Y-7700000D02*
G75*
G02*
X6068000Y-7700000I-40000J0D01*
G01*
X6068000Y-7700000D02*
G75*
G02*
X6148000Y-7700000I40000J0D01*
G01*
X6148000Y-8462000D02*
G75*
G02*
X6068000Y-8462000I-40000J0D01*
G01*
X6068000Y-8462000D02*
G75*
G02*
X6148000Y-8462000I40000J0D01*
G01*
X6402000Y-7700000D02*
G75*
G02*
X6322000Y-7700000I-40000J0D01*
G01*
X6322000Y-7700000D02*
G75*
G02*
X6402000Y-7700000I40000J0D01*
G01*
X6402000Y-8462000D02*
G75*
G02*
X6322000Y-8462000I-40000J0D01*
G01*
X6322000Y-8462000D02*
G75*
G02*
X6402000Y-8462000I40000J0D01*
G01*
X6656000Y-7700000D02*
G75*
G02*
X6576000Y-7700000I-40000J0D01*
G01*
X6576000Y-7700000D02*
G75*
G02*
X6656000Y-7700000I40000J0D01*
G01*
X6656000Y-8462000D02*
G75*
G02*
X6576000Y-8462000I-40000J0D01*
G01*
X6576000Y-8462000D02*
G75*
G02*
X6656000Y-8462000I40000J0D01*
G01*
X6910000Y-7700000D02*
G75*
G02*
X6830000Y-7700000I-40000J0D01*
G01*
X6830000Y-7700000D02*
G75*
G02*
X6910000Y-7700000I40000J0D01*
G01*
X6910000Y-8462000D02*
G75*
G02*
X6830000Y-8462000I-40000J0D01*
G01*
X6830000Y-8462000D02*
G75*
G02*
X6910000Y-8462000I40000J0D01*
G01*
X7164000Y-7700000D02*
G75*
G02*
X7084000Y-7700000I-40000J0D01*
G01*
X7084000Y-7700000D02*
G75*
G02*
X7164000Y-7700000I40000J0D01*
G01*
X7164000Y-8462000D02*
G75*
G02*
X7084000Y-8462000I-40000J0D01*
G01*
X7084000Y-8462000D02*
G75*
G02*
X7164000Y-8462000I40000J0D01*
G01*
X7418000Y-7700000D02*
G75*
G02*
X7338000Y-7700000I-40000J0D01*
G01*
X7338000Y-7700000D02*
G75*
G02*
X7418000Y-7700000I40000J0D01*
G01*
X7418000Y-8462000D02*
G75*
G02*
X7338000Y-8462000I-40000J0D01*
G01*
X7338000Y-8462000D02*
G75*
G02*
X7418000Y-8462000I40000J0D01*
G01*
X7672000Y-7700000D02*
G75*
G02*
X7592000Y-7700000I-40000J0D01*
G01*
X7592000Y-7700000D02*
G75*
G02*
X7672000Y-7700000I40000J0D01*
G01*
X7672000Y-8462000D02*
G75*
G02*
X7592000Y-8462000I-40000J0D01*
G01*
X7592000Y-8462000D02*
G75*
G02*
X7672000Y-8462000I40000J0D01*
G01*
X9576250Y-8950000D02*
G75*
G02*
X9496250Y-8950000I-40000J0D01*
G01*
X9496250Y-8950000D02*
G75*
G02*
X9576250Y-8950000I40000J0D01*
G01*
X9764250Y-8150000D02*
G75*
G02*
X9684250Y-8150000I-40000J0D01*
G01*
X9684250Y-8150000D02*
G75*
G02*
X9764250Y-8150000I40000J0D01*
G01*
X10338250Y-8950000D02*
G75*
G02*
X10258250Y-8950000I-40000J0D01*
G01*
X10258250Y-8950000D02*
G75*
G02*
X10338250Y-8950000I40000J0D01*
G01*
X11113250Y-10500000D02*
G75*
G02*
X11033250Y-10500000I-40000J0D01*
G01*
X11033250Y-10500000D02*
G75*
G02*
X11113250Y-10500000I40000J0D01*
G01*
X11200250Y-8576000D02*
G75*
G02*
X11120250Y-8576000I-40000J0D01*
G01*
X11120250Y-8576000D02*
G75*
G02*
X11200250Y-8576000I40000J0D01*
G01*
X11200250Y-10100000D02*
G75*
G02*
X11120250Y-10100000I-40000J0D01*
G01*
X11120250Y-10100000D02*
G75*
G02*
X11200250Y-10100000I40000J0D01*
G01*
X11288250Y-8150000D02*
G75*
G02*
X11208250Y-8150000I-40000J0D01*
G01*
X11208250Y-8150000D02*
G75*
G02*
X11288250Y-8150000I40000J0D01*
G01*
X11988250Y-6626000D02*
G75*
G02*
X11908250Y-6626000I-40000J0D01*
G01*
X11908250Y-6626000D02*
G75*
G02*
X11988250Y-6626000I40000J0D01*
G01*
X11988250Y-8150000D02*
G75*
G02*
X11908250Y-8150000I-40000J0D01*
G01*
X11908250Y-8150000D02*
G75*
G02*
X11988250Y-8150000I40000J0D01*
G01*
X12488250Y-6626000D02*
G75*
G02*
X12408250Y-6626000I-40000J0D01*
G01*
X12408250Y-6626000D02*
G75*
G02*
X12488250Y-6626000I40000J0D01*
G01*
X12488250Y-8150000D02*
G75*
G02*
X12408250Y-8150000I-40000J0D01*
G01*
X12408250Y-8150000D02*
G75*
G02*
X12488250Y-8150000I40000J0D01*
G01*
X12637250Y-10500000D02*
G75*
G02*
X12557250Y-10500000I-40000J0D01*
G01*
X12557250Y-10500000D02*
G75*
G02*
X12637250Y-10500000I40000J0D01*
G01*
X14088250Y-6626000D02*
G75*
G02*
X14008250Y-6626000I-40000J0D01*
G01*
X14008250Y-6626000D02*
G75*
G02*
X14088250Y-6626000I40000J0D01*
G01*
X14088250Y-8150000D02*
G75*
G02*
X14008250Y-8150000I-40000J0D01*
G01*
X14008250Y-8150000D02*
G75*
G02*
X14088250Y-8150000I40000J0D01*
G01*
X14638250Y-10550000D02*
G75*
G02*
X14558250Y-10550000I-40000J0D01*
G01*
X14558250Y-10550000D02*
G75*
G02*
X14638250Y-10550000I40000J0D01*
G01*
X14838250Y-10550000D02*
G75*
G02*
X14758250Y-10550000I-40000J0D01*
G01*
X14758250Y-10550000D02*
G75*
G02*
X14838250Y-10550000I40000J0D01*
G01*
X15913250Y-8900000D02*
G75*
G02*
X15833250Y-8900000I-40000J0D01*
G01*
X15833250Y-8900000D02*
G75*
G02*
X15913250Y-8900000I40000J0D01*
G01*
X16101250Y-8150000D02*
G75*
G02*
X16021250Y-8150000I-40000J0D01*
G01*
X16021250Y-8150000D02*
G75*
G02*
X16101250Y-8150000I40000J0D01*
G01*
X16675250Y-8900000D02*
G75*
G02*
X16595250Y-8900000I-40000J0D01*
G01*
X16595250Y-8900000D02*
G75*
G02*
X16675250Y-8900000I40000J0D01*
G01*
X17425250Y-10500000D02*
G75*
G02*
X17345250Y-10500000I-40000J0D01*
G01*
X17345250Y-10500000D02*
G75*
G02*
X17425250Y-10500000I40000J0D01*
G01*
X17525250Y-8576000D02*
G75*
G02*
X17445250Y-8576000I-40000J0D01*
G01*
X17445250Y-8576000D02*
G75*
G02*
X17525250Y-8576000I40000J0D01*
G01*
X17525250Y-10100000D02*
G75*
G02*
X17445250Y-10100000I-40000J0D01*
G01*
X17445250Y-10100000D02*
G75*
G02*
X17525250Y-10100000I40000J0D01*
G01*
X17625250Y-8150000D02*
G75*
G02*
X17545250Y-8150000I-40000J0D01*
G01*
X17545250Y-8150000D02*
G75*
G02*
X17625250Y-8150000I40000J0D01*
G01*
X18325250Y-6626000D02*
G75*
G02*
X18245250Y-6626000I-40000J0D01*
G01*
X18245250Y-6626000D02*
G75*
G02*
X18325250Y-6626000I40000J0D01*
G01*
X18325250Y-8150000D02*
G75*
G02*
X18245250Y-8150000I-40000J0D01*
G01*
X18245250Y-8150000D02*
G75*
G02*
X18325250Y-8150000I40000J0D01*
G01*
X18825250Y-6626000D02*
G75*
G02*
X18745250Y-6626000I-40000J0D01*
G01*
X18745250Y-6626000D02*
G75*
G02*
X18825250Y-6626000I40000J0D01*
G01*
X18825250Y-8150000D02*
G75*
G02*
X18745250Y-8150000I-40000J0D01*
G01*
X18745250Y-8150000D02*
G75*
G02*
X18825250Y-8150000I40000J0D01*
G01*
X18949250Y-10500000D02*
G75*
G02*
X18869250Y-10500000I-40000J0D01*
G01*
X18869250Y-10500000D02*
G75*
G02*
X18949250Y-10500000I40000J0D01*
G01*
X20425250Y-6626000D02*
G75*
G02*
X20345250Y-6626000I-40000J0D01*
G01*
X20345250Y-6626000D02*
G75*
G02*
X20425250Y-6626000I40000J0D01*
G01*
X20425250Y-8150000D02*
G75*
G02*
X20345250Y-8150000I-40000J0D01*
G01*
X20345250Y-8150000D02*
G75*
G02*
X20425250Y-8150000I40000J0D01*
G01*
X20975250Y-10550000D02*
G75*
G02*
X20895250Y-10550000I-40000J0D01*
G01*
X20895250Y-10550000D02*
G75*
G02*
X20975250Y-10550000I40000J0D01*
G01*
X21175250Y-10550000D02*
G75*
G02*
X21095250Y-10550000I-40000J0D01*
G01*
X21095250Y-10550000D02*
G75*
G02*
X21175250Y-10550000I40000J0D01*
G01*
X22690000Y-8900000D02*
G75*
G02*
X22610000Y-8900000I-40000J0D01*
G01*
X22610000Y-8900000D02*
G75*
G02*
X22690000Y-8900000I40000J0D01*
G01*
X22878000Y-8150000D02*
G75*
G02*
X22798000Y-8150000I-40000J0D01*
G01*
X22798000Y-8150000D02*
G75*
G02*
X22878000Y-8150000I40000J0D01*
G01*
X23452000Y-8900000D02*
G75*
G02*
X23372000Y-8900000I-40000J0D01*
G01*
X23372000Y-8900000D02*
G75*
G02*
X23452000Y-8900000I40000J0D01*
G01*
X24202000Y-10500000D02*
G75*
G02*
X24122000Y-10500000I-40000J0D01*
G01*
X24122000Y-10500000D02*
G75*
G02*
X24202000Y-10500000I40000J0D01*
G01*
X24302000Y-8576000D02*
G75*
G02*
X24222000Y-8576000I-40000J0D01*
G01*
X24222000Y-8576000D02*
G75*
G02*
X24302000Y-8576000I40000J0D01*
G01*
X24302000Y-10100000D02*
G75*
G02*
X24222000Y-10100000I-40000J0D01*
G01*
X24222000Y-10100000D02*
G75*
G02*
X24302000Y-10100000I40000J0D01*
G01*
X24402000Y-8150000D02*
G75*
G02*
X24322000Y-8150000I-40000J0D01*
G01*
X24322000Y-8150000D02*
G75*
G02*
X24402000Y-8150000I40000J0D01*
G01*
X25102000Y-6626000D02*
G75*
G02*
X25022000Y-6626000I-40000J0D01*
G01*
X25022000Y-6626000D02*
G75*
G02*
X25102000Y-6626000I40000J0D01*
G01*
X25102000Y-8150000D02*
G75*
G02*
X25022000Y-8150000I-40000J0D01*
G01*
X25022000Y-8150000D02*
G75*
G02*
X25102000Y-8150000I40000J0D01*
G01*
X25602000Y-6626000D02*
G75*
G02*
X25522000Y-6626000I-40000J0D01*
G01*
X25522000Y-6626000D02*
G75*
G02*
X25602000Y-6626000I40000J0D01*
G01*
X25602000Y-8150000D02*
G75*
G02*
X25522000Y-8150000I-40000J0D01*
G01*
X25522000Y-8150000D02*
G75*
G02*
X25602000Y-8150000I40000J0D01*
G01*
X25726000Y-10500000D02*
G75*
G02*
X25646000Y-10500000I-40000J0D01*
G01*
X25646000Y-10500000D02*
G75*
G02*
X25726000Y-10500000I40000J0D01*
G01*
X27202000Y-6626000D02*
G75*
G02*
X27122000Y-6626000I-40000J0D01*
G01*
X27122000Y-6626000D02*
G75*
G02*
X27202000Y-6626000I40000J0D01*
G01*
X27202000Y-8150000D02*
G75*
G02*
X27122000Y-8150000I-40000J0D01*
G01*
X27122000Y-8150000D02*
G75*
G02*
X27202000Y-8150000I40000J0D01*
G01*
X27752000Y-10550000D02*
G75*
G02*
X27672000Y-10550000I-40000J0D01*
G01*
X27672000Y-10550000D02*
G75*
G02*
X27752000Y-10550000I40000J0D01*
G01*
X27952000Y-10550000D02*
G75*
G02*
X27872000Y-10550000I-40000J0D01*
G01*
X27872000Y-10550000D02*
G75*
G02*
X27952000Y-10550000I40000J0D01*
G01*
X12070750Y-6131000D02*
X12070750Y-6221000D01*
X12025750Y-6176000D02*
X12115750Y-6176000D01*
X12324750Y-6131000D02*
X12324750Y-6221000D01*
X12279750Y-6176000D02*
X12369750Y-6176000D01*
X13570750Y-6131000D02*
X13570750Y-6221000D01*
X13525750Y-6176000D02*
X13615750Y-6176000D01*
X13824750Y-6131000D02*
X13824750Y-6221000D01*
X13779750Y-6176000D02*
X13869750Y-6176000D01*
X18404514Y-6157666D02*
X18404514Y-6247666D01*
X18359514Y-6202666D02*
X18449514Y-6202666D01*
X18658514Y-6157666D02*
X18658514Y-6247666D01*
X18613514Y-6202666D02*
X18703514Y-6202666D01*
X19907750Y-6155000D02*
X19907750Y-6245000D01*
X19862750Y-6200000D02*
X19952750Y-6200000D01*
X20161750Y-6155000D02*
X20161750Y-6245000D01*
X20116750Y-6200000D02*
X20206750Y-6200000D01*
X25208000Y-6155000D02*
X25208000Y-6245000D01*
X25163000Y-6200000D02*
X25253000Y-6200000D01*
X25462000Y-6155000D02*
X25462000Y-6245000D01*
X25417000Y-6200000D02*
X25507000Y-6200000D01*
X26684500Y-6155000D02*
X26684500Y-6245000D01*
X26639500Y-6200000D02*
X26729500Y-6200000D01*
X26938500Y-6155000D02*
X26938500Y-6245000D01*
X26893500Y-6200000D02*
X26983500Y-6200000D01*
X2822356Y-5110356D02*
X2822356Y-5039644D01*
X2751644Y-5039644D01*
X2751644Y-5110356D01*
X2822356Y-5110356D01*
X2822356Y-5364356D02*
X2822356Y-5293644D01*
X2751644Y-5293644D01*
X2751644Y-5364356D01*
X2822356Y-5364356D01*
X2822356Y-5618356D02*
X2822356Y-5547644D01*
X2751644Y-5547644D01*
X2751644Y-5618356D01*
X2822356Y-5618356D01*
X2822356Y-5872356D02*
X2822356Y-5801644D01*
X2751644Y-5801644D01*
X2751644Y-5872356D01*
X2822356Y-5872356D01*
X3290356Y-4310356D02*
X3290356Y-4239644D01*
X3219644Y-4239644D01*
X3219644Y-4310356D01*
X3290356Y-4310356D01*
X3544356Y-4310356D02*
X3544356Y-4239644D01*
X3473644Y-4239644D01*
X3473644Y-4310356D01*
X3544356Y-4310356D01*
X3798356Y-4310356D02*
X3798356Y-4239644D01*
X3727644Y-4239644D01*
X3727644Y-4310356D01*
X3798356Y-4310356D01*
X3997356Y-10935356D02*
X3997356Y-10864644D01*
X3926644Y-10864644D01*
X3926644Y-10935356D01*
X3997356Y-10935356D01*
X3997356Y-12385356D02*
X3997356Y-12314644D01*
X3926644Y-12314644D01*
X3926644Y-12385356D01*
X3997356Y-12385356D01*
X4052356Y-4310356D02*
X4052356Y-4239644D01*
X3981644Y-4239644D01*
X3981644Y-4310356D01*
X4052356Y-4310356D01*
X4247356Y-10935356D02*
X4247356Y-10864644D01*
X4176644Y-10864644D01*
X4176644Y-10935356D01*
X4247356Y-10935356D01*
X4497356Y-10935356D02*
X4497356Y-10864644D01*
X4426644Y-10864644D01*
X4426644Y-10935356D01*
X4497356Y-10935356D01*
X4497356Y-12385356D02*
X4497356Y-12314644D01*
X4426644Y-12314644D01*
X4426644Y-12385356D01*
X4497356Y-12385356D01*
X4940356Y-4310356D02*
X4940356Y-4239644D01*
X4869644Y-4239644D01*
X4869644Y-4310356D01*
X4940356Y-4310356D01*
X5102356Y-5036356D02*
X5102356Y-4965644D01*
X5031644Y-4965644D01*
X5031644Y-5036356D01*
X5102356Y-5036356D01*
X5102356Y-6560356D02*
X5102356Y-6489644D01*
X5031644Y-6489644D01*
X5031644Y-6560356D01*
X5102356Y-6560356D01*
X5194356Y-4310356D02*
X5194356Y-4239644D01*
X5123644Y-4239644D01*
X5123644Y-4310356D01*
X5194356Y-4310356D01*
X5356356Y-5036356D02*
X5356356Y-4965644D01*
X5285644Y-4965644D01*
X5285644Y-5036356D01*
X5356356Y-5036356D01*
X5356356Y-6560356D02*
X5356356Y-6489644D01*
X5285644Y-6489644D01*
X5285644Y-6560356D01*
X5356356Y-6560356D01*
X5448356Y-4310356D02*
X5448356Y-4239644D01*
X5377644Y-4239644D01*
X5377644Y-4310356D01*
X5448356Y-4310356D01*
X5610356Y-5036356D02*
X5610356Y-4965644D01*
X5539644Y-4965644D01*
X5539644Y-5036356D01*
X5610356Y-5036356D01*
X5610356Y-6560356D02*
X5610356Y-6489644D01*
X5539644Y-6489644D01*
X5539644Y-6560356D01*
X5610356Y-6560356D01*
X5702356Y-4310356D02*
X5702356Y-4239644D01*
X5631644Y-4239644D01*
X5631644Y-4310356D01*
X5702356Y-4310356D01*
X5864356Y-5036356D02*
X5864356Y-4965644D01*
X5793644Y-4965644D01*
X5793644Y-5036356D01*
X5864356Y-5036356D01*
X5864356Y-6560356D02*
X5864356Y-6489644D01*
X5793644Y-6489644D01*
X5793644Y-6560356D01*
X5864356Y-6560356D01*
X6118356Y-5036356D02*
X6118356Y-4965644D01*
X6047644Y-4965644D01*
X6047644Y-5036356D01*
X6118356Y-5036356D01*
X6118356Y-6560356D02*
X6118356Y-6489644D01*
X6047644Y-6489644D01*
X6047644Y-6560356D01*
X6118356Y-6560356D01*
X6372356Y-5036356D02*
X6372356Y-4965644D01*
X6301644Y-4965644D01*
X6301644Y-5036356D01*
X6372356Y-5036356D01*
X6372356Y-6560356D02*
X6372356Y-6489644D01*
X6301644Y-6489644D01*
X6301644Y-6560356D01*
X6372356Y-6560356D01*
X6710356Y-4310356D02*
X6710356Y-4239644D01*
X6639644Y-4239644D01*
X6639644Y-4310356D01*
X6710356Y-4310356D01*
X6964356Y-4310356D02*
X6964356Y-4239644D01*
X6893644Y-4239644D01*
X6893644Y-4310356D01*
X6964356Y-4310356D01*
X7218356Y-4310356D02*
X7218356Y-4239644D01*
X7147644Y-4239644D01*
X7147644Y-4310356D01*
X7218356Y-4310356D01*
X7472356Y-4310356D02*
X7472356Y-4239644D01*
X7401644Y-4239644D01*
X7401644Y-4310356D01*
X7472356Y-4310356D01*
X12171606Y-5435356D02*
X12171606Y-5364644D01*
X12100894Y-5364644D01*
X12100894Y-5435356D01*
X12171606Y-5435356D01*
X12425606Y-5435356D02*
X12425606Y-5364644D01*
X12354894Y-5364644D01*
X12354894Y-5435356D01*
X12425606Y-5435356D01*
X12679606Y-5435356D02*
X12679606Y-5364644D01*
X12608894Y-5364644D01*
X12608894Y-5435356D01*
X12679606Y-5435356D01*
X12933606Y-5435356D02*
X12933606Y-5364644D01*
X12862894Y-5364644D01*
X12862894Y-5435356D01*
X12933606Y-5435356D01*
X13183606Y-11410356D02*
X13183606Y-11339644D01*
X13112894Y-11339644D01*
X13112894Y-11410356D01*
X13183606Y-11410356D01*
X13187606Y-5435356D02*
X13187606Y-5364644D01*
X13116894Y-5364644D01*
X13116894Y-5435356D01*
X13187606Y-5435356D01*
X13437606Y-11410356D02*
X13437606Y-11339644D01*
X13366894Y-11339644D01*
X13366894Y-11410356D01*
X13437606Y-11410356D01*
X13441606Y-5435356D02*
X13441606Y-5364644D01*
X13370894Y-5364644D01*
X13370894Y-5435356D01*
X13441606Y-5435356D01*
X18508606Y-5435356D02*
X18508606Y-5364644D01*
X18437894Y-5364644D01*
X18437894Y-5435356D01*
X18508606Y-5435356D01*
X18762606Y-5435356D02*
X18762606Y-5364644D01*
X18691894Y-5364644D01*
X18691894Y-5435356D01*
X18762606Y-5435356D01*
X19016606Y-5435356D02*
X19016606Y-5364644D01*
X18945894Y-5364644D01*
X18945894Y-5435356D01*
X19016606Y-5435356D01*
X19270606Y-5435356D02*
X19270606Y-5364644D01*
X19199894Y-5364644D01*
X19199894Y-5435356D01*
X19270606Y-5435356D01*
X19520606Y-11435356D02*
X19520606Y-11364644D01*
X19449894Y-11364644D01*
X19449894Y-11435356D01*
X19520606Y-11435356D01*
X19524606Y-5435356D02*
X19524606Y-5364644D01*
X19453894Y-5364644D01*
X19453894Y-5435356D01*
X19524606Y-5435356D01*
X19774606Y-11435356D02*
X19774606Y-11364644D01*
X19703894Y-11364644D01*
X19703894Y-11435356D01*
X19774606Y-11435356D01*
X19778606Y-5435356D02*
X19778606Y-5364644D01*
X19707894Y-5364644D01*
X19707894Y-5435356D01*
X19778606Y-5435356D01*
X25293356Y-5435356D02*
X25293356Y-5364644D01*
X25222644Y-5364644D01*
X25222644Y-5435356D01*
X25293356Y-5435356D01*
X25547356Y-5435356D02*
X25547356Y-5364644D01*
X25476644Y-5364644D01*
X25476644Y-5435356D01*
X25547356Y-5435356D01*
X25797356Y-11435356D02*
X25797356Y-11364644D01*
X25726644Y-11364644D01*
X25726644Y-11435356D01*
X25797356Y-11435356D01*
X25801356Y-5435356D02*
X25801356Y-5364644D01*
X25730644Y-5364644D01*
X25730644Y-5435356D01*
X25801356Y-5435356D01*
X26051356Y-11435356D02*
X26051356Y-11364644D01*
X25980644Y-11364644D01*
X25980644Y-11435356D01*
X26051356Y-11435356D01*
X26055356Y-5435356D02*
X26055356Y-5364644D01*
X25984644Y-5364644D01*
X25984644Y-5435356D01*
X26055356Y-5435356D01*
X26309356Y-5435356D02*
X26309356Y-5364644D01*
X26238644Y-5364644D01*
X26238644Y-5435356D01*
X26309356Y-5435356D01*
X26563356Y-5435356D02*
X26563356Y-5364644D01*
X26492644Y-5364644D01*
X26492644Y-5435356D01*
X26563356Y-5435356D01*
D13*
X12098250Y-9055000D02*
X12153250Y-9000000D01*
X12098250Y-8945000D01*
X12043250Y-9000000D01*
X12098250Y-9055000D01*
X12098250Y-9705000D02*
X12153250Y-9650000D01*
X12098250Y-9595000D01*
X12043250Y-9650000D01*
X12098250Y-9705000D01*
X12548250Y-9055000D02*
X12603250Y-9000000D01*
X12548250Y-8945000D01*
X12493250Y-9000000D01*
X12548250Y-9055000D01*
X12548250Y-9705000D02*
X12603250Y-9650000D01*
X12548250Y-9595000D01*
X12493250Y-9650000D01*
X12548250Y-9705000D01*
X13598250Y-9055000D02*
X13653250Y-9000000D01*
X13598250Y-8945000D01*
X13543250Y-9000000D01*
X13598250Y-9055000D01*
X13598250Y-9705000D02*
X13653250Y-9650000D01*
X13598250Y-9595000D01*
X13543250Y-9650000D01*
X13598250Y-9705000D01*
X14048250Y-9055000D02*
X14103250Y-9000000D01*
X14048250Y-8945000D01*
X13993250Y-9000000D01*
X14048250Y-9055000D01*
X14048250Y-9705000D02*
X14103250Y-9650000D01*
X14048250Y-9595000D01*
X13993250Y-9650000D01*
X14048250Y-9705000D01*
X18385250Y-9055000D02*
X18440250Y-9000000D01*
X18385250Y-8945000D01*
X18330250Y-9000000D01*
X18385250Y-9055000D01*
X18385250Y-9705000D02*
X18440250Y-9650000D01*
X18385250Y-9595000D01*
X18330250Y-9650000D01*
X18385250Y-9705000D01*
X18835250Y-9055000D02*
X18890250Y-9000000D01*
X18835250Y-8945000D01*
X18780250Y-9000000D01*
X18835250Y-9055000D01*
X18835250Y-9705000D02*
X18890250Y-9650000D01*
X18835250Y-9595000D01*
X18780250Y-9650000D01*
X18835250Y-9705000D01*
X19935250Y-9055000D02*
X19990250Y-9000000D01*
X19935250Y-8945000D01*
X19880250Y-9000000D01*
X19935250Y-9055000D01*
X19935250Y-9705000D02*
X19990250Y-9650000D01*
X19935250Y-9595000D01*
X19880250Y-9650000D01*
X19935250Y-9705000D01*
X20385250Y-9055000D02*
X20440250Y-9000000D01*
X20385250Y-8945000D01*
X20330250Y-9000000D01*
X20385250Y-9055000D01*
X20385250Y-9705000D02*
X20440250Y-9650000D01*
X20385250Y-9595000D01*
X20330250Y-9650000D01*
X20385250Y-9705000D01*
X25162000Y-9055000D02*
X25217000Y-9000000D01*
X25162000Y-8945000D01*
X25107000Y-9000000D01*
X25162000Y-9055000D01*
X25162000Y-9705000D02*
X25217000Y-9650000D01*
X25162000Y-9595000D01*
X25107000Y-9650000D01*
X25162000Y-9705000D01*
X25612000Y-9055000D02*
X25667000Y-9000000D01*
X25612000Y-8945000D01*
X25557000Y-9000000D01*
X25612000Y-9055000D01*
X25612000Y-9705000D02*
X25667000Y-9650000D01*
X25612000Y-9595000D01*
X25557000Y-9650000D01*
X25612000Y-9705000D01*
X26712000Y-9055000D02*
X26767000Y-9000000D01*
X26712000Y-8945000D01*
X26657000Y-9000000D01*
X26712000Y-9055000D01*
X26712000Y-9705000D02*
X26767000Y-9650000D01*
X26712000Y-9595000D01*
X26657000Y-9650000D01*
X26712000Y-9705000D01*
X27162000Y-9055000D02*
X27217000Y-9000000D01*
X27162000Y-8945000D01*
X27107000Y-9000000D01*
X27162000Y-9055000D01*
X27162000Y-9705000D02*
X27217000Y-9650000D01*
X27162000Y-9595000D01*
X27107000Y-9650000D01*
X27162000Y-9705000D01*
D14*
X2387000Y-9880000D02*
X2537000Y-10030000D01*
X2537000Y-9880000D02*
X2387000Y-10030000D01*
X2537000Y-9955000D02*
G75*
G02*
X2387000Y-9955000I-75000J0D01*
G01*
X2387000Y-9955000D02*
G75*
G02*
X2537000Y-9955000I75000J0D01*
G01*
X2387000Y-10427500D02*
X2537000Y-10577500D01*
X2537000Y-10427500D02*
X2387000Y-10577500D01*
X2537000Y-10502500D02*
G75*
G02*
X2387000Y-10502500I-75000J0D01*
G01*
X2387000Y-10502500D02*
G75*
G02*
X2537000Y-10502500I75000J0D01*
G01*
X2387000Y-10975000D02*
X2537000Y-11125000D01*
X2537000Y-10975000D02*
X2387000Y-11125000D01*
X2537000Y-11050000D02*
G75*
G02*
X2387000Y-11050000I-75000J0D01*
G01*
X2387000Y-11050000D02*
G75*
G02*
X2537000Y-11050000I75000J0D01*
G01*
X3577000Y-11575000D02*
X3727000Y-11725000D01*
X3727000Y-11575000D02*
X3577000Y-11725000D01*
X3727000Y-11650000D02*
G75*
G02*
X3577000Y-11650000I-75000J0D01*
G01*
X3577000Y-11650000D02*
G75*
G02*
X3727000Y-11650000I75000J0D01*
G01*
D12*
X3577000Y-11585000D02*
X3577000Y-11715000D01*
X3727000Y-11715000D02*
G75*
G02*
X3577000Y-11715000I-75000J0D01*
G01*
X3727000Y-11715000D02*
X3727000Y-11585000D01*
X3727000Y-11585000D02*
G75*
G03*
X3577000Y-11585000I-75000J0D01*
G01*
D14*
X4697000Y-11575000D02*
X4847000Y-11725000D01*
X4847000Y-11575000D02*
X4697000Y-11725000D01*
X4847000Y-11650000D02*
G75*
G02*
X4697000Y-11650000I-75000J0D01*
G01*
X4697000Y-11650000D02*
G75*
G02*
X4847000Y-11650000I75000J0D01*
G01*
D12*
X4697000Y-11585000D02*
X4697000Y-11715000D01*
X4847000Y-11715000D02*
G75*
G02*
X4697000Y-11715000I-75000J0D01*
G01*
X4847000Y-11715000D02*
X4847000Y-11585000D01*
X4847000Y-11585000D02*
G75*
G03*
X4697000Y-11585000I-75000J0D01*
G01*
D11*
X2145277Y-13238984D02*
X2145277Y-13038984D01*
X2145277Y-13038984D02*
X2192896Y-13038984D01*
X2192896Y-13038984D02*
X2221467Y-13048508D01*
X2221467Y-13048508D02*
X2240515Y-13067555D01*
X2240515Y-13067555D02*
X2250039Y-13086603D01*
X2250039Y-13086603D02*
X2259563Y-13124698D01*
X2259563Y-13124698D02*
X2259563Y-13153269D01*
X2259563Y-13153269D02*
X2250039Y-13191365D01*
X2250039Y-13191365D02*
X2240515Y-13210412D01*
X2240515Y-13210412D02*
X2221467Y-13229460D01*
X2221467Y-13229460D02*
X2192896Y-13238984D01*
X2192896Y-13238984D02*
X2145277Y-13238984D01*
X2345277Y-13238984D02*
X2345277Y-13105650D01*
X2345277Y-13143746D02*
X2354801Y-13124698D01*
X2354801Y-13124698D02*
X2364324Y-13115174D01*
X2364324Y-13115174D02*
X2383372Y-13105650D01*
X2383372Y-13105650D02*
X2402420Y-13105650D01*
X2469086Y-13238984D02*
X2469086Y-13105650D01*
X2469086Y-13038984D02*
X2459563Y-13048508D01*
X2459563Y-13048508D02*
X2469086Y-13058031D01*
X2469086Y-13058031D02*
X2478610Y-13048508D01*
X2478610Y-13048508D02*
X2469086Y-13038984D01*
X2469086Y-13038984D02*
X2469086Y-13058031D01*
X2592896Y-13238984D02*
X2573848Y-13229460D01*
X2573848Y-13229460D02*
X2564324Y-13210412D01*
X2564324Y-13210412D02*
X2564324Y-13038984D01*
X2697658Y-13238984D02*
X2678610Y-13229460D01*
X2678610Y-13229460D02*
X2669086Y-13210412D01*
X2669086Y-13210412D02*
X2669086Y-13038984D01*
X2926229Y-13238984D02*
X2926229Y-13038984D01*
X2926229Y-13038984D02*
X2992896Y-13181841D01*
X2992896Y-13181841D02*
X3059562Y-13038984D01*
X3059562Y-13038984D02*
X3059562Y-13238984D01*
X3240515Y-13238984D02*
X3240515Y-13134222D01*
X3240515Y-13134222D02*
X3230991Y-13115174D01*
X3230991Y-13115174D02*
X3211943Y-13105650D01*
X3211943Y-13105650D02*
X3173848Y-13105650D01*
X3173848Y-13105650D02*
X3154801Y-13115174D01*
X3240515Y-13229460D02*
X3221467Y-13238984D01*
X3221467Y-13238984D02*
X3173848Y-13238984D01*
X3173848Y-13238984D02*
X3154801Y-13229460D01*
X3154801Y-13229460D02*
X3145277Y-13210412D01*
X3145277Y-13210412D02*
X3145277Y-13191365D01*
X3145277Y-13191365D02*
X3154801Y-13172317D01*
X3154801Y-13172317D02*
X3173848Y-13162793D01*
X3173848Y-13162793D02*
X3221467Y-13162793D01*
X3221467Y-13162793D02*
X3240515Y-13153269D01*
X3335753Y-13105650D02*
X3335753Y-13305650D01*
X3335753Y-13115174D02*
X3354801Y-13105650D01*
X3354801Y-13105650D02*
X3392896Y-13105650D01*
X3392896Y-13105650D02*
X3411943Y-13115174D01*
X3411943Y-13115174D02*
X3421467Y-13124698D01*
X3421467Y-13124698D02*
X3430991Y-13143746D01*
X3430991Y-13143746D02*
X3430991Y-13200888D01*
X3430991Y-13200888D02*
X3421467Y-13219936D01*
X3421467Y-13219936D02*
X3411943Y-13229460D01*
X3411943Y-13229460D02*
X3392896Y-13238984D01*
X3392896Y-13238984D02*
X3354801Y-13238984D01*
X3354801Y-13238984D02*
X3335753Y-13229460D01*
X3516705Y-13219936D02*
X3526229Y-13229460D01*
X3526229Y-13229460D02*
X3516705Y-13238984D01*
X3516705Y-13238984D02*
X3507182Y-13229460D01*
X3507182Y-13229460D02*
X3516705Y-13219936D01*
X3516705Y-13219936D02*
X3516705Y-13238984D01*
X3516705Y-13115174D02*
X3526229Y-13124698D01*
X3526229Y-13124698D02*
X3516705Y-13134222D01*
X3516705Y-13134222D02*
X3507182Y-13124698D01*
X3507182Y-13124698D02*
X3516705Y-13115174D01*
X3516705Y-13115174D02*
X3516705Y-13134222D01*
D12*
X1854500Y-13552500D02*
X1884500Y-13582500D01*
X1884500Y-13552500D02*
X1854500Y-13582500D01*
D11*
X2183372Y-13458984D02*
X2202420Y-13458984D01*
X2202420Y-13458984D02*
X2221467Y-13468508D01*
X2221467Y-13468508D02*
X2230991Y-13478031D01*
X2230991Y-13478031D02*
X2240515Y-13497079D01*
X2240515Y-13497079D02*
X2250039Y-13535174D01*
X2250039Y-13535174D02*
X2250039Y-13582793D01*
X2250039Y-13582793D02*
X2240515Y-13620888D01*
X2240515Y-13620888D02*
X2230991Y-13639936D01*
X2230991Y-13639936D02*
X2221467Y-13649460D01*
X2221467Y-13649460D02*
X2202420Y-13658984D01*
X2202420Y-13658984D02*
X2183372Y-13658984D01*
X2183372Y-13658984D02*
X2164324Y-13649460D01*
X2164324Y-13649460D02*
X2154801Y-13639936D01*
X2154801Y-13639936D02*
X2145277Y-13620888D01*
X2145277Y-13620888D02*
X2135753Y-13582793D01*
X2135753Y-13582793D02*
X2135753Y-13535174D01*
X2135753Y-13535174D02*
X2145277Y-13497079D01*
X2145277Y-13497079D02*
X2154801Y-13478031D01*
X2154801Y-13478031D02*
X2164324Y-13468508D01*
X2164324Y-13468508D02*
X2183372Y-13458984D01*
X2335753Y-13639936D02*
X2345277Y-13649460D01*
X2345277Y-13649460D02*
X2335753Y-13658984D01*
X2335753Y-13658984D02*
X2326229Y-13649460D01*
X2326229Y-13649460D02*
X2335753Y-13639936D01*
X2335753Y-13639936D02*
X2335753Y-13658984D01*
X2411944Y-13458984D02*
X2535753Y-13458984D01*
X2535753Y-13458984D02*
X2469086Y-13535174D01*
X2469086Y-13535174D02*
X2497658Y-13535174D01*
X2497658Y-13535174D02*
X2516705Y-13544698D01*
X2516705Y-13544698D02*
X2526229Y-13554222D01*
X2526229Y-13554222D02*
X2535753Y-13573269D01*
X2535753Y-13573269D02*
X2535753Y-13620888D01*
X2535753Y-13620888D02*
X2526229Y-13639936D01*
X2526229Y-13639936D02*
X2516705Y-13649460D01*
X2516705Y-13649460D02*
X2497658Y-13658984D01*
X2497658Y-13658984D02*
X2440515Y-13658984D01*
X2440515Y-13658984D02*
X2421467Y-13649460D01*
X2421467Y-13649460D02*
X2411944Y-13639936D01*
X2659563Y-13458984D02*
X2678610Y-13458984D01*
X2678610Y-13458984D02*
X2697658Y-13468508D01*
X2697658Y-13468508D02*
X2707182Y-13478031D01*
X2707182Y-13478031D02*
X2716705Y-13497079D01*
X2716705Y-13497079D02*
X2726229Y-13535174D01*
X2726229Y-13535174D02*
X2726229Y-13582793D01*
X2726229Y-13582793D02*
X2716705Y-13620888D01*
X2716705Y-13620888D02*
X2707182Y-13639936D01*
X2707182Y-13639936D02*
X2697658Y-13649460D01*
X2697658Y-13649460D02*
X2678610Y-13658984D01*
X2678610Y-13658984D02*
X2659563Y-13658984D01*
X2659563Y-13658984D02*
X2640515Y-13649460D01*
X2640515Y-13649460D02*
X2630991Y-13639936D01*
X2630991Y-13639936D02*
X2621467Y-13620888D01*
X2621467Y-13620888D02*
X2611944Y-13582793D01*
X2611944Y-13582793D02*
X2611944Y-13535174D01*
X2611944Y-13535174D02*
X2621467Y-13497079D01*
X2621467Y-13497079D02*
X2630991Y-13478031D01*
X2630991Y-13478031D02*
X2640515Y-13468508D01*
X2640515Y-13468508D02*
X2659563Y-13458984D01*
X2850039Y-13458984D02*
X2869086Y-13458984D01*
X2869086Y-13458984D02*
X2888134Y-13468508D01*
X2888134Y-13468508D02*
X2897658Y-13478031D01*
X2897658Y-13478031D02*
X2907182Y-13497079D01*
X2907182Y-13497079D02*
X2916705Y-13535174D01*
X2916705Y-13535174D02*
X2916705Y-13582793D01*
X2916705Y-13582793D02*
X2907182Y-13620888D01*
X2907182Y-13620888D02*
X2897658Y-13639936D01*
X2897658Y-13639936D02*
X2888134Y-13649460D01*
X2888134Y-13649460D02*
X2869086Y-13658984D01*
X2869086Y-13658984D02*
X2850039Y-13658984D01*
X2850039Y-13658984D02*
X2830991Y-13649460D01*
X2830991Y-13649460D02*
X2821467Y-13639936D01*
X2821467Y-13639936D02*
X2811943Y-13620888D01*
X2811943Y-13620888D02*
X2802420Y-13582793D01*
X2802420Y-13582793D02*
X2802420Y-13535174D01*
X2802420Y-13535174D02*
X2811943Y-13497079D01*
X2811943Y-13497079D02*
X2821467Y-13478031D01*
X2821467Y-13478031D02*
X2830991Y-13468508D01*
X2830991Y-13468508D02*
X2850039Y-13458984D01*
X3002420Y-13658984D02*
X3002420Y-13525650D01*
X3002420Y-13544698D02*
X3011943Y-13535174D01*
X3011943Y-13535174D02*
X3030991Y-13525650D01*
X3030991Y-13525650D02*
X3059563Y-13525650D01*
X3059563Y-13525650D02*
X3078610Y-13535174D01*
X3078610Y-13535174D02*
X3088134Y-13554222D01*
X3088134Y-13554222D02*
X3088134Y-13658984D01*
X3088134Y-13554222D02*
X3097658Y-13535174D01*
X3097658Y-13535174D02*
X3116705Y-13525650D01*
X3116705Y-13525650D02*
X3145277Y-13525650D01*
X3145277Y-13525650D02*
X3164324Y-13535174D01*
X3164324Y-13535174D02*
X3173848Y-13554222D01*
X3173848Y-13554222D02*
X3173848Y-13658984D01*
X3269086Y-13658984D02*
X3269086Y-13525650D01*
X3269086Y-13544698D02*
X3278610Y-13535174D01*
X3278610Y-13535174D02*
X3297658Y-13525650D01*
X3297658Y-13525650D02*
X3326229Y-13525650D01*
X3326229Y-13525650D02*
X3345277Y-13535174D01*
X3345277Y-13535174D02*
X3354801Y-13554222D01*
X3354801Y-13554222D02*
X3354801Y-13658984D01*
X3354801Y-13554222D02*
X3364324Y-13535174D01*
X3364324Y-13535174D02*
X3383372Y-13525650D01*
X3383372Y-13525650D02*
X3411943Y-13525650D01*
X3411943Y-13525650D02*
X3430991Y-13535174D01*
X3430991Y-13535174D02*
X3440515Y-13554222D01*
X3440515Y-13554222D02*
X3440515Y-13658984D01*
X3830991Y-13449460D02*
X3659563Y-13706603D01*
X4088134Y-13458984D02*
X4107182Y-13458984D01*
X4107182Y-13458984D02*
X4126229Y-13468508D01*
X4126229Y-13468508D02*
X4135753Y-13478031D01*
X4135753Y-13478031D02*
X4145277Y-13497079D01*
X4145277Y-13497079D02*
X4154801Y-13535174D01*
X4154801Y-13535174D02*
X4154801Y-13582793D01*
X4154801Y-13582793D02*
X4145277Y-13620888D01*
X4145277Y-13620888D02*
X4135753Y-13639936D01*
X4135753Y-13639936D02*
X4126229Y-13649460D01*
X4126229Y-13649460D02*
X4107182Y-13658984D01*
X4107182Y-13658984D02*
X4088134Y-13658984D01*
X4088134Y-13658984D02*
X4069086Y-13649460D01*
X4069086Y-13649460D02*
X4059563Y-13639936D01*
X4059563Y-13639936D02*
X4050039Y-13620888D01*
X4050039Y-13620888D02*
X4040515Y-13582793D01*
X4040515Y-13582793D02*
X4040515Y-13535174D01*
X4040515Y-13535174D02*
X4050039Y-13497079D01*
X4050039Y-13497079D02*
X4059563Y-13478031D01*
X4059563Y-13478031D02*
X4069086Y-13468508D01*
X4069086Y-13468508D02*
X4088134Y-13458984D01*
X4240515Y-13639936D02*
X4250039Y-13649460D01*
X4250039Y-13649460D02*
X4240515Y-13658984D01*
X4240515Y-13658984D02*
X4230991Y-13649460D01*
X4230991Y-13649460D02*
X4240515Y-13639936D01*
X4240515Y-13639936D02*
X4240515Y-13658984D01*
X4373848Y-13458984D02*
X4392896Y-13458984D01*
X4392896Y-13458984D02*
X4411944Y-13468508D01*
X4411944Y-13468508D02*
X4421468Y-13478031D01*
X4421468Y-13478031D02*
X4430991Y-13497079D01*
X4430991Y-13497079D02*
X4440515Y-13535174D01*
X4440515Y-13535174D02*
X4440515Y-13582793D01*
X4440515Y-13582793D02*
X4430991Y-13620888D01*
X4430991Y-13620888D02*
X4421468Y-13639936D01*
X4421468Y-13639936D02*
X4411944Y-13649460D01*
X4411944Y-13649460D02*
X4392896Y-13658984D01*
X4392896Y-13658984D02*
X4373848Y-13658984D01*
X4373848Y-13658984D02*
X4354801Y-13649460D01*
X4354801Y-13649460D02*
X4345277Y-13639936D01*
X4345277Y-13639936D02*
X4335753Y-13620888D01*
X4335753Y-13620888D02*
X4326229Y-13582793D01*
X4326229Y-13582793D02*
X4326229Y-13535174D01*
X4326229Y-13535174D02*
X4335753Y-13497079D01*
X4335753Y-13497079D02*
X4345277Y-13478031D01*
X4345277Y-13478031D02*
X4354801Y-13468508D01*
X4354801Y-13468508D02*
X4373848Y-13458984D01*
X4630991Y-13658984D02*
X4516706Y-13658984D01*
X4573848Y-13658984D02*
X4573848Y-13458984D01*
X4573848Y-13458984D02*
X4554801Y-13487555D01*
X4554801Y-13487555D02*
X4535753Y-13506603D01*
X4535753Y-13506603D02*
X4516706Y-13516127D01*
X4821468Y-13658984D02*
X4707182Y-13658984D01*
X4764325Y-13658984D02*
X4764325Y-13458984D01*
X4764325Y-13458984D02*
X4745277Y-13487555D01*
X4745277Y-13487555D02*
X4726229Y-13506603D01*
X4726229Y-13506603D02*
X4707182Y-13516127D01*
X4935753Y-13544698D02*
X4916706Y-13535174D01*
X4916706Y-13535174D02*
X4907182Y-13525650D01*
X4907182Y-13525650D02*
X4897658Y-13506603D01*
X4897658Y-13506603D02*
X4897658Y-13497079D01*
X4897658Y-13497079D02*
X4907182Y-13478031D01*
X4907182Y-13478031D02*
X4916706Y-13468508D01*
X4916706Y-13468508D02*
X4935753Y-13458984D01*
X4935753Y-13458984D02*
X4973849Y-13458984D01*
X4973849Y-13458984D02*
X4992896Y-13468508D01*
X4992896Y-13468508D02*
X5002420Y-13478031D01*
X5002420Y-13478031D02*
X5011944Y-13497079D01*
X5011944Y-13497079D02*
X5011944Y-13506603D01*
X5011944Y-13506603D02*
X5002420Y-13525650D01*
X5002420Y-13525650D02*
X4992896Y-13535174D01*
X4992896Y-13535174D02*
X4973849Y-13544698D01*
X4973849Y-13544698D02*
X4935753Y-13544698D01*
X4935753Y-13544698D02*
X4916706Y-13554222D01*
X4916706Y-13554222D02*
X4907182Y-13563746D01*
X4907182Y-13563746D02*
X4897658Y-13582793D01*
X4897658Y-13582793D02*
X4897658Y-13620888D01*
X4897658Y-13620888D02*
X4907182Y-13639936D01*
X4907182Y-13639936D02*
X4916706Y-13649460D01*
X4916706Y-13649460D02*
X4935753Y-13658984D01*
X4935753Y-13658984D02*
X4973849Y-13658984D01*
X4973849Y-13658984D02*
X4992896Y-13649460D01*
X4992896Y-13649460D02*
X5002420Y-13639936D01*
X5002420Y-13639936D02*
X5011944Y-13620888D01*
X5011944Y-13620888D02*
X5011944Y-13582793D01*
X5011944Y-13582793D02*
X5002420Y-13563746D01*
X5002420Y-13563746D02*
X4992896Y-13554222D01*
X4992896Y-13554222D02*
X4973849Y-13544698D01*
X5088134Y-13458984D02*
X5088134Y-13497079D01*
X5164325Y-13458984D02*
X5164325Y-13497079D01*
X5459563Y-13735174D02*
X5450039Y-13725650D01*
X5450039Y-13725650D02*
X5430991Y-13697079D01*
X5430991Y-13697079D02*
X5421468Y-13678031D01*
X5421468Y-13678031D02*
X5411944Y-13649460D01*
X5411944Y-13649460D02*
X5402420Y-13601841D01*
X5402420Y-13601841D02*
X5402420Y-13563746D01*
X5402420Y-13563746D02*
X5411944Y-13516127D01*
X5411944Y-13516127D02*
X5421468Y-13487555D01*
X5421468Y-13487555D02*
X5430991Y-13468508D01*
X5430991Y-13468508D02*
X5450039Y-13439936D01*
X5450039Y-13439936D02*
X5459563Y-13430412D01*
X5516706Y-13458984D02*
X5650039Y-13458984D01*
X5650039Y-13458984D02*
X5564325Y-13658984D01*
X5878610Y-13658984D02*
X5878610Y-13458984D01*
X5964325Y-13658984D02*
X5964325Y-13554222D01*
X5964325Y-13554222D02*
X5954801Y-13535174D01*
X5954801Y-13535174D02*
X5935753Y-13525650D01*
X5935753Y-13525650D02*
X5907182Y-13525650D01*
X5907182Y-13525650D02*
X5888134Y-13535174D01*
X5888134Y-13535174D02*
X5878610Y-13544698D01*
X6088134Y-13658984D02*
X6069087Y-13649460D01*
X6069087Y-13649460D02*
X6059563Y-13639936D01*
X6059563Y-13639936D02*
X6050039Y-13620888D01*
X6050039Y-13620888D02*
X6050039Y-13563746D01*
X6050039Y-13563746D02*
X6059563Y-13544698D01*
X6059563Y-13544698D02*
X6069087Y-13535174D01*
X6069087Y-13535174D02*
X6088134Y-13525650D01*
X6088134Y-13525650D02*
X6116706Y-13525650D01*
X6116706Y-13525650D02*
X6135753Y-13535174D01*
X6135753Y-13535174D02*
X6145277Y-13544698D01*
X6145277Y-13544698D02*
X6154801Y-13563746D01*
X6154801Y-13563746D02*
X6154801Y-13620888D01*
X6154801Y-13620888D02*
X6145277Y-13639936D01*
X6145277Y-13639936D02*
X6135753Y-13649460D01*
X6135753Y-13649460D02*
X6116706Y-13658984D01*
X6116706Y-13658984D02*
X6088134Y-13658984D01*
X6269087Y-13658984D02*
X6250039Y-13649460D01*
X6250039Y-13649460D02*
X6240515Y-13630412D01*
X6240515Y-13630412D02*
X6240515Y-13458984D01*
X6421468Y-13649460D02*
X6402420Y-13658984D01*
X6402420Y-13658984D02*
X6364325Y-13658984D01*
X6364325Y-13658984D02*
X6345277Y-13649460D01*
X6345277Y-13649460D02*
X6335753Y-13630412D01*
X6335753Y-13630412D02*
X6335753Y-13554222D01*
X6335753Y-13554222D02*
X6345277Y-13535174D01*
X6345277Y-13535174D02*
X6364325Y-13525650D01*
X6364325Y-13525650D02*
X6402420Y-13525650D01*
X6402420Y-13525650D02*
X6421468Y-13535174D01*
X6421468Y-13535174D02*
X6430991Y-13554222D01*
X6430991Y-13554222D02*
X6430991Y-13573269D01*
X6430991Y-13573269D02*
X6335753Y-13592317D01*
X6507182Y-13649460D02*
X6526230Y-13658984D01*
X6526230Y-13658984D02*
X6564325Y-13658984D01*
X6564325Y-13658984D02*
X6583372Y-13649460D01*
X6583372Y-13649460D02*
X6592896Y-13630412D01*
X6592896Y-13630412D02*
X6592896Y-13620888D01*
X6592896Y-13620888D02*
X6583372Y-13601841D01*
X6583372Y-13601841D02*
X6564325Y-13592317D01*
X6564325Y-13592317D02*
X6535753Y-13592317D01*
X6535753Y-13592317D02*
X6516706Y-13582793D01*
X6516706Y-13582793D02*
X6507182Y-13563746D01*
X6507182Y-13563746D02*
X6507182Y-13554222D01*
X6507182Y-13554222D02*
X6516706Y-13535174D01*
X6516706Y-13535174D02*
X6535753Y-13525650D01*
X6535753Y-13525650D02*
X6564325Y-13525650D01*
X6564325Y-13525650D02*
X6583372Y-13535174D01*
X6659563Y-13735174D02*
X6669087Y-13725650D01*
X6669087Y-13725650D02*
X6688134Y-13697079D01*
X6688134Y-13697079D02*
X6697658Y-13678031D01*
X6697658Y-13678031D02*
X6707182Y-13649460D01*
X6707182Y-13649460D02*
X6716706Y-13601841D01*
X6716706Y-13601841D02*
X6716706Y-13563746D01*
X6716706Y-13563746D02*
X6707182Y-13516127D01*
X6707182Y-13516127D02*
X6697658Y-13487555D01*
X6697658Y-13487555D02*
X6688134Y-13468508D01*
X6688134Y-13468508D02*
X6669087Y-13439936D01*
X6669087Y-13439936D02*
X6659563Y-13430412D01*
D12*
X1884500Y-13831500D02*
G75*
G02*
X1804500Y-13831500I-40000J0D01*
G01*
X1804500Y-13831500D02*
G75*
G02*
X1884500Y-13831500I40000J0D01*
G01*
D11*
X2183372Y-13722984D02*
X2202420Y-13722984D01*
X2202420Y-13722984D02*
X2221467Y-13732508D01*
X2221467Y-13732508D02*
X2230991Y-13742031D01*
X2230991Y-13742031D02*
X2240515Y-13761079D01*
X2240515Y-13761079D02*
X2250039Y-13799174D01*
X2250039Y-13799174D02*
X2250039Y-13846793D01*
X2250039Y-13846793D02*
X2240515Y-13884888D01*
X2240515Y-13884888D02*
X2230991Y-13903936D01*
X2230991Y-13903936D02*
X2221467Y-13913460D01*
X2221467Y-13913460D02*
X2202420Y-13922984D01*
X2202420Y-13922984D02*
X2183372Y-13922984D01*
X2183372Y-13922984D02*
X2164324Y-13913460D01*
X2164324Y-13913460D02*
X2154801Y-13903936D01*
X2154801Y-13903936D02*
X2145277Y-13884888D01*
X2145277Y-13884888D02*
X2135753Y-13846793D01*
X2135753Y-13846793D02*
X2135753Y-13799174D01*
X2135753Y-13799174D02*
X2145277Y-13761079D01*
X2145277Y-13761079D02*
X2154801Y-13742031D01*
X2154801Y-13742031D02*
X2164324Y-13732508D01*
X2164324Y-13732508D02*
X2183372Y-13722984D01*
X2335753Y-13903936D02*
X2345277Y-13913460D01*
X2345277Y-13913460D02*
X2335753Y-13922984D01*
X2335753Y-13922984D02*
X2326229Y-13913460D01*
X2326229Y-13913460D02*
X2335753Y-13903936D01*
X2335753Y-13903936D02*
X2335753Y-13922984D01*
X2459563Y-13808698D02*
X2440515Y-13799174D01*
X2440515Y-13799174D02*
X2430991Y-13789650D01*
X2430991Y-13789650D02*
X2421467Y-13770603D01*
X2421467Y-13770603D02*
X2421467Y-13761079D01*
X2421467Y-13761079D02*
X2430991Y-13742031D01*
X2430991Y-13742031D02*
X2440515Y-13732508D01*
X2440515Y-13732508D02*
X2459563Y-13722984D01*
X2459563Y-13722984D02*
X2497658Y-13722984D01*
X2497658Y-13722984D02*
X2516705Y-13732508D01*
X2516705Y-13732508D02*
X2526229Y-13742031D01*
X2526229Y-13742031D02*
X2535753Y-13761079D01*
X2535753Y-13761079D02*
X2535753Y-13770603D01*
X2535753Y-13770603D02*
X2526229Y-13789650D01*
X2526229Y-13789650D02*
X2516705Y-13799174D01*
X2516705Y-13799174D02*
X2497658Y-13808698D01*
X2497658Y-13808698D02*
X2459563Y-13808698D01*
X2459563Y-13808698D02*
X2440515Y-13818222D01*
X2440515Y-13818222D02*
X2430991Y-13827746D01*
X2430991Y-13827746D02*
X2421467Y-13846793D01*
X2421467Y-13846793D02*
X2421467Y-13884888D01*
X2421467Y-13884888D02*
X2430991Y-13903936D01*
X2430991Y-13903936D02*
X2440515Y-13913460D01*
X2440515Y-13913460D02*
X2459563Y-13922984D01*
X2459563Y-13922984D02*
X2497658Y-13922984D01*
X2497658Y-13922984D02*
X2516705Y-13913460D01*
X2516705Y-13913460D02*
X2526229Y-13903936D01*
X2526229Y-13903936D02*
X2535753Y-13884888D01*
X2535753Y-13884888D02*
X2535753Y-13846793D01*
X2535753Y-13846793D02*
X2526229Y-13827746D01*
X2526229Y-13827746D02*
X2516705Y-13818222D01*
X2516705Y-13818222D02*
X2497658Y-13808698D01*
X2659563Y-13722984D02*
X2678610Y-13722984D01*
X2678610Y-13722984D02*
X2697658Y-13732508D01*
X2697658Y-13732508D02*
X2707182Y-13742031D01*
X2707182Y-13742031D02*
X2716705Y-13761079D01*
X2716705Y-13761079D02*
X2726229Y-13799174D01*
X2726229Y-13799174D02*
X2726229Y-13846793D01*
X2726229Y-13846793D02*
X2716705Y-13884888D01*
X2716705Y-13884888D02*
X2707182Y-13903936D01*
X2707182Y-13903936D02*
X2697658Y-13913460D01*
X2697658Y-13913460D02*
X2678610Y-13922984D01*
X2678610Y-13922984D02*
X2659563Y-13922984D01*
X2659563Y-13922984D02*
X2640515Y-13913460D01*
X2640515Y-13913460D02*
X2630991Y-13903936D01*
X2630991Y-13903936D02*
X2621467Y-13884888D01*
X2621467Y-13884888D02*
X2611944Y-13846793D01*
X2611944Y-13846793D02*
X2611944Y-13799174D01*
X2611944Y-13799174D02*
X2621467Y-13761079D01*
X2621467Y-13761079D02*
X2630991Y-13742031D01*
X2630991Y-13742031D02*
X2640515Y-13732508D01*
X2640515Y-13732508D02*
X2659563Y-13722984D01*
X2850039Y-13722984D02*
X2869086Y-13722984D01*
X2869086Y-13722984D02*
X2888134Y-13732508D01*
X2888134Y-13732508D02*
X2897658Y-13742031D01*
X2897658Y-13742031D02*
X2907182Y-13761079D01*
X2907182Y-13761079D02*
X2916705Y-13799174D01*
X2916705Y-13799174D02*
X2916705Y-13846793D01*
X2916705Y-13846793D02*
X2907182Y-13884888D01*
X2907182Y-13884888D02*
X2897658Y-13903936D01*
X2897658Y-13903936D02*
X2888134Y-13913460D01*
X2888134Y-13913460D02*
X2869086Y-13922984D01*
X2869086Y-13922984D02*
X2850039Y-13922984D01*
X2850039Y-13922984D02*
X2830991Y-13913460D01*
X2830991Y-13913460D02*
X2821467Y-13903936D01*
X2821467Y-13903936D02*
X2811943Y-13884888D01*
X2811943Y-13884888D02*
X2802420Y-13846793D01*
X2802420Y-13846793D02*
X2802420Y-13799174D01*
X2802420Y-13799174D02*
X2811943Y-13761079D01*
X2811943Y-13761079D02*
X2821467Y-13742031D01*
X2821467Y-13742031D02*
X2830991Y-13732508D01*
X2830991Y-13732508D02*
X2850039Y-13722984D01*
X3002420Y-13922984D02*
X3002420Y-13789650D01*
X3002420Y-13808698D02*
X3011943Y-13799174D01*
X3011943Y-13799174D02*
X3030991Y-13789650D01*
X3030991Y-13789650D02*
X3059563Y-13789650D01*
X3059563Y-13789650D02*
X3078610Y-13799174D01*
X3078610Y-13799174D02*
X3088134Y-13818222D01*
X3088134Y-13818222D02*
X3088134Y-13922984D01*
X3088134Y-13818222D02*
X3097658Y-13799174D01*
X3097658Y-13799174D02*
X3116705Y-13789650D01*
X3116705Y-13789650D02*
X3145277Y-13789650D01*
X3145277Y-13789650D02*
X3164324Y-13799174D01*
X3164324Y-13799174D02*
X3173848Y-13818222D01*
X3173848Y-13818222D02*
X3173848Y-13922984D01*
X3269086Y-13922984D02*
X3269086Y-13789650D01*
X3269086Y-13808698D02*
X3278610Y-13799174D01*
X3278610Y-13799174D02*
X3297658Y-13789650D01*
X3297658Y-13789650D02*
X3326229Y-13789650D01*
X3326229Y-13789650D02*
X3345277Y-13799174D01*
X3345277Y-13799174D02*
X3354801Y-13818222D01*
X3354801Y-13818222D02*
X3354801Y-13922984D01*
X3354801Y-13818222D02*
X3364324Y-13799174D01*
X3364324Y-13799174D02*
X3383372Y-13789650D01*
X3383372Y-13789650D02*
X3411943Y-13789650D01*
X3411943Y-13789650D02*
X3430991Y-13799174D01*
X3430991Y-13799174D02*
X3440515Y-13818222D01*
X3440515Y-13818222D02*
X3440515Y-13922984D01*
X3830991Y-13713460D02*
X3659563Y-13970603D01*
X4088134Y-13722984D02*
X4107182Y-13722984D01*
X4107182Y-13722984D02*
X4126229Y-13732508D01*
X4126229Y-13732508D02*
X4135753Y-13742031D01*
X4135753Y-13742031D02*
X4145277Y-13761079D01*
X4145277Y-13761079D02*
X4154801Y-13799174D01*
X4154801Y-13799174D02*
X4154801Y-13846793D01*
X4154801Y-13846793D02*
X4145277Y-13884888D01*
X4145277Y-13884888D02*
X4135753Y-13903936D01*
X4135753Y-13903936D02*
X4126229Y-13913460D01*
X4126229Y-13913460D02*
X4107182Y-13922984D01*
X4107182Y-13922984D02*
X4088134Y-13922984D01*
X4088134Y-13922984D02*
X4069086Y-13913460D01*
X4069086Y-13913460D02*
X4059563Y-13903936D01*
X4059563Y-13903936D02*
X4050039Y-13884888D01*
X4050039Y-13884888D02*
X4040515Y-13846793D01*
X4040515Y-13846793D02*
X4040515Y-13799174D01*
X4040515Y-13799174D02*
X4050039Y-13761079D01*
X4050039Y-13761079D02*
X4059563Y-13742031D01*
X4059563Y-13742031D02*
X4069086Y-13732508D01*
X4069086Y-13732508D02*
X4088134Y-13722984D01*
X4240515Y-13903936D02*
X4250039Y-13913460D01*
X4250039Y-13913460D02*
X4240515Y-13922984D01*
X4240515Y-13922984D02*
X4230991Y-13913460D01*
X4230991Y-13913460D02*
X4240515Y-13903936D01*
X4240515Y-13903936D02*
X4240515Y-13922984D01*
X4373848Y-13722984D02*
X4392896Y-13722984D01*
X4392896Y-13722984D02*
X4411944Y-13732508D01*
X4411944Y-13732508D02*
X4421468Y-13742031D01*
X4421468Y-13742031D02*
X4430991Y-13761079D01*
X4430991Y-13761079D02*
X4440515Y-13799174D01*
X4440515Y-13799174D02*
X4440515Y-13846793D01*
X4440515Y-13846793D02*
X4430991Y-13884888D01*
X4430991Y-13884888D02*
X4421468Y-13903936D01*
X4421468Y-13903936D02*
X4411944Y-13913460D01*
X4411944Y-13913460D02*
X4392896Y-13922984D01*
X4392896Y-13922984D02*
X4373848Y-13922984D01*
X4373848Y-13922984D02*
X4354801Y-13913460D01*
X4354801Y-13913460D02*
X4345277Y-13903936D01*
X4345277Y-13903936D02*
X4335753Y-13884888D01*
X4335753Y-13884888D02*
X4326229Y-13846793D01*
X4326229Y-13846793D02*
X4326229Y-13799174D01*
X4326229Y-13799174D02*
X4335753Y-13761079D01*
X4335753Y-13761079D02*
X4345277Y-13742031D01*
X4345277Y-13742031D02*
X4354801Y-13732508D01*
X4354801Y-13732508D02*
X4373848Y-13722984D01*
X4507182Y-13722984D02*
X4630991Y-13722984D01*
X4630991Y-13722984D02*
X4564325Y-13799174D01*
X4564325Y-13799174D02*
X4592896Y-13799174D01*
X4592896Y-13799174D02*
X4611944Y-13808698D01*
X4611944Y-13808698D02*
X4621468Y-13818222D01*
X4621468Y-13818222D02*
X4630991Y-13837269D01*
X4630991Y-13837269D02*
X4630991Y-13884888D01*
X4630991Y-13884888D02*
X4621468Y-13903936D01*
X4621468Y-13903936D02*
X4611944Y-13913460D01*
X4611944Y-13913460D02*
X4592896Y-13922984D01*
X4592896Y-13922984D02*
X4535753Y-13922984D01*
X4535753Y-13922984D02*
X4516706Y-13913460D01*
X4516706Y-13913460D02*
X4507182Y-13903936D01*
X4821468Y-13922984D02*
X4707182Y-13922984D01*
X4764325Y-13922984D02*
X4764325Y-13722984D01*
X4764325Y-13722984D02*
X4745277Y-13751555D01*
X4745277Y-13751555D02*
X4726229Y-13770603D01*
X4726229Y-13770603D02*
X4707182Y-13780127D01*
X5002420Y-13722984D02*
X4907182Y-13722984D01*
X4907182Y-13722984D02*
X4897658Y-13818222D01*
X4897658Y-13818222D02*
X4907182Y-13808698D01*
X4907182Y-13808698D02*
X4926229Y-13799174D01*
X4926229Y-13799174D02*
X4973849Y-13799174D01*
X4973849Y-13799174D02*
X4992896Y-13808698D01*
X4992896Y-13808698D02*
X5002420Y-13818222D01*
X5002420Y-13818222D02*
X5011944Y-13837269D01*
X5011944Y-13837269D02*
X5011944Y-13884888D01*
X5011944Y-13884888D02*
X5002420Y-13903936D01*
X5002420Y-13903936D02*
X4992896Y-13913460D01*
X4992896Y-13913460D02*
X4973849Y-13922984D01*
X4973849Y-13922984D02*
X4926229Y-13922984D01*
X4926229Y-13922984D02*
X4907182Y-13913460D01*
X4907182Y-13913460D02*
X4897658Y-13903936D01*
X5088134Y-13722984D02*
X5088134Y-13761079D01*
X5164325Y-13722984D02*
X5164325Y-13761079D01*
X5459563Y-13999174D02*
X5450039Y-13989650D01*
X5450039Y-13989650D02*
X5430991Y-13961079D01*
X5430991Y-13961079D02*
X5421468Y-13942031D01*
X5421468Y-13942031D02*
X5411944Y-13913460D01*
X5411944Y-13913460D02*
X5402420Y-13865841D01*
X5402420Y-13865841D02*
X5402420Y-13827746D01*
X5402420Y-13827746D02*
X5411944Y-13780127D01*
X5411944Y-13780127D02*
X5421468Y-13751555D01*
X5421468Y-13751555D02*
X5430991Y-13732508D01*
X5430991Y-13732508D02*
X5450039Y-13703936D01*
X5450039Y-13703936D02*
X5459563Y-13694412D01*
X5516706Y-13722984D02*
X5650039Y-13722984D01*
X5650039Y-13722984D02*
X5564325Y-13922984D01*
X5811944Y-13722984D02*
X5773848Y-13722984D01*
X5773848Y-13722984D02*
X5754801Y-13732508D01*
X5754801Y-13732508D02*
X5745277Y-13742031D01*
X5745277Y-13742031D02*
X5726229Y-13770603D01*
X5726229Y-13770603D02*
X5716706Y-13808698D01*
X5716706Y-13808698D02*
X5716706Y-13884888D01*
X5716706Y-13884888D02*
X5726229Y-13903936D01*
X5726229Y-13903936D02*
X5735753Y-13913460D01*
X5735753Y-13913460D02*
X5754801Y-13922984D01*
X5754801Y-13922984D02*
X5792896Y-13922984D01*
X5792896Y-13922984D02*
X5811944Y-13913460D01*
X5811944Y-13913460D02*
X5821468Y-13903936D01*
X5821468Y-13903936D02*
X5830991Y-13884888D01*
X5830991Y-13884888D02*
X5830991Y-13837269D01*
X5830991Y-13837269D02*
X5821468Y-13818222D01*
X5821468Y-13818222D02*
X5811944Y-13808698D01*
X5811944Y-13808698D02*
X5792896Y-13799174D01*
X5792896Y-13799174D02*
X5754801Y-13799174D01*
X5754801Y-13799174D02*
X5735753Y-13808698D01*
X5735753Y-13808698D02*
X5726229Y-13818222D01*
X5726229Y-13818222D02*
X5716706Y-13837269D01*
X6069087Y-13922984D02*
X6069087Y-13722984D01*
X6154801Y-13922984D02*
X6154801Y-13818222D01*
X6154801Y-13818222D02*
X6145277Y-13799174D01*
X6145277Y-13799174D02*
X6126230Y-13789650D01*
X6126230Y-13789650D02*
X6097658Y-13789650D01*
X6097658Y-13789650D02*
X6078610Y-13799174D01*
X6078610Y-13799174D02*
X6069087Y-13808698D01*
X6278610Y-13922984D02*
X6259563Y-13913460D01*
X6259563Y-13913460D02*
X6250039Y-13903936D01*
X6250039Y-13903936D02*
X6240515Y-13884888D01*
X6240515Y-13884888D02*
X6240515Y-13827746D01*
X6240515Y-13827746D02*
X6250039Y-13808698D01*
X6250039Y-13808698D02*
X6259563Y-13799174D01*
X6259563Y-13799174D02*
X6278610Y-13789650D01*
X6278610Y-13789650D02*
X6307182Y-13789650D01*
X6307182Y-13789650D02*
X6326230Y-13799174D01*
X6326230Y-13799174D02*
X6335753Y-13808698D01*
X6335753Y-13808698D02*
X6345277Y-13827746D01*
X6345277Y-13827746D02*
X6345277Y-13884888D01*
X6345277Y-13884888D02*
X6335753Y-13903936D01*
X6335753Y-13903936D02*
X6326230Y-13913460D01*
X6326230Y-13913460D02*
X6307182Y-13922984D01*
X6307182Y-13922984D02*
X6278610Y-13922984D01*
X6459563Y-13922984D02*
X6440515Y-13913460D01*
X6440515Y-13913460D02*
X6430991Y-13894412D01*
X6430991Y-13894412D02*
X6430991Y-13722984D01*
X6611944Y-13913460D02*
X6592896Y-13922984D01*
X6592896Y-13922984D02*
X6554801Y-13922984D01*
X6554801Y-13922984D02*
X6535753Y-13913460D01*
X6535753Y-13913460D02*
X6526230Y-13894412D01*
X6526230Y-13894412D02*
X6526230Y-13818222D01*
X6526230Y-13818222D02*
X6535753Y-13799174D01*
X6535753Y-13799174D02*
X6554801Y-13789650D01*
X6554801Y-13789650D02*
X6592896Y-13789650D01*
X6592896Y-13789650D02*
X6611944Y-13799174D01*
X6611944Y-13799174D02*
X6621468Y-13818222D01*
X6621468Y-13818222D02*
X6621468Y-13837269D01*
X6621468Y-13837269D02*
X6526230Y-13856317D01*
X6697658Y-13913460D02*
X6716706Y-13922984D01*
X6716706Y-13922984D02*
X6754801Y-13922984D01*
X6754801Y-13922984D02*
X6773849Y-13913460D01*
X6773849Y-13913460D02*
X6783372Y-13894412D01*
X6783372Y-13894412D02*
X6783372Y-13884888D01*
X6783372Y-13884888D02*
X6773849Y-13865841D01*
X6773849Y-13865841D02*
X6754801Y-13856317D01*
X6754801Y-13856317D02*
X6726230Y-13856317D01*
X6726230Y-13856317D02*
X6707182Y-13846793D01*
X6707182Y-13846793D02*
X6697658Y-13827746D01*
X6697658Y-13827746D02*
X6697658Y-13818222D01*
X6697658Y-13818222D02*
X6707182Y-13799174D01*
X6707182Y-13799174D02*
X6726230Y-13789650D01*
X6726230Y-13789650D02*
X6754801Y-13789650D01*
X6754801Y-13789650D02*
X6773849Y-13799174D01*
X6850039Y-13999174D02*
X6859563Y-13989650D01*
X6859563Y-13989650D02*
X6878611Y-13961079D01*
X6878611Y-13961079D02*
X6888134Y-13942031D01*
X6888134Y-13942031D02*
X6897658Y-13913460D01*
X6897658Y-13913460D02*
X6907182Y-13865841D01*
X6907182Y-13865841D02*
X6907182Y-13827746D01*
X6907182Y-13827746D02*
X6897658Y-13780127D01*
X6897658Y-13780127D02*
X6888134Y-13751555D01*
X6888134Y-13751555D02*
X6878611Y-13732508D01*
X6878611Y-13732508D02*
X6859563Y-13703936D01*
X6859563Y-13703936D02*
X6850039Y-13694412D01*
D12*
X1839500Y-14050500D02*
X1839500Y-14140500D01*
X1794500Y-14095500D02*
X1884500Y-14095500D01*
D11*
X2183372Y-13986984D02*
X2202420Y-13986984D01*
X2202420Y-13986984D02*
X2221467Y-13996508D01*
X2221467Y-13996508D02*
X2230991Y-14006031D01*
X2230991Y-14006031D02*
X2240515Y-14025079D01*
X2240515Y-14025079D02*
X2250039Y-14063174D01*
X2250039Y-14063174D02*
X2250039Y-14110793D01*
X2250039Y-14110793D02*
X2240515Y-14148888D01*
X2240515Y-14148888D02*
X2230991Y-14167936D01*
X2230991Y-14167936D02*
X2221467Y-14177460D01*
X2221467Y-14177460D02*
X2202420Y-14186984D01*
X2202420Y-14186984D02*
X2183372Y-14186984D01*
X2183372Y-14186984D02*
X2164324Y-14177460D01*
X2164324Y-14177460D02*
X2154801Y-14167936D01*
X2154801Y-14167936D02*
X2145277Y-14148888D01*
X2145277Y-14148888D02*
X2135753Y-14110793D01*
X2135753Y-14110793D02*
X2135753Y-14063174D01*
X2135753Y-14063174D02*
X2145277Y-14025079D01*
X2145277Y-14025079D02*
X2154801Y-14006031D01*
X2154801Y-14006031D02*
X2164324Y-13996508D01*
X2164324Y-13996508D02*
X2183372Y-13986984D01*
X2335753Y-14167936D02*
X2345277Y-14177460D01*
X2345277Y-14177460D02*
X2335753Y-14186984D01*
X2335753Y-14186984D02*
X2326229Y-14177460D01*
X2326229Y-14177460D02*
X2335753Y-14167936D01*
X2335753Y-14167936D02*
X2335753Y-14186984D01*
X2440515Y-14186984D02*
X2478610Y-14186984D01*
X2478610Y-14186984D02*
X2497658Y-14177460D01*
X2497658Y-14177460D02*
X2507182Y-14167936D01*
X2507182Y-14167936D02*
X2526229Y-14139365D01*
X2526229Y-14139365D02*
X2535753Y-14101269D01*
X2535753Y-14101269D02*
X2535753Y-14025079D01*
X2535753Y-14025079D02*
X2526229Y-14006031D01*
X2526229Y-14006031D02*
X2516705Y-13996508D01*
X2516705Y-13996508D02*
X2497658Y-13986984D01*
X2497658Y-13986984D02*
X2459563Y-13986984D01*
X2459563Y-13986984D02*
X2440515Y-13996508D01*
X2440515Y-13996508D02*
X2430991Y-14006031D01*
X2430991Y-14006031D02*
X2421467Y-14025079D01*
X2421467Y-14025079D02*
X2421467Y-14072698D01*
X2421467Y-14072698D02*
X2430991Y-14091746D01*
X2430991Y-14091746D02*
X2440515Y-14101269D01*
X2440515Y-14101269D02*
X2459563Y-14110793D01*
X2459563Y-14110793D02*
X2497658Y-14110793D01*
X2497658Y-14110793D02*
X2516705Y-14101269D01*
X2516705Y-14101269D02*
X2526229Y-14091746D01*
X2526229Y-14091746D02*
X2535753Y-14072698D01*
X2659563Y-13986984D02*
X2678610Y-13986984D01*
X2678610Y-13986984D02*
X2697658Y-13996508D01*
X2697658Y-13996508D02*
X2707182Y-14006031D01*
X2707182Y-14006031D02*
X2716705Y-14025079D01*
X2716705Y-14025079D02*
X2726229Y-14063174D01*
X2726229Y-14063174D02*
X2726229Y-14110793D01*
X2726229Y-14110793D02*
X2716705Y-14148888D01*
X2716705Y-14148888D02*
X2707182Y-14167936D01*
X2707182Y-14167936D02*
X2697658Y-14177460D01*
X2697658Y-14177460D02*
X2678610Y-14186984D01*
X2678610Y-14186984D02*
X2659563Y-14186984D01*
X2659563Y-14186984D02*
X2640515Y-14177460D01*
X2640515Y-14177460D02*
X2630991Y-14167936D01*
X2630991Y-14167936D02*
X2621467Y-14148888D01*
X2621467Y-14148888D02*
X2611944Y-14110793D01*
X2611944Y-14110793D02*
X2611944Y-14063174D01*
X2611944Y-14063174D02*
X2621467Y-14025079D01*
X2621467Y-14025079D02*
X2630991Y-14006031D01*
X2630991Y-14006031D02*
X2640515Y-13996508D01*
X2640515Y-13996508D02*
X2659563Y-13986984D01*
X2850039Y-13986984D02*
X2869086Y-13986984D01*
X2869086Y-13986984D02*
X2888134Y-13996508D01*
X2888134Y-13996508D02*
X2897658Y-14006031D01*
X2897658Y-14006031D02*
X2907182Y-14025079D01*
X2907182Y-14025079D02*
X2916705Y-14063174D01*
X2916705Y-14063174D02*
X2916705Y-14110793D01*
X2916705Y-14110793D02*
X2907182Y-14148888D01*
X2907182Y-14148888D02*
X2897658Y-14167936D01*
X2897658Y-14167936D02*
X2888134Y-14177460D01*
X2888134Y-14177460D02*
X2869086Y-14186984D01*
X2869086Y-14186984D02*
X2850039Y-14186984D01*
X2850039Y-14186984D02*
X2830991Y-14177460D01*
X2830991Y-14177460D02*
X2821467Y-14167936D01*
X2821467Y-14167936D02*
X2811943Y-14148888D01*
X2811943Y-14148888D02*
X2802420Y-14110793D01*
X2802420Y-14110793D02*
X2802420Y-14063174D01*
X2802420Y-14063174D02*
X2811943Y-14025079D01*
X2811943Y-14025079D02*
X2821467Y-14006031D01*
X2821467Y-14006031D02*
X2830991Y-13996508D01*
X2830991Y-13996508D02*
X2850039Y-13986984D01*
X3002420Y-14186984D02*
X3002420Y-14053650D01*
X3002420Y-14072698D02*
X3011943Y-14063174D01*
X3011943Y-14063174D02*
X3030991Y-14053650D01*
X3030991Y-14053650D02*
X3059563Y-14053650D01*
X3059563Y-14053650D02*
X3078610Y-14063174D01*
X3078610Y-14063174D02*
X3088134Y-14082222D01*
X3088134Y-14082222D02*
X3088134Y-14186984D01*
X3088134Y-14082222D02*
X3097658Y-14063174D01*
X3097658Y-14063174D02*
X3116705Y-14053650D01*
X3116705Y-14053650D02*
X3145277Y-14053650D01*
X3145277Y-14053650D02*
X3164324Y-14063174D01*
X3164324Y-14063174D02*
X3173848Y-14082222D01*
X3173848Y-14082222D02*
X3173848Y-14186984D01*
X3269086Y-14186984D02*
X3269086Y-14053650D01*
X3269086Y-14072698D02*
X3278610Y-14063174D01*
X3278610Y-14063174D02*
X3297658Y-14053650D01*
X3297658Y-14053650D02*
X3326229Y-14053650D01*
X3326229Y-14053650D02*
X3345277Y-14063174D01*
X3345277Y-14063174D02*
X3354801Y-14082222D01*
X3354801Y-14082222D02*
X3354801Y-14186984D01*
X3354801Y-14082222D02*
X3364324Y-14063174D01*
X3364324Y-14063174D02*
X3383372Y-14053650D01*
X3383372Y-14053650D02*
X3411943Y-14053650D01*
X3411943Y-14053650D02*
X3430991Y-14063174D01*
X3430991Y-14063174D02*
X3440515Y-14082222D01*
X3440515Y-14082222D02*
X3440515Y-14186984D01*
X3830991Y-13977460D02*
X3659563Y-14234603D01*
X4088134Y-13986984D02*
X4107182Y-13986984D01*
X4107182Y-13986984D02*
X4126229Y-13996508D01*
X4126229Y-13996508D02*
X4135753Y-14006031D01*
X4135753Y-14006031D02*
X4145277Y-14025079D01*
X4145277Y-14025079D02*
X4154801Y-14063174D01*
X4154801Y-14063174D02*
X4154801Y-14110793D01*
X4154801Y-14110793D02*
X4145277Y-14148888D01*
X4145277Y-14148888D02*
X4135753Y-14167936D01*
X4135753Y-14167936D02*
X4126229Y-14177460D01*
X4126229Y-14177460D02*
X4107182Y-14186984D01*
X4107182Y-14186984D02*
X4088134Y-14186984D01*
X4088134Y-14186984D02*
X4069086Y-14177460D01*
X4069086Y-14177460D02*
X4059563Y-14167936D01*
X4059563Y-14167936D02*
X4050039Y-14148888D01*
X4050039Y-14148888D02*
X4040515Y-14110793D01*
X4040515Y-14110793D02*
X4040515Y-14063174D01*
X4040515Y-14063174D02*
X4050039Y-14025079D01*
X4050039Y-14025079D02*
X4059563Y-14006031D01*
X4059563Y-14006031D02*
X4069086Y-13996508D01*
X4069086Y-13996508D02*
X4088134Y-13986984D01*
X4240515Y-14167936D02*
X4250039Y-14177460D01*
X4250039Y-14177460D02*
X4240515Y-14186984D01*
X4240515Y-14186984D02*
X4230991Y-14177460D01*
X4230991Y-14177460D02*
X4240515Y-14167936D01*
X4240515Y-14167936D02*
X4240515Y-14186984D01*
X4373848Y-13986984D02*
X4392896Y-13986984D01*
X4392896Y-13986984D02*
X4411944Y-13996508D01*
X4411944Y-13996508D02*
X4421468Y-14006031D01*
X4421468Y-14006031D02*
X4430991Y-14025079D01*
X4430991Y-14025079D02*
X4440515Y-14063174D01*
X4440515Y-14063174D02*
X4440515Y-14110793D01*
X4440515Y-14110793D02*
X4430991Y-14148888D01*
X4430991Y-14148888D02*
X4421468Y-14167936D01*
X4421468Y-14167936D02*
X4411944Y-14177460D01*
X4411944Y-14177460D02*
X4392896Y-14186984D01*
X4392896Y-14186984D02*
X4373848Y-14186984D01*
X4373848Y-14186984D02*
X4354801Y-14177460D01*
X4354801Y-14177460D02*
X4345277Y-14167936D01*
X4345277Y-14167936D02*
X4335753Y-14148888D01*
X4335753Y-14148888D02*
X4326229Y-14110793D01*
X4326229Y-14110793D02*
X4326229Y-14063174D01*
X4326229Y-14063174D02*
X4335753Y-14025079D01*
X4335753Y-14025079D02*
X4345277Y-14006031D01*
X4345277Y-14006031D02*
X4354801Y-13996508D01*
X4354801Y-13996508D02*
X4373848Y-13986984D01*
X4507182Y-13986984D02*
X4630991Y-13986984D01*
X4630991Y-13986984D02*
X4564325Y-14063174D01*
X4564325Y-14063174D02*
X4592896Y-14063174D01*
X4592896Y-14063174D02*
X4611944Y-14072698D01*
X4611944Y-14072698D02*
X4621468Y-14082222D01*
X4621468Y-14082222D02*
X4630991Y-14101269D01*
X4630991Y-14101269D02*
X4630991Y-14148888D01*
X4630991Y-14148888D02*
X4621468Y-14167936D01*
X4621468Y-14167936D02*
X4611944Y-14177460D01*
X4611944Y-14177460D02*
X4592896Y-14186984D01*
X4592896Y-14186984D02*
X4535753Y-14186984D01*
X4535753Y-14186984D02*
X4516706Y-14177460D01*
X4516706Y-14177460D02*
X4507182Y-14167936D01*
X4811944Y-13986984D02*
X4716706Y-13986984D01*
X4716706Y-13986984D02*
X4707182Y-14082222D01*
X4707182Y-14082222D02*
X4716706Y-14072698D01*
X4716706Y-14072698D02*
X4735753Y-14063174D01*
X4735753Y-14063174D02*
X4783372Y-14063174D01*
X4783372Y-14063174D02*
X4802420Y-14072698D01*
X4802420Y-14072698D02*
X4811944Y-14082222D01*
X4811944Y-14082222D02*
X4821468Y-14101269D01*
X4821468Y-14101269D02*
X4821468Y-14148888D01*
X4821468Y-14148888D02*
X4811944Y-14167936D01*
X4811944Y-14167936D02*
X4802420Y-14177460D01*
X4802420Y-14177460D02*
X4783372Y-14186984D01*
X4783372Y-14186984D02*
X4735753Y-14186984D01*
X4735753Y-14186984D02*
X4716706Y-14177460D01*
X4716706Y-14177460D02*
X4707182Y-14167936D01*
X4992896Y-14053650D02*
X4992896Y-14186984D01*
X4945277Y-13977460D02*
X4897658Y-14120317D01*
X4897658Y-14120317D02*
X5021468Y-14120317D01*
X5088134Y-13986984D02*
X5088134Y-14025079D01*
X5164325Y-13986984D02*
X5164325Y-14025079D01*
X5459563Y-14263174D02*
X5450039Y-14253650D01*
X5450039Y-14253650D02*
X5430991Y-14225079D01*
X5430991Y-14225079D02*
X5421468Y-14206031D01*
X5421468Y-14206031D02*
X5411944Y-14177460D01*
X5411944Y-14177460D02*
X5402420Y-14129841D01*
X5402420Y-14129841D02*
X5402420Y-14091746D01*
X5402420Y-14091746D02*
X5411944Y-14044127D01*
X5411944Y-14044127D02*
X5421468Y-14015555D01*
X5421468Y-14015555D02*
X5430991Y-13996508D01*
X5430991Y-13996508D02*
X5450039Y-13967936D01*
X5450039Y-13967936D02*
X5459563Y-13958412D01*
X5640515Y-14186984D02*
X5526230Y-14186984D01*
X5583372Y-14186984D02*
X5583372Y-13986984D01*
X5583372Y-13986984D02*
X5564325Y-14015555D01*
X5564325Y-14015555D02*
X5545277Y-14034603D01*
X5545277Y-14034603D02*
X5526230Y-14044127D01*
X5716706Y-14006031D02*
X5726229Y-13996508D01*
X5726229Y-13996508D02*
X5745277Y-13986984D01*
X5745277Y-13986984D02*
X5792896Y-13986984D01*
X5792896Y-13986984D02*
X5811944Y-13996508D01*
X5811944Y-13996508D02*
X5821468Y-14006031D01*
X5821468Y-14006031D02*
X5830991Y-14025079D01*
X5830991Y-14025079D02*
X5830991Y-14044127D01*
X5830991Y-14044127D02*
X5821468Y-14072698D01*
X5821468Y-14072698D02*
X5707182Y-14186984D01*
X5707182Y-14186984D02*
X5830991Y-14186984D01*
X6069087Y-14186984D02*
X6069087Y-13986984D01*
X6154801Y-14186984D02*
X6154801Y-14082222D01*
X6154801Y-14082222D02*
X6145277Y-14063174D01*
X6145277Y-14063174D02*
X6126230Y-14053650D01*
X6126230Y-14053650D02*
X6097658Y-14053650D01*
X6097658Y-14053650D02*
X6078610Y-14063174D01*
X6078610Y-14063174D02*
X6069087Y-14072698D01*
X6278610Y-14186984D02*
X6259563Y-14177460D01*
X6259563Y-14177460D02*
X6250039Y-14167936D01*
X6250039Y-14167936D02*
X6240515Y-14148888D01*
X6240515Y-14148888D02*
X6240515Y-14091746D01*
X6240515Y-14091746D02*
X6250039Y-14072698D01*
X6250039Y-14072698D02*
X6259563Y-14063174D01*
X6259563Y-14063174D02*
X6278610Y-14053650D01*
X6278610Y-14053650D02*
X6307182Y-14053650D01*
X6307182Y-14053650D02*
X6326230Y-14063174D01*
X6326230Y-14063174D02*
X6335753Y-14072698D01*
X6335753Y-14072698D02*
X6345277Y-14091746D01*
X6345277Y-14091746D02*
X6345277Y-14148888D01*
X6345277Y-14148888D02*
X6335753Y-14167936D01*
X6335753Y-14167936D02*
X6326230Y-14177460D01*
X6326230Y-14177460D02*
X6307182Y-14186984D01*
X6307182Y-14186984D02*
X6278610Y-14186984D01*
X6459563Y-14186984D02*
X6440515Y-14177460D01*
X6440515Y-14177460D02*
X6430991Y-14158412D01*
X6430991Y-14158412D02*
X6430991Y-13986984D01*
X6611944Y-14177460D02*
X6592896Y-14186984D01*
X6592896Y-14186984D02*
X6554801Y-14186984D01*
X6554801Y-14186984D02*
X6535753Y-14177460D01*
X6535753Y-14177460D02*
X6526230Y-14158412D01*
X6526230Y-14158412D02*
X6526230Y-14082222D01*
X6526230Y-14082222D02*
X6535753Y-14063174D01*
X6535753Y-14063174D02*
X6554801Y-14053650D01*
X6554801Y-14053650D02*
X6592896Y-14053650D01*
X6592896Y-14053650D02*
X6611944Y-14063174D01*
X6611944Y-14063174D02*
X6621468Y-14082222D01*
X6621468Y-14082222D02*
X6621468Y-14101269D01*
X6621468Y-14101269D02*
X6526230Y-14120317D01*
X6697658Y-14177460D02*
X6716706Y-14186984D01*
X6716706Y-14186984D02*
X6754801Y-14186984D01*
X6754801Y-14186984D02*
X6773849Y-14177460D01*
X6773849Y-14177460D02*
X6783372Y-14158412D01*
X6783372Y-14158412D02*
X6783372Y-14148888D01*
X6783372Y-14148888D02*
X6773849Y-14129841D01*
X6773849Y-14129841D02*
X6754801Y-14120317D01*
X6754801Y-14120317D02*
X6726230Y-14120317D01*
X6726230Y-14120317D02*
X6707182Y-14110793D01*
X6707182Y-14110793D02*
X6697658Y-14091746D01*
X6697658Y-14091746D02*
X6697658Y-14082222D01*
X6697658Y-14082222D02*
X6707182Y-14063174D01*
X6707182Y-14063174D02*
X6726230Y-14053650D01*
X6726230Y-14053650D02*
X6754801Y-14053650D01*
X6754801Y-14053650D02*
X6773849Y-14063174D01*
X6850039Y-14263174D02*
X6859563Y-14253650D01*
X6859563Y-14253650D02*
X6878611Y-14225079D01*
X6878611Y-14225079D02*
X6888134Y-14206031D01*
X6888134Y-14206031D02*
X6897658Y-14177460D01*
X6897658Y-14177460D02*
X6907182Y-14129841D01*
X6907182Y-14129841D02*
X6907182Y-14091746D01*
X6907182Y-14091746D02*
X6897658Y-14044127D01*
X6897658Y-14044127D02*
X6888134Y-14015555D01*
X6888134Y-14015555D02*
X6878611Y-13996508D01*
X6878611Y-13996508D02*
X6859563Y-13967936D01*
X6859563Y-13967936D02*
X6850039Y-13958412D01*
D12*
X1869856Y-14394856D02*
X1869856Y-14324144D01*
X1799144Y-14324144D01*
X1799144Y-14394856D01*
X1869856Y-14394856D01*
D11*
X2250039Y-14450984D02*
X2135753Y-14450984D01*
X2192896Y-14450984D02*
X2192896Y-14250984D01*
X2192896Y-14250984D02*
X2173848Y-14279555D01*
X2173848Y-14279555D02*
X2154801Y-14298603D01*
X2154801Y-14298603D02*
X2135753Y-14308127D01*
X2335753Y-14431936D02*
X2345277Y-14441460D01*
X2345277Y-14441460D02*
X2335753Y-14450984D01*
X2335753Y-14450984D02*
X2326229Y-14441460D01*
X2326229Y-14441460D02*
X2335753Y-14431936D01*
X2335753Y-14431936D02*
X2335753Y-14450984D01*
X2469086Y-14250984D02*
X2488134Y-14250984D01*
X2488134Y-14250984D02*
X2507182Y-14260508D01*
X2507182Y-14260508D02*
X2516705Y-14270031D01*
X2516705Y-14270031D02*
X2526229Y-14289079D01*
X2526229Y-14289079D02*
X2535753Y-14327174D01*
X2535753Y-14327174D02*
X2535753Y-14374793D01*
X2535753Y-14374793D02*
X2526229Y-14412888D01*
X2526229Y-14412888D02*
X2516705Y-14431936D01*
X2516705Y-14431936D02*
X2507182Y-14441460D01*
X2507182Y-14441460D02*
X2488134Y-14450984D01*
X2488134Y-14450984D02*
X2469086Y-14450984D01*
X2469086Y-14450984D02*
X2450039Y-14441460D01*
X2450039Y-14441460D02*
X2440515Y-14431936D01*
X2440515Y-14431936D02*
X2430991Y-14412888D01*
X2430991Y-14412888D02*
X2421467Y-14374793D01*
X2421467Y-14374793D02*
X2421467Y-14327174D01*
X2421467Y-14327174D02*
X2430991Y-14289079D01*
X2430991Y-14289079D02*
X2440515Y-14270031D01*
X2440515Y-14270031D02*
X2450039Y-14260508D01*
X2450039Y-14260508D02*
X2469086Y-14250984D01*
X2659563Y-14250984D02*
X2678610Y-14250984D01*
X2678610Y-14250984D02*
X2697658Y-14260508D01*
X2697658Y-14260508D02*
X2707182Y-14270031D01*
X2707182Y-14270031D02*
X2716705Y-14289079D01*
X2716705Y-14289079D02*
X2726229Y-14327174D01*
X2726229Y-14327174D02*
X2726229Y-14374793D01*
X2726229Y-14374793D02*
X2716705Y-14412888D01*
X2716705Y-14412888D02*
X2707182Y-14431936D01*
X2707182Y-14431936D02*
X2697658Y-14441460D01*
X2697658Y-14441460D02*
X2678610Y-14450984D01*
X2678610Y-14450984D02*
X2659563Y-14450984D01*
X2659563Y-14450984D02*
X2640515Y-14441460D01*
X2640515Y-14441460D02*
X2630991Y-14431936D01*
X2630991Y-14431936D02*
X2621467Y-14412888D01*
X2621467Y-14412888D02*
X2611944Y-14374793D01*
X2611944Y-14374793D02*
X2611944Y-14327174D01*
X2611944Y-14327174D02*
X2621467Y-14289079D01*
X2621467Y-14289079D02*
X2630991Y-14270031D01*
X2630991Y-14270031D02*
X2640515Y-14260508D01*
X2640515Y-14260508D02*
X2659563Y-14250984D01*
X2850039Y-14250984D02*
X2869086Y-14250984D01*
X2869086Y-14250984D02*
X2888134Y-14260508D01*
X2888134Y-14260508D02*
X2897658Y-14270031D01*
X2897658Y-14270031D02*
X2907182Y-14289079D01*
X2907182Y-14289079D02*
X2916705Y-14327174D01*
X2916705Y-14327174D02*
X2916705Y-14374793D01*
X2916705Y-14374793D02*
X2907182Y-14412888D01*
X2907182Y-14412888D02*
X2897658Y-14431936D01*
X2897658Y-14431936D02*
X2888134Y-14441460D01*
X2888134Y-14441460D02*
X2869086Y-14450984D01*
X2869086Y-14450984D02*
X2850039Y-14450984D01*
X2850039Y-14450984D02*
X2830991Y-14441460D01*
X2830991Y-14441460D02*
X2821467Y-14431936D01*
X2821467Y-14431936D02*
X2811943Y-14412888D01*
X2811943Y-14412888D02*
X2802420Y-14374793D01*
X2802420Y-14374793D02*
X2802420Y-14327174D01*
X2802420Y-14327174D02*
X2811943Y-14289079D01*
X2811943Y-14289079D02*
X2821467Y-14270031D01*
X2821467Y-14270031D02*
X2830991Y-14260508D01*
X2830991Y-14260508D02*
X2850039Y-14250984D01*
X3002420Y-14450984D02*
X3002420Y-14317650D01*
X3002420Y-14336698D02*
X3011943Y-14327174D01*
X3011943Y-14327174D02*
X3030991Y-14317650D01*
X3030991Y-14317650D02*
X3059563Y-14317650D01*
X3059563Y-14317650D02*
X3078610Y-14327174D01*
X3078610Y-14327174D02*
X3088134Y-14346222D01*
X3088134Y-14346222D02*
X3088134Y-14450984D01*
X3088134Y-14346222D02*
X3097658Y-14327174D01*
X3097658Y-14327174D02*
X3116705Y-14317650D01*
X3116705Y-14317650D02*
X3145277Y-14317650D01*
X3145277Y-14317650D02*
X3164324Y-14327174D01*
X3164324Y-14327174D02*
X3173848Y-14346222D01*
X3173848Y-14346222D02*
X3173848Y-14450984D01*
X3269086Y-14450984D02*
X3269086Y-14317650D01*
X3269086Y-14336698D02*
X3278610Y-14327174D01*
X3278610Y-14327174D02*
X3297658Y-14317650D01*
X3297658Y-14317650D02*
X3326229Y-14317650D01*
X3326229Y-14317650D02*
X3345277Y-14327174D01*
X3345277Y-14327174D02*
X3354801Y-14346222D01*
X3354801Y-14346222D02*
X3354801Y-14450984D01*
X3354801Y-14346222D02*
X3364324Y-14327174D01*
X3364324Y-14327174D02*
X3383372Y-14317650D01*
X3383372Y-14317650D02*
X3411943Y-14317650D01*
X3411943Y-14317650D02*
X3430991Y-14327174D01*
X3430991Y-14327174D02*
X3440515Y-14346222D01*
X3440515Y-14346222D02*
X3440515Y-14450984D01*
X3830991Y-14241460D02*
X3659563Y-14498603D01*
X4088134Y-14250984D02*
X4107182Y-14250984D01*
X4107182Y-14250984D02*
X4126229Y-14260508D01*
X4126229Y-14260508D02*
X4135753Y-14270031D01*
X4135753Y-14270031D02*
X4145277Y-14289079D01*
X4145277Y-14289079D02*
X4154801Y-14327174D01*
X4154801Y-14327174D02*
X4154801Y-14374793D01*
X4154801Y-14374793D02*
X4145277Y-14412888D01*
X4145277Y-14412888D02*
X4135753Y-14431936D01*
X4135753Y-14431936D02*
X4126229Y-14441460D01*
X4126229Y-14441460D02*
X4107182Y-14450984D01*
X4107182Y-14450984D02*
X4088134Y-14450984D01*
X4088134Y-14450984D02*
X4069086Y-14441460D01*
X4069086Y-14441460D02*
X4059563Y-14431936D01*
X4059563Y-14431936D02*
X4050039Y-14412888D01*
X4050039Y-14412888D02*
X4040515Y-14374793D01*
X4040515Y-14374793D02*
X4040515Y-14327174D01*
X4040515Y-14327174D02*
X4050039Y-14289079D01*
X4050039Y-14289079D02*
X4059563Y-14270031D01*
X4059563Y-14270031D02*
X4069086Y-14260508D01*
X4069086Y-14260508D02*
X4088134Y-14250984D01*
X4240515Y-14431936D02*
X4250039Y-14441460D01*
X4250039Y-14441460D02*
X4240515Y-14450984D01*
X4240515Y-14450984D02*
X4230991Y-14441460D01*
X4230991Y-14441460D02*
X4240515Y-14431936D01*
X4240515Y-14431936D02*
X4240515Y-14450984D01*
X4373848Y-14250984D02*
X4392896Y-14250984D01*
X4392896Y-14250984D02*
X4411944Y-14260508D01*
X4411944Y-14260508D02*
X4421468Y-14270031D01*
X4421468Y-14270031D02*
X4430991Y-14289079D01*
X4430991Y-14289079D02*
X4440515Y-14327174D01*
X4440515Y-14327174D02*
X4440515Y-14374793D01*
X4440515Y-14374793D02*
X4430991Y-14412888D01*
X4430991Y-14412888D02*
X4421468Y-14431936D01*
X4421468Y-14431936D02*
X4411944Y-14441460D01*
X4411944Y-14441460D02*
X4392896Y-14450984D01*
X4392896Y-14450984D02*
X4373848Y-14450984D01*
X4373848Y-14450984D02*
X4354801Y-14441460D01*
X4354801Y-14441460D02*
X4345277Y-14431936D01*
X4345277Y-14431936D02*
X4335753Y-14412888D01*
X4335753Y-14412888D02*
X4326229Y-14374793D01*
X4326229Y-14374793D02*
X4326229Y-14327174D01*
X4326229Y-14327174D02*
X4335753Y-14289079D01*
X4335753Y-14289079D02*
X4345277Y-14270031D01*
X4345277Y-14270031D02*
X4354801Y-14260508D01*
X4354801Y-14260508D02*
X4373848Y-14250984D01*
X4507182Y-14250984D02*
X4630991Y-14250984D01*
X4630991Y-14250984D02*
X4564325Y-14327174D01*
X4564325Y-14327174D02*
X4592896Y-14327174D01*
X4592896Y-14327174D02*
X4611944Y-14336698D01*
X4611944Y-14336698D02*
X4621468Y-14346222D01*
X4621468Y-14346222D02*
X4630991Y-14365269D01*
X4630991Y-14365269D02*
X4630991Y-14412888D01*
X4630991Y-14412888D02*
X4621468Y-14431936D01*
X4621468Y-14431936D02*
X4611944Y-14441460D01*
X4611944Y-14441460D02*
X4592896Y-14450984D01*
X4592896Y-14450984D02*
X4535753Y-14450984D01*
X4535753Y-14450984D02*
X4516706Y-14441460D01*
X4516706Y-14441460D02*
X4507182Y-14431936D01*
X4726229Y-14450984D02*
X4764325Y-14450984D01*
X4764325Y-14450984D02*
X4783372Y-14441460D01*
X4783372Y-14441460D02*
X4792896Y-14431936D01*
X4792896Y-14431936D02*
X4811944Y-14403365D01*
X4811944Y-14403365D02*
X4821468Y-14365269D01*
X4821468Y-14365269D02*
X4821468Y-14289079D01*
X4821468Y-14289079D02*
X4811944Y-14270031D01*
X4811944Y-14270031D02*
X4802420Y-14260508D01*
X4802420Y-14260508D02*
X4783372Y-14250984D01*
X4783372Y-14250984D02*
X4745277Y-14250984D01*
X4745277Y-14250984D02*
X4726229Y-14260508D01*
X4726229Y-14260508D02*
X4716706Y-14270031D01*
X4716706Y-14270031D02*
X4707182Y-14289079D01*
X4707182Y-14289079D02*
X4707182Y-14336698D01*
X4707182Y-14336698D02*
X4716706Y-14355746D01*
X4716706Y-14355746D02*
X4726229Y-14365269D01*
X4726229Y-14365269D02*
X4745277Y-14374793D01*
X4745277Y-14374793D02*
X4783372Y-14374793D01*
X4783372Y-14374793D02*
X4802420Y-14365269D01*
X4802420Y-14365269D02*
X4811944Y-14355746D01*
X4811944Y-14355746D02*
X4821468Y-14336698D01*
X4992896Y-14317650D02*
X4992896Y-14450984D01*
X4945277Y-14241460D02*
X4897658Y-14384317D01*
X4897658Y-14384317D02*
X5021468Y-14384317D01*
X5088134Y-14250984D02*
X5088134Y-14289079D01*
X5164325Y-14250984D02*
X5164325Y-14289079D01*
X5459563Y-14527174D02*
X5450039Y-14517650D01*
X5450039Y-14517650D02*
X5430991Y-14489079D01*
X5430991Y-14489079D02*
X5421468Y-14470031D01*
X5421468Y-14470031D02*
X5411944Y-14441460D01*
X5411944Y-14441460D02*
X5402420Y-14393841D01*
X5402420Y-14393841D02*
X5402420Y-14355746D01*
X5402420Y-14355746D02*
X5411944Y-14308127D01*
X5411944Y-14308127D02*
X5421468Y-14279555D01*
X5421468Y-14279555D02*
X5430991Y-14260508D01*
X5430991Y-14260508D02*
X5450039Y-14231936D01*
X5450039Y-14231936D02*
X5459563Y-14222412D01*
X5630991Y-14250984D02*
X5535753Y-14250984D01*
X5535753Y-14250984D02*
X5526230Y-14346222D01*
X5526230Y-14346222D02*
X5535753Y-14336698D01*
X5535753Y-14336698D02*
X5554801Y-14327174D01*
X5554801Y-14327174D02*
X5602420Y-14327174D01*
X5602420Y-14327174D02*
X5621468Y-14336698D01*
X5621468Y-14336698D02*
X5630991Y-14346222D01*
X5630991Y-14346222D02*
X5640515Y-14365269D01*
X5640515Y-14365269D02*
X5640515Y-14412888D01*
X5640515Y-14412888D02*
X5630991Y-14431936D01*
X5630991Y-14431936D02*
X5621468Y-14441460D01*
X5621468Y-14441460D02*
X5602420Y-14450984D01*
X5602420Y-14450984D02*
X5554801Y-14450984D01*
X5554801Y-14450984D02*
X5535753Y-14441460D01*
X5535753Y-14441460D02*
X5526230Y-14431936D01*
X5707182Y-14250984D02*
X5840515Y-14250984D01*
X5840515Y-14250984D02*
X5754801Y-14450984D01*
X6069087Y-14450984D02*
X6069087Y-14250984D01*
X6154801Y-14450984D02*
X6154801Y-14346222D01*
X6154801Y-14346222D02*
X6145277Y-14327174D01*
X6145277Y-14327174D02*
X6126230Y-14317650D01*
X6126230Y-14317650D02*
X6097658Y-14317650D01*
X6097658Y-14317650D02*
X6078610Y-14327174D01*
X6078610Y-14327174D02*
X6069087Y-14336698D01*
X6278610Y-14450984D02*
X6259563Y-14441460D01*
X6259563Y-14441460D02*
X6250039Y-14431936D01*
X6250039Y-14431936D02*
X6240515Y-14412888D01*
X6240515Y-14412888D02*
X6240515Y-14355746D01*
X6240515Y-14355746D02*
X6250039Y-14336698D01*
X6250039Y-14336698D02*
X6259563Y-14327174D01*
X6259563Y-14327174D02*
X6278610Y-14317650D01*
X6278610Y-14317650D02*
X6307182Y-14317650D01*
X6307182Y-14317650D02*
X6326230Y-14327174D01*
X6326230Y-14327174D02*
X6335753Y-14336698D01*
X6335753Y-14336698D02*
X6345277Y-14355746D01*
X6345277Y-14355746D02*
X6345277Y-14412888D01*
X6345277Y-14412888D02*
X6335753Y-14431936D01*
X6335753Y-14431936D02*
X6326230Y-14441460D01*
X6326230Y-14441460D02*
X6307182Y-14450984D01*
X6307182Y-14450984D02*
X6278610Y-14450984D01*
X6459563Y-14450984D02*
X6440515Y-14441460D01*
X6440515Y-14441460D02*
X6430991Y-14422412D01*
X6430991Y-14422412D02*
X6430991Y-14250984D01*
X6611944Y-14441460D02*
X6592896Y-14450984D01*
X6592896Y-14450984D02*
X6554801Y-14450984D01*
X6554801Y-14450984D02*
X6535753Y-14441460D01*
X6535753Y-14441460D02*
X6526230Y-14422412D01*
X6526230Y-14422412D02*
X6526230Y-14346222D01*
X6526230Y-14346222D02*
X6535753Y-14327174D01*
X6535753Y-14327174D02*
X6554801Y-14317650D01*
X6554801Y-14317650D02*
X6592896Y-14317650D01*
X6592896Y-14317650D02*
X6611944Y-14327174D01*
X6611944Y-14327174D02*
X6621468Y-14346222D01*
X6621468Y-14346222D02*
X6621468Y-14365269D01*
X6621468Y-14365269D02*
X6526230Y-14384317D01*
X6697658Y-14441460D02*
X6716706Y-14450984D01*
X6716706Y-14450984D02*
X6754801Y-14450984D01*
X6754801Y-14450984D02*
X6773849Y-14441460D01*
X6773849Y-14441460D02*
X6783372Y-14422412D01*
X6783372Y-14422412D02*
X6783372Y-14412888D01*
X6783372Y-14412888D02*
X6773849Y-14393841D01*
X6773849Y-14393841D02*
X6754801Y-14384317D01*
X6754801Y-14384317D02*
X6726230Y-14384317D01*
X6726230Y-14384317D02*
X6707182Y-14374793D01*
X6707182Y-14374793D02*
X6697658Y-14355746D01*
X6697658Y-14355746D02*
X6697658Y-14346222D01*
X6697658Y-14346222D02*
X6707182Y-14327174D01*
X6707182Y-14327174D02*
X6726230Y-14317650D01*
X6726230Y-14317650D02*
X6754801Y-14317650D01*
X6754801Y-14317650D02*
X6773849Y-14327174D01*
X6850039Y-14527174D02*
X6859563Y-14517650D01*
X6859563Y-14517650D02*
X6878611Y-14489079D01*
X6878611Y-14489079D02*
X6888134Y-14470031D01*
X6888134Y-14470031D02*
X6897658Y-14441460D01*
X6897658Y-14441460D02*
X6907182Y-14393841D01*
X6907182Y-14393841D02*
X6907182Y-14355746D01*
X6907182Y-14355746D02*
X6897658Y-14308127D01*
X6897658Y-14308127D02*
X6888134Y-14279555D01*
X6888134Y-14279555D02*
X6878611Y-14260508D01*
X6878611Y-14260508D02*
X6859563Y-14231936D01*
X6859563Y-14231936D02*
X6850039Y-14222412D01*
D13*
X1829500Y-14678500D02*
X1884500Y-14623500D01*
X1829500Y-14568500D01*
X1774500Y-14623500D01*
X1829500Y-14678500D01*
D11*
X2250039Y-14714984D02*
X2135753Y-14714984D01*
X2192896Y-14714984D02*
X2192896Y-14514984D01*
X2192896Y-14514984D02*
X2173848Y-14543555D01*
X2173848Y-14543555D02*
X2154801Y-14562603D01*
X2154801Y-14562603D02*
X2135753Y-14572127D01*
X2335753Y-14695936D02*
X2345277Y-14705460D01*
X2345277Y-14705460D02*
X2335753Y-14714984D01*
X2335753Y-14714984D02*
X2326229Y-14705460D01*
X2326229Y-14705460D02*
X2335753Y-14695936D01*
X2335753Y-14695936D02*
X2335753Y-14714984D01*
X2535753Y-14714984D02*
X2421467Y-14714984D01*
X2478610Y-14714984D02*
X2478610Y-14514984D01*
X2478610Y-14514984D02*
X2459563Y-14543555D01*
X2459563Y-14543555D02*
X2440515Y-14562603D01*
X2440515Y-14562603D02*
X2421467Y-14572127D01*
X2659563Y-14514984D02*
X2678610Y-14514984D01*
X2678610Y-14514984D02*
X2697658Y-14524508D01*
X2697658Y-14524508D02*
X2707182Y-14534031D01*
X2707182Y-14534031D02*
X2716705Y-14553079D01*
X2716705Y-14553079D02*
X2726229Y-14591174D01*
X2726229Y-14591174D02*
X2726229Y-14638793D01*
X2726229Y-14638793D02*
X2716705Y-14676888D01*
X2716705Y-14676888D02*
X2707182Y-14695936D01*
X2707182Y-14695936D02*
X2697658Y-14705460D01*
X2697658Y-14705460D02*
X2678610Y-14714984D01*
X2678610Y-14714984D02*
X2659563Y-14714984D01*
X2659563Y-14714984D02*
X2640515Y-14705460D01*
X2640515Y-14705460D02*
X2630991Y-14695936D01*
X2630991Y-14695936D02*
X2621467Y-14676888D01*
X2621467Y-14676888D02*
X2611944Y-14638793D01*
X2611944Y-14638793D02*
X2611944Y-14591174D01*
X2611944Y-14591174D02*
X2621467Y-14553079D01*
X2621467Y-14553079D02*
X2630991Y-14534031D01*
X2630991Y-14534031D02*
X2640515Y-14524508D01*
X2640515Y-14524508D02*
X2659563Y-14514984D01*
X2850039Y-14514984D02*
X2869086Y-14514984D01*
X2869086Y-14514984D02*
X2888134Y-14524508D01*
X2888134Y-14524508D02*
X2897658Y-14534031D01*
X2897658Y-14534031D02*
X2907182Y-14553079D01*
X2907182Y-14553079D02*
X2916705Y-14591174D01*
X2916705Y-14591174D02*
X2916705Y-14638793D01*
X2916705Y-14638793D02*
X2907182Y-14676888D01*
X2907182Y-14676888D02*
X2897658Y-14695936D01*
X2897658Y-14695936D02*
X2888134Y-14705460D01*
X2888134Y-14705460D02*
X2869086Y-14714984D01*
X2869086Y-14714984D02*
X2850039Y-14714984D01*
X2850039Y-14714984D02*
X2830991Y-14705460D01*
X2830991Y-14705460D02*
X2821467Y-14695936D01*
X2821467Y-14695936D02*
X2811943Y-14676888D01*
X2811943Y-14676888D02*
X2802420Y-14638793D01*
X2802420Y-14638793D02*
X2802420Y-14591174D01*
X2802420Y-14591174D02*
X2811943Y-14553079D01*
X2811943Y-14553079D02*
X2821467Y-14534031D01*
X2821467Y-14534031D02*
X2830991Y-14524508D01*
X2830991Y-14524508D02*
X2850039Y-14514984D01*
X3002420Y-14714984D02*
X3002420Y-14581650D01*
X3002420Y-14600698D02*
X3011943Y-14591174D01*
X3011943Y-14591174D02*
X3030991Y-14581650D01*
X3030991Y-14581650D02*
X3059563Y-14581650D01*
X3059563Y-14581650D02*
X3078610Y-14591174D01*
X3078610Y-14591174D02*
X3088134Y-14610222D01*
X3088134Y-14610222D02*
X3088134Y-14714984D01*
X3088134Y-14610222D02*
X3097658Y-14591174D01*
X3097658Y-14591174D02*
X3116705Y-14581650D01*
X3116705Y-14581650D02*
X3145277Y-14581650D01*
X3145277Y-14581650D02*
X3164324Y-14591174D01*
X3164324Y-14591174D02*
X3173848Y-14610222D01*
X3173848Y-14610222D02*
X3173848Y-14714984D01*
X3269086Y-14714984D02*
X3269086Y-14581650D01*
X3269086Y-14600698D02*
X3278610Y-14591174D01*
X3278610Y-14591174D02*
X3297658Y-14581650D01*
X3297658Y-14581650D02*
X3326229Y-14581650D01*
X3326229Y-14581650D02*
X3345277Y-14591174D01*
X3345277Y-14591174D02*
X3354801Y-14610222D01*
X3354801Y-14610222D02*
X3354801Y-14714984D01*
X3354801Y-14610222D02*
X3364324Y-14591174D01*
X3364324Y-14591174D02*
X3383372Y-14581650D01*
X3383372Y-14581650D02*
X3411943Y-14581650D01*
X3411943Y-14581650D02*
X3430991Y-14591174D01*
X3430991Y-14591174D02*
X3440515Y-14610222D01*
X3440515Y-14610222D02*
X3440515Y-14714984D01*
X3830991Y-14505460D02*
X3659563Y-14762603D01*
X4088134Y-14514984D02*
X4107182Y-14514984D01*
X4107182Y-14514984D02*
X4126229Y-14524508D01*
X4126229Y-14524508D02*
X4135753Y-14534031D01*
X4135753Y-14534031D02*
X4145277Y-14553079D01*
X4145277Y-14553079D02*
X4154801Y-14591174D01*
X4154801Y-14591174D02*
X4154801Y-14638793D01*
X4154801Y-14638793D02*
X4145277Y-14676888D01*
X4145277Y-14676888D02*
X4135753Y-14695936D01*
X4135753Y-14695936D02*
X4126229Y-14705460D01*
X4126229Y-14705460D02*
X4107182Y-14714984D01*
X4107182Y-14714984D02*
X4088134Y-14714984D01*
X4088134Y-14714984D02*
X4069086Y-14705460D01*
X4069086Y-14705460D02*
X4059563Y-14695936D01*
X4059563Y-14695936D02*
X4050039Y-14676888D01*
X4050039Y-14676888D02*
X4040515Y-14638793D01*
X4040515Y-14638793D02*
X4040515Y-14591174D01*
X4040515Y-14591174D02*
X4050039Y-14553079D01*
X4050039Y-14553079D02*
X4059563Y-14534031D01*
X4059563Y-14534031D02*
X4069086Y-14524508D01*
X4069086Y-14524508D02*
X4088134Y-14514984D01*
X4240515Y-14695936D02*
X4250039Y-14705460D01*
X4250039Y-14705460D02*
X4240515Y-14714984D01*
X4240515Y-14714984D02*
X4230991Y-14705460D01*
X4230991Y-14705460D02*
X4240515Y-14695936D01*
X4240515Y-14695936D02*
X4240515Y-14714984D01*
X4373848Y-14514984D02*
X4392896Y-14514984D01*
X4392896Y-14514984D02*
X4411944Y-14524508D01*
X4411944Y-14524508D02*
X4421468Y-14534031D01*
X4421468Y-14534031D02*
X4430991Y-14553079D01*
X4430991Y-14553079D02*
X4440515Y-14591174D01*
X4440515Y-14591174D02*
X4440515Y-14638793D01*
X4440515Y-14638793D02*
X4430991Y-14676888D01*
X4430991Y-14676888D02*
X4421468Y-14695936D01*
X4421468Y-14695936D02*
X4411944Y-14705460D01*
X4411944Y-14705460D02*
X4392896Y-14714984D01*
X4392896Y-14714984D02*
X4373848Y-14714984D01*
X4373848Y-14714984D02*
X4354801Y-14705460D01*
X4354801Y-14705460D02*
X4345277Y-14695936D01*
X4345277Y-14695936D02*
X4335753Y-14676888D01*
X4335753Y-14676888D02*
X4326229Y-14638793D01*
X4326229Y-14638793D02*
X4326229Y-14591174D01*
X4326229Y-14591174D02*
X4335753Y-14553079D01*
X4335753Y-14553079D02*
X4345277Y-14534031D01*
X4345277Y-14534031D02*
X4354801Y-14524508D01*
X4354801Y-14524508D02*
X4373848Y-14514984D01*
X4611944Y-14581650D02*
X4611944Y-14714984D01*
X4564325Y-14505460D02*
X4516706Y-14648317D01*
X4516706Y-14648317D02*
X4640515Y-14648317D01*
X4697658Y-14514984D02*
X4821468Y-14514984D01*
X4821468Y-14514984D02*
X4754801Y-14591174D01*
X4754801Y-14591174D02*
X4783372Y-14591174D01*
X4783372Y-14591174D02*
X4802420Y-14600698D01*
X4802420Y-14600698D02*
X4811944Y-14610222D01*
X4811944Y-14610222D02*
X4821468Y-14629269D01*
X4821468Y-14629269D02*
X4821468Y-14676888D01*
X4821468Y-14676888D02*
X4811944Y-14695936D01*
X4811944Y-14695936D02*
X4802420Y-14705460D01*
X4802420Y-14705460D02*
X4783372Y-14714984D01*
X4783372Y-14714984D02*
X4726229Y-14714984D01*
X4726229Y-14714984D02*
X4707182Y-14705460D01*
X4707182Y-14705460D02*
X4697658Y-14695936D01*
X4888134Y-14514984D02*
X5011944Y-14514984D01*
X5011944Y-14514984D02*
X4945277Y-14591174D01*
X4945277Y-14591174D02*
X4973849Y-14591174D01*
X4973849Y-14591174D02*
X4992896Y-14600698D01*
X4992896Y-14600698D02*
X5002420Y-14610222D01*
X5002420Y-14610222D02*
X5011944Y-14629269D01*
X5011944Y-14629269D02*
X5011944Y-14676888D01*
X5011944Y-14676888D02*
X5002420Y-14695936D01*
X5002420Y-14695936D02*
X4992896Y-14705460D01*
X4992896Y-14705460D02*
X4973849Y-14714984D01*
X4973849Y-14714984D02*
X4916706Y-14714984D01*
X4916706Y-14714984D02*
X4897658Y-14705460D01*
X4897658Y-14705460D02*
X4888134Y-14695936D01*
X5088134Y-14514984D02*
X5088134Y-14553079D01*
X5164325Y-14514984D02*
X5164325Y-14553079D01*
X5459563Y-14791174D02*
X5450039Y-14781650D01*
X5450039Y-14781650D02*
X5430991Y-14753079D01*
X5430991Y-14753079D02*
X5421468Y-14734031D01*
X5421468Y-14734031D02*
X5411944Y-14705460D01*
X5411944Y-14705460D02*
X5402420Y-14657841D01*
X5402420Y-14657841D02*
X5402420Y-14619746D01*
X5402420Y-14619746D02*
X5411944Y-14572127D01*
X5411944Y-14572127D02*
X5421468Y-14543555D01*
X5421468Y-14543555D02*
X5430991Y-14524508D01*
X5430991Y-14524508D02*
X5450039Y-14495936D01*
X5450039Y-14495936D02*
X5459563Y-14486412D01*
X5526230Y-14534031D02*
X5535753Y-14524508D01*
X5535753Y-14524508D02*
X5554801Y-14514984D01*
X5554801Y-14514984D02*
X5602420Y-14514984D01*
X5602420Y-14514984D02*
X5621468Y-14524508D01*
X5621468Y-14524508D02*
X5630991Y-14534031D01*
X5630991Y-14534031D02*
X5640515Y-14553079D01*
X5640515Y-14553079D02*
X5640515Y-14572127D01*
X5640515Y-14572127D02*
X5630991Y-14600698D01*
X5630991Y-14600698D02*
X5516706Y-14714984D01*
X5516706Y-14714984D02*
X5640515Y-14714984D01*
X5811944Y-14581650D02*
X5811944Y-14714984D01*
X5764325Y-14505460D02*
X5716706Y-14648317D01*
X5716706Y-14648317D02*
X5840515Y-14648317D01*
X6069087Y-14714984D02*
X6069087Y-14514984D01*
X6154801Y-14714984D02*
X6154801Y-14610222D01*
X6154801Y-14610222D02*
X6145277Y-14591174D01*
X6145277Y-14591174D02*
X6126230Y-14581650D01*
X6126230Y-14581650D02*
X6097658Y-14581650D01*
X6097658Y-14581650D02*
X6078610Y-14591174D01*
X6078610Y-14591174D02*
X6069087Y-14600698D01*
X6278610Y-14714984D02*
X6259563Y-14705460D01*
X6259563Y-14705460D02*
X6250039Y-14695936D01*
X6250039Y-14695936D02*
X6240515Y-14676888D01*
X6240515Y-14676888D02*
X6240515Y-14619746D01*
X6240515Y-14619746D02*
X6250039Y-14600698D01*
X6250039Y-14600698D02*
X6259563Y-14591174D01*
X6259563Y-14591174D02*
X6278610Y-14581650D01*
X6278610Y-14581650D02*
X6307182Y-14581650D01*
X6307182Y-14581650D02*
X6326230Y-14591174D01*
X6326230Y-14591174D02*
X6335753Y-14600698D01*
X6335753Y-14600698D02*
X6345277Y-14619746D01*
X6345277Y-14619746D02*
X6345277Y-14676888D01*
X6345277Y-14676888D02*
X6335753Y-14695936D01*
X6335753Y-14695936D02*
X6326230Y-14705460D01*
X6326230Y-14705460D02*
X6307182Y-14714984D01*
X6307182Y-14714984D02*
X6278610Y-14714984D01*
X6459563Y-14714984D02*
X6440515Y-14705460D01*
X6440515Y-14705460D02*
X6430991Y-14686412D01*
X6430991Y-14686412D02*
X6430991Y-14514984D01*
X6611944Y-14705460D02*
X6592896Y-14714984D01*
X6592896Y-14714984D02*
X6554801Y-14714984D01*
X6554801Y-14714984D02*
X6535753Y-14705460D01*
X6535753Y-14705460D02*
X6526230Y-14686412D01*
X6526230Y-14686412D02*
X6526230Y-14610222D01*
X6526230Y-14610222D02*
X6535753Y-14591174D01*
X6535753Y-14591174D02*
X6554801Y-14581650D01*
X6554801Y-14581650D02*
X6592896Y-14581650D01*
X6592896Y-14581650D02*
X6611944Y-14591174D01*
X6611944Y-14591174D02*
X6621468Y-14610222D01*
X6621468Y-14610222D02*
X6621468Y-14629269D01*
X6621468Y-14629269D02*
X6526230Y-14648317D01*
X6697658Y-14705460D02*
X6716706Y-14714984D01*
X6716706Y-14714984D02*
X6754801Y-14714984D01*
X6754801Y-14714984D02*
X6773849Y-14705460D01*
X6773849Y-14705460D02*
X6783372Y-14686412D01*
X6783372Y-14686412D02*
X6783372Y-14676888D01*
X6783372Y-14676888D02*
X6773849Y-14657841D01*
X6773849Y-14657841D02*
X6754801Y-14648317D01*
X6754801Y-14648317D02*
X6726230Y-14648317D01*
X6726230Y-14648317D02*
X6707182Y-14638793D01*
X6707182Y-14638793D02*
X6697658Y-14619746D01*
X6697658Y-14619746D02*
X6697658Y-14610222D01*
X6697658Y-14610222D02*
X6707182Y-14591174D01*
X6707182Y-14591174D02*
X6726230Y-14581650D01*
X6726230Y-14581650D02*
X6754801Y-14581650D01*
X6754801Y-14581650D02*
X6773849Y-14591174D01*
X6850039Y-14791174D02*
X6859563Y-14781650D01*
X6859563Y-14781650D02*
X6878611Y-14753079D01*
X6878611Y-14753079D02*
X6888134Y-14734031D01*
X6888134Y-14734031D02*
X6897658Y-14705460D01*
X6897658Y-14705460D02*
X6907182Y-14657841D01*
X6907182Y-14657841D02*
X6907182Y-14619746D01*
X6907182Y-14619746D02*
X6897658Y-14572127D01*
X6897658Y-14572127D02*
X6888134Y-14543555D01*
X6888134Y-14543555D02*
X6878611Y-14524508D01*
X6878611Y-14524508D02*
X6859563Y-14495936D01*
X6859563Y-14495936D02*
X6850039Y-14486412D01*
D14*
X1734500Y-14812500D02*
X1884500Y-14962500D01*
X1884500Y-14812500D02*
X1734500Y-14962500D01*
X1884500Y-14887500D02*
G75*
G02*
X1734500Y-14887500I-75000J0D01*
G01*
X1734500Y-14887500D02*
G75*
G02*
X1884500Y-14887500I75000J0D01*
G01*
D11*
X2250039Y-14978984D02*
X2135753Y-14978984D01*
X2192896Y-14978984D02*
X2192896Y-14778984D01*
X2192896Y-14778984D02*
X2173848Y-14807555D01*
X2173848Y-14807555D02*
X2154801Y-14826603D01*
X2154801Y-14826603D02*
X2135753Y-14836127D01*
X2335753Y-14959936D02*
X2345277Y-14969460D01*
X2345277Y-14969460D02*
X2335753Y-14978984D01*
X2335753Y-14978984D02*
X2326229Y-14969460D01*
X2326229Y-14969460D02*
X2335753Y-14959936D01*
X2335753Y-14959936D02*
X2335753Y-14978984D01*
X2526229Y-14778984D02*
X2430991Y-14778984D01*
X2430991Y-14778984D02*
X2421467Y-14874222D01*
X2421467Y-14874222D02*
X2430991Y-14864698D01*
X2430991Y-14864698D02*
X2450039Y-14855174D01*
X2450039Y-14855174D02*
X2497658Y-14855174D01*
X2497658Y-14855174D02*
X2516705Y-14864698D01*
X2516705Y-14864698D02*
X2526229Y-14874222D01*
X2526229Y-14874222D02*
X2535753Y-14893269D01*
X2535753Y-14893269D02*
X2535753Y-14940888D01*
X2535753Y-14940888D02*
X2526229Y-14959936D01*
X2526229Y-14959936D02*
X2516705Y-14969460D01*
X2516705Y-14969460D02*
X2497658Y-14978984D01*
X2497658Y-14978984D02*
X2450039Y-14978984D01*
X2450039Y-14978984D02*
X2430991Y-14969460D01*
X2430991Y-14969460D02*
X2421467Y-14959936D01*
X2659563Y-14778984D02*
X2678610Y-14778984D01*
X2678610Y-14778984D02*
X2697658Y-14788508D01*
X2697658Y-14788508D02*
X2707182Y-14798031D01*
X2707182Y-14798031D02*
X2716705Y-14817079D01*
X2716705Y-14817079D02*
X2726229Y-14855174D01*
X2726229Y-14855174D02*
X2726229Y-14902793D01*
X2726229Y-14902793D02*
X2716705Y-14940888D01*
X2716705Y-14940888D02*
X2707182Y-14959936D01*
X2707182Y-14959936D02*
X2697658Y-14969460D01*
X2697658Y-14969460D02*
X2678610Y-14978984D01*
X2678610Y-14978984D02*
X2659563Y-14978984D01*
X2659563Y-14978984D02*
X2640515Y-14969460D01*
X2640515Y-14969460D02*
X2630991Y-14959936D01*
X2630991Y-14959936D02*
X2621467Y-14940888D01*
X2621467Y-14940888D02*
X2611944Y-14902793D01*
X2611944Y-14902793D02*
X2611944Y-14855174D01*
X2611944Y-14855174D02*
X2621467Y-14817079D01*
X2621467Y-14817079D02*
X2630991Y-14798031D01*
X2630991Y-14798031D02*
X2640515Y-14788508D01*
X2640515Y-14788508D02*
X2659563Y-14778984D01*
X2850039Y-14778984D02*
X2869086Y-14778984D01*
X2869086Y-14778984D02*
X2888134Y-14788508D01*
X2888134Y-14788508D02*
X2897658Y-14798031D01*
X2897658Y-14798031D02*
X2907182Y-14817079D01*
X2907182Y-14817079D02*
X2916705Y-14855174D01*
X2916705Y-14855174D02*
X2916705Y-14902793D01*
X2916705Y-14902793D02*
X2907182Y-14940888D01*
X2907182Y-14940888D02*
X2897658Y-14959936D01*
X2897658Y-14959936D02*
X2888134Y-14969460D01*
X2888134Y-14969460D02*
X2869086Y-14978984D01*
X2869086Y-14978984D02*
X2850039Y-14978984D01*
X2850039Y-14978984D02*
X2830991Y-14969460D01*
X2830991Y-14969460D02*
X2821467Y-14959936D01*
X2821467Y-14959936D02*
X2811943Y-14940888D01*
X2811943Y-14940888D02*
X2802420Y-14902793D01*
X2802420Y-14902793D02*
X2802420Y-14855174D01*
X2802420Y-14855174D02*
X2811943Y-14817079D01*
X2811943Y-14817079D02*
X2821467Y-14798031D01*
X2821467Y-14798031D02*
X2830991Y-14788508D01*
X2830991Y-14788508D02*
X2850039Y-14778984D01*
X3002420Y-14978984D02*
X3002420Y-14845650D01*
X3002420Y-14864698D02*
X3011943Y-14855174D01*
X3011943Y-14855174D02*
X3030991Y-14845650D01*
X3030991Y-14845650D02*
X3059563Y-14845650D01*
X3059563Y-14845650D02*
X3078610Y-14855174D01*
X3078610Y-14855174D02*
X3088134Y-14874222D01*
X3088134Y-14874222D02*
X3088134Y-14978984D01*
X3088134Y-14874222D02*
X3097658Y-14855174D01*
X3097658Y-14855174D02*
X3116705Y-14845650D01*
X3116705Y-14845650D02*
X3145277Y-14845650D01*
X3145277Y-14845650D02*
X3164324Y-14855174D01*
X3164324Y-14855174D02*
X3173848Y-14874222D01*
X3173848Y-14874222D02*
X3173848Y-14978984D01*
X3269086Y-14978984D02*
X3269086Y-14845650D01*
X3269086Y-14864698D02*
X3278610Y-14855174D01*
X3278610Y-14855174D02*
X3297658Y-14845650D01*
X3297658Y-14845650D02*
X3326229Y-14845650D01*
X3326229Y-14845650D02*
X3345277Y-14855174D01*
X3345277Y-14855174D02*
X3354801Y-14874222D01*
X3354801Y-14874222D02*
X3354801Y-14978984D01*
X3354801Y-14874222D02*
X3364324Y-14855174D01*
X3364324Y-14855174D02*
X3383372Y-14845650D01*
X3383372Y-14845650D02*
X3411943Y-14845650D01*
X3411943Y-14845650D02*
X3430991Y-14855174D01*
X3430991Y-14855174D02*
X3440515Y-14874222D01*
X3440515Y-14874222D02*
X3440515Y-14978984D01*
X3830991Y-14769460D02*
X3659563Y-15026603D01*
X4088134Y-14778984D02*
X4107182Y-14778984D01*
X4107182Y-14778984D02*
X4126229Y-14788508D01*
X4126229Y-14788508D02*
X4135753Y-14798031D01*
X4135753Y-14798031D02*
X4145277Y-14817079D01*
X4145277Y-14817079D02*
X4154801Y-14855174D01*
X4154801Y-14855174D02*
X4154801Y-14902793D01*
X4154801Y-14902793D02*
X4145277Y-14940888D01*
X4145277Y-14940888D02*
X4135753Y-14959936D01*
X4135753Y-14959936D02*
X4126229Y-14969460D01*
X4126229Y-14969460D02*
X4107182Y-14978984D01*
X4107182Y-14978984D02*
X4088134Y-14978984D01*
X4088134Y-14978984D02*
X4069086Y-14969460D01*
X4069086Y-14969460D02*
X4059563Y-14959936D01*
X4059563Y-14959936D02*
X4050039Y-14940888D01*
X4050039Y-14940888D02*
X4040515Y-14902793D01*
X4040515Y-14902793D02*
X4040515Y-14855174D01*
X4040515Y-14855174D02*
X4050039Y-14817079D01*
X4050039Y-14817079D02*
X4059563Y-14798031D01*
X4059563Y-14798031D02*
X4069086Y-14788508D01*
X4069086Y-14788508D02*
X4088134Y-14778984D01*
X4240515Y-14959936D02*
X4250039Y-14969460D01*
X4250039Y-14969460D02*
X4240515Y-14978984D01*
X4240515Y-14978984D02*
X4230991Y-14969460D01*
X4230991Y-14969460D02*
X4240515Y-14959936D01*
X4240515Y-14959936D02*
X4240515Y-14978984D01*
X4373848Y-14778984D02*
X4392896Y-14778984D01*
X4392896Y-14778984D02*
X4411944Y-14788508D01*
X4411944Y-14788508D02*
X4421468Y-14798031D01*
X4421468Y-14798031D02*
X4430991Y-14817079D01*
X4430991Y-14817079D02*
X4440515Y-14855174D01*
X4440515Y-14855174D02*
X4440515Y-14902793D01*
X4440515Y-14902793D02*
X4430991Y-14940888D01*
X4430991Y-14940888D02*
X4421468Y-14959936D01*
X4421468Y-14959936D02*
X4411944Y-14969460D01*
X4411944Y-14969460D02*
X4392896Y-14978984D01*
X4392896Y-14978984D02*
X4373848Y-14978984D01*
X4373848Y-14978984D02*
X4354801Y-14969460D01*
X4354801Y-14969460D02*
X4345277Y-14959936D01*
X4345277Y-14959936D02*
X4335753Y-14940888D01*
X4335753Y-14940888D02*
X4326229Y-14902793D01*
X4326229Y-14902793D02*
X4326229Y-14855174D01*
X4326229Y-14855174D02*
X4335753Y-14817079D01*
X4335753Y-14817079D02*
X4345277Y-14798031D01*
X4345277Y-14798031D02*
X4354801Y-14788508D01*
X4354801Y-14788508D02*
X4373848Y-14778984D01*
X4621468Y-14778984D02*
X4526229Y-14778984D01*
X4526229Y-14778984D02*
X4516706Y-14874222D01*
X4516706Y-14874222D02*
X4526229Y-14864698D01*
X4526229Y-14864698D02*
X4545277Y-14855174D01*
X4545277Y-14855174D02*
X4592896Y-14855174D01*
X4592896Y-14855174D02*
X4611944Y-14864698D01*
X4611944Y-14864698D02*
X4621468Y-14874222D01*
X4621468Y-14874222D02*
X4630991Y-14893269D01*
X4630991Y-14893269D02*
X4630991Y-14940888D01*
X4630991Y-14940888D02*
X4621468Y-14959936D01*
X4621468Y-14959936D02*
X4611944Y-14969460D01*
X4611944Y-14969460D02*
X4592896Y-14978984D01*
X4592896Y-14978984D02*
X4545277Y-14978984D01*
X4545277Y-14978984D02*
X4526229Y-14969460D01*
X4526229Y-14969460D02*
X4516706Y-14959936D01*
X4726229Y-14978984D02*
X4764325Y-14978984D01*
X4764325Y-14978984D02*
X4783372Y-14969460D01*
X4783372Y-14969460D02*
X4792896Y-14959936D01*
X4792896Y-14959936D02*
X4811944Y-14931365D01*
X4811944Y-14931365D02*
X4821468Y-14893269D01*
X4821468Y-14893269D02*
X4821468Y-14817079D01*
X4821468Y-14817079D02*
X4811944Y-14798031D01*
X4811944Y-14798031D02*
X4802420Y-14788508D01*
X4802420Y-14788508D02*
X4783372Y-14778984D01*
X4783372Y-14778984D02*
X4745277Y-14778984D01*
X4745277Y-14778984D02*
X4726229Y-14788508D01*
X4726229Y-14788508D02*
X4716706Y-14798031D01*
X4716706Y-14798031D02*
X4707182Y-14817079D01*
X4707182Y-14817079D02*
X4707182Y-14864698D01*
X4707182Y-14864698D02*
X4716706Y-14883746D01*
X4716706Y-14883746D02*
X4726229Y-14893269D01*
X4726229Y-14893269D02*
X4745277Y-14902793D01*
X4745277Y-14902793D02*
X4783372Y-14902793D01*
X4783372Y-14902793D02*
X4802420Y-14893269D01*
X4802420Y-14893269D02*
X4811944Y-14883746D01*
X4811944Y-14883746D02*
X4821468Y-14864698D01*
X5011944Y-14978984D02*
X4897658Y-14978984D01*
X4954801Y-14978984D02*
X4954801Y-14778984D01*
X4954801Y-14778984D02*
X4935753Y-14807555D01*
X4935753Y-14807555D02*
X4916706Y-14826603D01*
X4916706Y-14826603D02*
X4897658Y-14836127D01*
X5088134Y-14778984D02*
X5088134Y-14817079D01*
X5164325Y-14778984D02*
X5164325Y-14817079D01*
X5459563Y-15055174D02*
X5450039Y-15045650D01*
X5450039Y-15045650D02*
X5430991Y-15017079D01*
X5430991Y-15017079D02*
X5421468Y-14998031D01*
X5421468Y-14998031D02*
X5411944Y-14969460D01*
X5411944Y-14969460D02*
X5402420Y-14921841D01*
X5402420Y-14921841D02*
X5402420Y-14883746D01*
X5402420Y-14883746D02*
X5411944Y-14836127D01*
X5411944Y-14836127D02*
X5421468Y-14807555D01*
X5421468Y-14807555D02*
X5430991Y-14788508D01*
X5430991Y-14788508D02*
X5450039Y-14759936D01*
X5450039Y-14759936D02*
X5459563Y-14750412D01*
X5516706Y-14778984D02*
X5640515Y-14778984D01*
X5640515Y-14778984D02*
X5573849Y-14855174D01*
X5573849Y-14855174D02*
X5602420Y-14855174D01*
X5602420Y-14855174D02*
X5621468Y-14864698D01*
X5621468Y-14864698D02*
X5630991Y-14874222D01*
X5630991Y-14874222D02*
X5640515Y-14893269D01*
X5640515Y-14893269D02*
X5640515Y-14940888D01*
X5640515Y-14940888D02*
X5630991Y-14959936D01*
X5630991Y-14959936D02*
X5621468Y-14969460D01*
X5621468Y-14969460D02*
X5602420Y-14978984D01*
X5602420Y-14978984D02*
X5545277Y-14978984D01*
X5545277Y-14978984D02*
X5526230Y-14969460D01*
X5526230Y-14969460D02*
X5516706Y-14959936D01*
X5878610Y-14978984D02*
X5878610Y-14778984D01*
X5964325Y-14978984D02*
X5964325Y-14874222D01*
X5964325Y-14874222D02*
X5954801Y-14855174D01*
X5954801Y-14855174D02*
X5935753Y-14845650D01*
X5935753Y-14845650D02*
X5907182Y-14845650D01*
X5907182Y-14845650D02*
X5888134Y-14855174D01*
X5888134Y-14855174D02*
X5878610Y-14864698D01*
X6088134Y-14978984D02*
X6069087Y-14969460D01*
X6069087Y-14969460D02*
X6059563Y-14959936D01*
X6059563Y-14959936D02*
X6050039Y-14940888D01*
X6050039Y-14940888D02*
X6050039Y-14883746D01*
X6050039Y-14883746D02*
X6059563Y-14864698D01*
X6059563Y-14864698D02*
X6069087Y-14855174D01*
X6069087Y-14855174D02*
X6088134Y-14845650D01*
X6088134Y-14845650D02*
X6116706Y-14845650D01*
X6116706Y-14845650D02*
X6135753Y-14855174D01*
X6135753Y-14855174D02*
X6145277Y-14864698D01*
X6145277Y-14864698D02*
X6154801Y-14883746D01*
X6154801Y-14883746D02*
X6154801Y-14940888D01*
X6154801Y-14940888D02*
X6145277Y-14959936D01*
X6145277Y-14959936D02*
X6135753Y-14969460D01*
X6135753Y-14969460D02*
X6116706Y-14978984D01*
X6116706Y-14978984D02*
X6088134Y-14978984D01*
X6269087Y-14978984D02*
X6250039Y-14969460D01*
X6250039Y-14969460D02*
X6240515Y-14950412D01*
X6240515Y-14950412D02*
X6240515Y-14778984D01*
X6421468Y-14969460D02*
X6402420Y-14978984D01*
X6402420Y-14978984D02*
X6364325Y-14978984D01*
X6364325Y-14978984D02*
X6345277Y-14969460D01*
X6345277Y-14969460D02*
X6335753Y-14950412D01*
X6335753Y-14950412D02*
X6335753Y-14874222D01*
X6335753Y-14874222D02*
X6345277Y-14855174D01*
X6345277Y-14855174D02*
X6364325Y-14845650D01*
X6364325Y-14845650D02*
X6402420Y-14845650D01*
X6402420Y-14845650D02*
X6421468Y-14855174D01*
X6421468Y-14855174D02*
X6430991Y-14874222D01*
X6430991Y-14874222D02*
X6430991Y-14893269D01*
X6430991Y-14893269D02*
X6335753Y-14912317D01*
X6507182Y-14969460D02*
X6526230Y-14978984D01*
X6526230Y-14978984D02*
X6564325Y-14978984D01*
X6564325Y-14978984D02*
X6583372Y-14969460D01*
X6583372Y-14969460D02*
X6592896Y-14950412D01*
X6592896Y-14950412D02*
X6592896Y-14940888D01*
X6592896Y-14940888D02*
X6583372Y-14921841D01*
X6583372Y-14921841D02*
X6564325Y-14912317D01*
X6564325Y-14912317D02*
X6535753Y-14912317D01*
X6535753Y-14912317D02*
X6516706Y-14902793D01*
X6516706Y-14902793D02*
X6507182Y-14883746D01*
X6507182Y-14883746D02*
X6507182Y-14874222D01*
X6507182Y-14874222D02*
X6516706Y-14855174D01*
X6516706Y-14855174D02*
X6535753Y-14845650D01*
X6535753Y-14845650D02*
X6564325Y-14845650D01*
X6564325Y-14845650D02*
X6583372Y-14855174D01*
X6830992Y-14902793D02*
X6983373Y-14902793D01*
X6907182Y-14978984D02*
X6907182Y-14826603D01*
X7221468Y-14798031D02*
X7230992Y-14788508D01*
X7230992Y-14788508D02*
X7250039Y-14778984D01*
X7250039Y-14778984D02*
X7297658Y-14778984D01*
X7297658Y-14778984D02*
X7316706Y-14788508D01*
X7316706Y-14788508D02*
X7326230Y-14798031D01*
X7326230Y-14798031D02*
X7335753Y-14817079D01*
X7335753Y-14817079D02*
X7335753Y-14836127D01*
X7335753Y-14836127D02*
X7326230Y-14864698D01*
X7326230Y-14864698D02*
X7211944Y-14978984D01*
X7211944Y-14978984D02*
X7335753Y-14978984D01*
X7564325Y-14969460D02*
X7583373Y-14978984D01*
X7583373Y-14978984D02*
X7621468Y-14978984D01*
X7621468Y-14978984D02*
X7640515Y-14969460D01*
X7640515Y-14969460D02*
X7650039Y-14950412D01*
X7650039Y-14950412D02*
X7650039Y-14940888D01*
X7650039Y-14940888D02*
X7640515Y-14921841D01*
X7640515Y-14921841D02*
X7621468Y-14912317D01*
X7621468Y-14912317D02*
X7592896Y-14912317D01*
X7592896Y-14912317D02*
X7573849Y-14902793D01*
X7573849Y-14902793D02*
X7564325Y-14883746D01*
X7564325Y-14883746D02*
X7564325Y-14874222D01*
X7564325Y-14874222D02*
X7573849Y-14855174D01*
X7573849Y-14855174D02*
X7592896Y-14845650D01*
X7592896Y-14845650D02*
X7621468Y-14845650D01*
X7621468Y-14845650D02*
X7640515Y-14855174D01*
X7764325Y-14978984D02*
X7745277Y-14969460D01*
X7745277Y-14969460D02*
X7735754Y-14950412D01*
X7735754Y-14950412D02*
X7735754Y-14778984D01*
X7869087Y-14978984D02*
X7850039Y-14969460D01*
X7850039Y-14969460D02*
X7840515Y-14959936D01*
X7840515Y-14959936D02*
X7830992Y-14940888D01*
X7830992Y-14940888D02*
X7830992Y-14883746D01*
X7830992Y-14883746D02*
X7840515Y-14864698D01*
X7840515Y-14864698D02*
X7850039Y-14855174D01*
X7850039Y-14855174D02*
X7869087Y-14845650D01*
X7869087Y-14845650D02*
X7897658Y-14845650D01*
X7897658Y-14845650D02*
X7916706Y-14855174D01*
X7916706Y-14855174D02*
X7926230Y-14864698D01*
X7926230Y-14864698D02*
X7935754Y-14883746D01*
X7935754Y-14883746D02*
X7935754Y-14940888D01*
X7935754Y-14940888D02*
X7926230Y-14959936D01*
X7926230Y-14959936D02*
X7916706Y-14969460D01*
X7916706Y-14969460D02*
X7897658Y-14978984D01*
X7897658Y-14978984D02*
X7869087Y-14978984D01*
X7992896Y-14845650D02*
X8069087Y-14845650D01*
X8021468Y-14778984D02*
X8021468Y-14950412D01*
X8021468Y-14950412D02*
X8030992Y-14969460D01*
X8030992Y-14969460D02*
X8050039Y-14978984D01*
X8050039Y-14978984D02*
X8069087Y-14978984D01*
X8126230Y-14969460D02*
X8145277Y-14978984D01*
X8145277Y-14978984D02*
X8183373Y-14978984D01*
X8183373Y-14978984D02*
X8202420Y-14969460D01*
X8202420Y-14969460D02*
X8211944Y-14950412D01*
X8211944Y-14950412D02*
X8211944Y-14940888D01*
X8211944Y-14940888D02*
X8202420Y-14921841D01*
X8202420Y-14921841D02*
X8183373Y-14912317D01*
X8183373Y-14912317D02*
X8154801Y-14912317D01*
X8154801Y-14912317D02*
X8135754Y-14902793D01*
X8135754Y-14902793D02*
X8126230Y-14883746D01*
X8126230Y-14883746D02*
X8126230Y-14874222D01*
X8126230Y-14874222D02*
X8135754Y-14855174D01*
X8135754Y-14855174D02*
X8154801Y-14845650D01*
X8154801Y-14845650D02*
X8183373Y-14845650D01*
X8183373Y-14845650D02*
X8202420Y-14855174D01*
X8278611Y-15055174D02*
X8288135Y-15045650D01*
X8288135Y-15045650D02*
X8307182Y-15017079D01*
X8307182Y-15017079D02*
X8316706Y-14998031D01*
X8316706Y-14998031D02*
X8326230Y-14969460D01*
X8326230Y-14969460D02*
X8335754Y-14921841D01*
X8335754Y-14921841D02*
X8335754Y-14883746D01*
X8335754Y-14883746D02*
X8326230Y-14836127D01*
X8326230Y-14836127D02*
X8316706Y-14807555D01*
X8316706Y-14807555D02*
X8307182Y-14788508D01*
X8307182Y-14788508D02*
X8288135Y-14759936D01*
X8288135Y-14759936D02*
X8278611Y-14750412D01*
M02*
