%TF.GenerationSoftware,KiCad,Pcbnew,8.0.6*%
%TF.CreationDate,2024-12-22T20:43:21-05:00*%
%TF.ProjectId,flowcontrol_BL,666c6f77-636f-46e7-9472-6f6c5f424c2e,rev?*%
%TF.SameCoordinates,Original*%
%TF.FileFunction,Copper,L1,Top*%
%TF.FilePolarity,Positive*%
%FSLAX46Y46*%
G04 Gerber Fmt 4.6, Leading zero omitted, Abs format (unit mm)*
G04 Created by KiCad (PCBNEW 8.0.6) date 2024-12-22 20:43:21*
%MOMM*%
%LPD*%
G01*
G04 APERTURE LIST*
G04 Aperture macros list*
%AMRoundRect*
0 Rectangle with rounded corners*
0 $1 Rounding radius*
0 $2 $3 $4 $5 $6 $7 $8 $9 X,Y pos of 4 corners*
0 Add a 4 corners polygon primitive as box body*
4,1,4,$2,$3,$4,$5,$6,$7,$8,$9,$2,$3,0*
0 Add four circle primitives for the rounded corners*
1,1,$1+$1,$2,$3*
1,1,$1+$1,$4,$5*
1,1,$1+$1,$6,$7*
1,1,$1+$1,$8,$9*
0 Add four rect primitives between the rounded corners*
20,1,$1+$1,$2,$3,$4,$5,0*
20,1,$1+$1,$4,$5,$6,$7,0*
20,1,$1+$1,$6,$7,$8,$9,0*
20,1,$1+$1,$8,$9,$2,$3,0*%
G04 Aperture macros list end*
%TA.AperFunction,ComponentPad*%
%ADD10C,2.000000*%
%TD*%
%TA.AperFunction,ComponentPad*%
%ADD11R,1.800000X1.800000*%
%TD*%
%TA.AperFunction,ComponentPad*%
%ADD12C,1.800000*%
%TD*%
%TA.AperFunction,ComponentPad*%
%ADD13R,1.350000X1.350000*%
%TD*%
%TA.AperFunction,ComponentPad*%
%ADD14O,1.350000X1.350000*%
%TD*%
%TA.AperFunction,ComponentPad*%
%ADD15C,1.600000*%
%TD*%
%TA.AperFunction,ComponentPad*%
%ADD16O,1.600000X1.600000*%
%TD*%
%TA.AperFunction,SMDPad,CuDef*%
%ADD17RoundRect,0.150000X-0.825000X-0.150000X0.825000X-0.150000X0.825000X0.150000X-0.825000X0.150000X0*%
%TD*%
%TA.AperFunction,ComponentPad*%
%ADD18R,1.500000X1.500000*%
%TD*%
%TA.AperFunction,ComponentPad*%
%ADD19C,1.500000*%
%TD*%
%TA.AperFunction,SMDPad,CuDef*%
%ADD20RoundRect,0.150000X0.150000X-0.587500X0.150000X0.587500X-0.150000X0.587500X-0.150000X-0.587500X0*%
%TD*%
%TA.AperFunction,ComponentPad*%
%ADD21R,1.600000X1.600000*%
%TD*%
%TA.AperFunction,ComponentPad*%
%ADD22R,1.700000X1.700000*%
%TD*%
%TA.AperFunction,ComponentPad*%
%ADD23O,1.700000X1.700000*%
%TD*%
%TA.AperFunction,ComponentPad*%
%ADD24R,3.500000X2.500000*%
%TD*%
%TA.AperFunction,ComponentPad*%
%ADD25O,3.500000X2.500000*%
%TD*%
%TA.AperFunction,ComponentPad*%
%ADD26R,2.000000X2.000000*%
%TD*%
%TA.AperFunction,ComponentPad*%
%ADD27R,2.000000X3.200000*%
%TD*%
%TA.AperFunction,ViaPad*%
%ADD28C,0.600000*%
%TD*%
%TA.AperFunction,Conductor*%
%ADD29C,0.200000*%
%TD*%
G04 APERTURE END LIST*
D10*
%TO.P,SW2,1,1*%
%TO.N,unconnected-(SW2-Pad1)*%
X188352500Y-96500000D03*
%TO.P,SW2,2,2*%
%TO.N,unconnected-(SW2-Pad2)*%
X183852500Y-96500000D03*
%TO.P,SW2,3,3*%
%TO.N,/Microcontroller/SOL2_SEL*%
X188352500Y-90000000D03*
%TO.P,SW2,4,4*%
%TO.N,/Input Display/VCC_E*%
X183852500Y-90000000D03*
%TD*%
D11*
%TO.P,D4,1,K*%
%TO.N,GND*%
X252080000Y-62000000D03*
D12*
%TO.P,D4,2,A*%
%TO.N,Net-(D4-A)*%
X254620000Y-62000000D03*
%TD*%
D13*
%TO.P,J3,1,Pin_1*%
%TO.N,/Input Display/12V_R*%
X145982500Y-105500000D03*
D14*
%TO.P,J3,2,Pin_2*%
%TO.N,Net-(J3-Pin_2)*%
X147982500Y-105500000D03*
%TD*%
D15*
%TO.P,R10,1*%
%TO.N,Net-(R10-Pad1)*%
X243620000Y-81500000D03*
D16*
%TO.P,R10,2*%
%TO.N,/Microcontroller/SOL3_OUT*%
X228380000Y-81500000D03*
%TD*%
D15*
%TO.P,R6,1*%
%TO.N,Net-(R1LED_G2-Pad1)*%
X175852500Y-81500000D03*
D16*
%TO.P,R6,2*%
%TO.N,/Microcontroller/SOL2_OUT*%
X160612500Y-81500000D03*
%TD*%
D11*
%TO.P,D5,1,K*%
%TO.N,GND*%
X135707500Y-61760000D03*
D12*
%TO.P,D5,2,A*%
%TO.N,Net-(D5-A)*%
X138247500Y-61760000D03*
%TD*%
D15*
%TO.P,R1LED_R2,1*%
%TO.N,/Microcontroller/SOL2_WAIT*%
X187852500Y-81500000D03*
D16*
%TO.P,R1LED_R2,2*%
%TO.N,Net-(D2-A)*%
X187852500Y-66260000D03*
%TD*%
D17*
%TO.P,U4,1,VIN*%
%TO.N,/Input Display/12V_R*%
X58620000Y-106500000D03*
%TO.P,U4,2,OUT*%
%TO.N,Net-(U4-OUT)*%
X58620000Y-107770000D03*
%TO.P,U4,3,FB*%
%TO.N,GND*%
X58620000Y-109040000D03*
%TO.P,U4,4,~{EN}*%
X58620000Y-110310000D03*
%TO.P,U4,5,GND*%
X63570000Y-110310000D03*
%TO.P,U4,6,GND*%
X63570000Y-109040000D03*
%TO.P,U4,7,GND*%
X63570000Y-107770000D03*
%TO.P,U4,8,GND*%
X63570000Y-106500000D03*
%TD*%
D15*
%TO.P,R8,1*%
%TO.N,Net-(R1LED_G2-Pad1)*%
X174852500Y-85760000D03*
D16*
%TO.P,R8,2*%
%TO.N,GND*%
X174852500Y-101000000D03*
%TD*%
D11*
%TO.P,D6,1,K*%
%TO.N,GND*%
X120707500Y-61760000D03*
D12*
%TO.P,D6,2,A*%
%TO.N,Net-(D6-A)*%
X123247500Y-61760000D03*
%TD*%
D15*
%TO.P,R7,1*%
%TO.N,Net-(R1LED_G2-Pad1)*%
X182852500Y-81500000D03*
D16*
%TO.P,R7,2*%
%TO.N,GND*%
X182852500Y-66260000D03*
%TD*%
D18*
%TO.P,U1,1,e*%
%TO.N,unconnected-(U1-e-Pad1)*%
X50670000Y-65250000D03*
D19*
%TO.P,U1,2,d*%
%TO.N,unconnected-(U1-d-Pad2)*%
X53210000Y-65250000D03*
%TO.P,U1,3,DPX*%
%TO.N,unconnected-(U1-DPX-Pad3)*%
X55750000Y-65250000D03*
%TO.P,U1,4,c*%
%TO.N,unconnected-(U1-c-Pad4)*%
X58290000Y-65250000D03*
%TO.P,U1,5,g*%
%TO.N,unconnected-(U1-g-Pad5)*%
X60830000Y-65250000D03*
%TO.P,U1,6,CA4*%
%TO.N,unconnected-(U1-CA4-Pad6)*%
X63370000Y-65250000D03*
%TO.P,U1,7,b*%
%TO.N,unconnected-(U1-b-Pad7)*%
X63370000Y-50010000D03*
%TO.P,U1,8,CA3*%
%TO.N,unconnected-(U1-CA3-Pad8)*%
X60830000Y-50010000D03*
%TO.P,U1,9,CA2*%
%TO.N,unconnected-(U1-CA2-Pad9)*%
X58290000Y-50010000D03*
%TO.P,U1,10,f*%
%TO.N,unconnected-(U1-f-Pad10)*%
X55750000Y-50010000D03*
%TO.P,U1,11,a*%
%TO.N,unconnected-(U1-a-Pad11)*%
X53210000Y-50010000D03*
%TO.P,U1,12,CA1*%
%TO.N,unconnected-(U1-CA1-Pad12)*%
X50670000Y-50010000D03*
%TD*%
D10*
%TO.P,SW6,1,1*%
%TO.N,/Input Display/VCC_E*%
X135982500Y-90000000D03*
%TO.P,SW6,2,2*%
%TO.N,Net-(R1-Pad1)*%
X140482500Y-90000000D03*
%TO.P,SW6,3,3*%
%TO.N,unconnected-(SW6-Pad3)*%
X135982500Y-96500000D03*
%TO.P,SW6,4,4*%
%TO.N,unconnected-(SW6-Pad4)*%
X140482500Y-96500000D03*
%TD*%
D15*
%TO.P,R1LED_R3,1*%
%TO.N,/Microcontroller/SOL3_WAIT*%
X255620000Y-81500000D03*
D16*
%TO.P,R1LED_R3,2*%
%TO.N,Net-(D4-A)*%
X255620000Y-66260000D03*
%TD*%
D15*
%TO.P,R1LED_G1,1*%
%TO.N,Net-(R1-Pad1)*%
X140482500Y-81500000D03*
D16*
%TO.P,R1LED_G1,2*%
%TO.N,Net-(D5-A)*%
X140482500Y-66260000D03*
%TD*%
D20*
%TO.P,Q2,1,D*%
%TO.N,GND*%
X208852500Y-65000000D03*
%TO.P,Q2,2,S*%
%TO.N,Net-(J2-Pin_2)*%
X210752500Y-65000000D03*
%TO.P,Q2,3,G*%
%TO.N,GND*%
X209802500Y-63125000D03*
%TD*%
D21*
%TO.P,SW12,1,A*%
%TO.N,/Microcontroller/SOL3_MAIN*%
X226500000Y-89000000D03*
D16*
%TO.P,SW12,2,B*%
%TO.N,/Input Display/VCC_E*%
X234120000Y-89000000D03*
%TD*%
D15*
%TO.P,R9,1*%
%TO.N,GND*%
X241620000Y-105000000D03*
D16*
%TO.P,R9,2*%
%TO.N,/Microcontroller/SOL3_SEL*%
X256860000Y-105000000D03*
%TD*%
D21*
%TO.P,SW13,1,A*%
%TO.N,/Microcontroller/SOL1_MAIN*%
X95362500Y-89500000D03*
D16*
%TO.P,SW13,2,B*%
%TO.N,/Input Display/VCC_E*%
X102982500Y-89500000D03*
%TD*%
D22*
%TO.P,REF\u002A\u002A,1*%
%TO.N,N/C*%
X197432500Y-54000000D03*
D23*
%TO.P,REF\u002A\u002A,2*%
X194892500Y-54000000D03*
%TO.P,REF\u002A\u002A,3*%
X192352500Y-54000000D03*
%TO.P,REF\u002A\u002A,4*%
X189812500Y-54000000D03*
%TO.P,REF\u002A\u002A,5*%
X187272500Y-54000000D03*
%TO.P,REF\u002A\u002A,6*%
X184732500Y-54000000D03*
%TD*%
D10*
%TO.P,SW7,1,1*%
%TO.N,/Input Display/VCC_E*%
X199352500Y-90000000D03*
%TO.P,SW7,2,2*%
%TO.N,Net-(R1LED_G2-Pad1)*%
X203852500Y-90000000D03*
%TO.P,SW7,3,3*%
%TO.N,unconnected-(SW7-Pad3)*%
X199352500Y-96500000D03*
%TO.P,SW7,4,4*%
%TO.N,unconnected-(SW7-Pad4)*%
X203852500Y-96500000D03*
%TD*%
D24*
%TO.P,U1,1,IN*%
%TO.N,/Input Display/12V_R*%
X24620000Y-99550000D03*
D25*
%TO.P,U1,2,GND*%
%TO.N,GND*%
X24620000Y-105025000D03*
%TO.P,U1,3,OUT*%
%TO.N,/Input Display/VCC_E*%
X24620000Y-110500000D03*
%TD*%
D15*
%TO.P,R1LED_G2,1*%
%TO.N,Net-(R1LED_G2-Pad1)*%
X203852500Y-81500000D03*
D16*
%TO.P,R1LED_G2,2*%
%TO.N,Net-(D1-A)*%
X203852500Y-66260000D03*
%TD*%
D15*
%TO.P,R4,1*%
%TO.N,GND*%
X173852500Y-105000000D03*
D16*
%TO.P,R4,2*%
%TO.N,/Microcontroller/SOL2_SEL*%
X189092500Y-105000000D03*
%TD*%
D11*
%TO.P,D3,1,K*%
%TO.N,GND*%
X266845000Y-62000000D03*
D12*
%TO.P,D3,2,A*%
%TO.N,Net-(D3-A)*%
X269385000Y-62000000D03*
%TD*%
D22*
%TO.P,REF\u002A\u002A,1*%
%TO.N,N/C*%
X134062500Y-54000000D03*
D23*
%TO.P,REF\u002A\u002A,2*%
X131522500Y-54000000D03*
%TO.P,REF\u002A\u002A,3*%
X128982500Y-54000000D03*
%TO.P,REF\u002A\u002A,4*%
X126442500Y-54000000D03*
%TO.P,REF\u002A\u002A,5*%
X123902500Y-54000000D03*
%TO.P,REF\u002A\u002A,6*%
X121362500Y-54000000D03*
%TD*%
D15*
%TO.P,R11,1*%
%TO.N,Net-(R10-Pad1)*%
X250620000Y-81500000D03*
D16*
%TO.P,R11,2*%
%TO.N,GND*%
X250620000Y-66260000D03*
%TD*%
D26*
%TO.P,SW3,A,A*%
%TO.N,/Input Display/DT*%
X44620000Y-109000000D03*
D10*
%TO.P,SW3,B,B*%
%TO.N,GND*%
X39620000Y-109000000D03*
%TO.P,SW3,C,C*%
%TO.N,/Input Display/CLOCK*%
X42120000Y-109000000D03*
D27*
%TO.P,SW3,MP*%
%TO.N,N/C*%
X47720000Y-116500000D03*
X36520000Y-116500000D03*
D10*
%TO.P,SW3,S1,S1*%
%TO.N,/Input Display/VCC_E*%
X39620000Y-123500000D03*
%TO.P,SW3,S2,S2*%
%TO.N,/Input Display/SWITCH*%
X44620000Y-123500000D03*
%TD*%
D21*
%TO.P,UC1,1,~{RESET}/PC6*%
%TO.N,unconnected-(UC1-~{RESET}{slash}PC6-Pad1)*%
X43300000Y-84620000D03*
D16*
%TO.P,UC1,2,PD0*%
%TO.N,unconnected-(UC1-PD0-Pad2)*%
X45840000Y-84620000D03*
%TO.P,UC1,3,PD1*%
%TO.N,unconnected-(UC1-PD1-Pad3)*%
X48380000Y-84620000D03*
%TO.P,UC1,4,PD2*%
%TO.N,/Input Display/CLOCK*%
X50920000Y-84620000D03*
%TO.P,UC1,5,PD3*%
%TO.N,/Input Display/DT*%
X53460000Y-84620000D03*
%TO.P,UC1,6,PD4*%
%TO.N,/Microcontroller/SOL1_WAIT*%
X56000000Y-84620000D03*
%TO.P,UC1,7,VCC*%
%TO.N,Net-(U4-OUT)*%
X58540000Y-84620000D03*
%TO.P,UC1,8,GND*%
%TO.N,GND*%
X61080000Y-84620000D03*
%TO.P,UC1,9,XTAL1/PB6*%
%TO.N,unconnected-(UC1-XTAL1{slash}PB6-Pad9)*%
X63620000Y-84620000D03*
%TO.P,UC1,10,XTAL2/PB7*%
%TO.N,unconnected-(UC1-XTAL2{slash}PB7-Pad10)*%
X66160000Y-84620000D03*
%TO.P,UC1,11,PD5*%
%TO.N,/Microcontroller/SOL1_MAIN*%
X68700000Y-84620000D03*
%TO.P,UC1,12,PD6*%
%TO.N,/Microcontroller/SOL1_OUT*%
X71240000Y-84620000D03*
%TO.P,UC1,13,PD7*%
%TO.N,/Microcontroller/SOL1_SEL*%
X73780000Y-84620000D03*
%TO.P,UC1,14,PB0*%
%TO.N,/Microcontroller/SOL2_MAIN*%
X76320000Y-84620000D03*
%TO.P,UC1,15,PB1*%
%TO.N,/Microcontroller/SOL2_OUT*%
X76320000Y-77000000D03*
%TO.P,UC1,16,PB2*%
%TO.N,/Microcontroller/SOL2_WAIT*%
X73780000Y-77000000D03*
%TO.P,UC1,17,PB3*%
%TO.N,/Microcontroller/SOL2_SEL*%
X71240000Y-77000000D03*
%TO.P,UC1,18,PB4*%
%TO.N,/Input Display/SWITCH*%
X68700000Y-77000000D03*
%TO.P,UC1,19,PB5*%
%TO.N,unconnected-(UC1-PB5-Pad19)*%
X66160000Y-77000000D03*
%TO.P,UC1,20,AVCC*%
%TO.N,/Input Display/VCC_E*%
X63620000Y-77000000D03*
%TO.P,UC1,21,AREF*%
%TO.N,unconnected-(UC1-AREF-Pad21)*%
X61080000Y-77000000D03*
%TO.P,UC1,22,GND*%
%TO.N,GND*%
X58540000Y-77000000D03*
%TO.P,UC1,23,PC0*%
%TO.N,/Microcontroller/SOL3_MAIN*%
X56000000Y-77000000D03*
%TO.P,UC1,24,PC1*%
%TO.N,/Microcontroller/SOL3_OUT*%
X53460000Y-77000000D03*
%TO.P,UC1,25,PC2*%
%TO.N,/Microcontroller/SOL3_WAIT*%
X50920000Y-77000000D03*
%TO.P,UC1,26,PC3*%
%TO.N,/Microcontroller/SOL3_SEL*%
X48380000Y-77000000D03*
%TO.P,UC1,27,PC4*%
%TO.N,/Input Display/SDA*%
X45840000Y-77000000D03*
%TO.P,UC1,28,PC5*%
%TO.N,/Input Display/SCL*%
X43300000Y-77000000D03*
%TD*%
D22*
%TO.P,REF\u002A\u002A,1*%
%TO.N,N/C*%
X40170000Y-42750000D03*
D23*
%TO.P,REF\u002A\u002A,2*%
X37630000Y-42750000D03*
%TO.P,REF\u002A\u002A,3*%
X35090000Y-42750000D03*
%TO.P,REF\u002A\u002A,4*%
X32550000Y-42750000D03*
%TD*%
D22*
%TO.P,REF\u002A\u002A,1*%
%TO.N,N/C*%
X56670000Y-42750000D03*
D23*
%TO.P,REF\u002A\u002A,2*%
X54130000Y-42750000D03*
%TO.P,REF\u002A\u002A,3*%
X51590000Y-42750000D03*
%TO.P,REF\u002A\u002A,4*%
X49050000Y-42750000D03*
%TD*%
D11*
%TO.P,D1,1,K*%
%TO.N,GND*%
X199077500Y-62000000D03*
D12*
%TO.P,D1,2,A*%
%TO.N,Net-(D1-A)*%
X201617500Y-62000000D03*
%TD*%
D22*
%TO.P,REF\u002A\u002A,1*%
%TO.N,N/C*%
X265280000Y-54000000D03*
D23*
%TO.P,REF\u002A\u002A,2*%
X262740000Y-54000000D03*
%TO.P,REF\u002A\u002A,3*%
X260200000Y-54000000D03*
%TO.P,REF\u002A\u002A,4*%
X257660000Y-54000000D03*
%TO.P,REF\u002A\u002A,5*%
X255120000Y-54000000D03*
%TO.P,REF\u002A\u002A,6*%
X252580000Y-54000000D03*
%TD*%
D15*
%TO.P,R3,1*%
%TO.N,Net-(R1-Pad1)*%
X111602500Y-85760000D03*
D16*
%TO.P,R3,2*%
%TO.N,GND*%
X111602500Y-101000000D03*
%TD*%
D10*
%TO.P,SW10,1,1*%
%TO.N,unconnected-(SW10-Pad1)*%
X256120000Y-96500000D03*
%TO.P,SW10,2,2*%
%TO.N,unconnected-(SW10-Pad2)*%
X251620000Y-96500000D03*
%TO.P,SW10,3,3*%
%TO.N,/Microcontroller/SOL3_SEL*%
X256120000Y-90000000D03*
%TO.P,SW10,4,4*%
%TO.N,/Input Display/VCC_E*%
X251620000Y-90000000D03*
%TD*%
D20*
%TO.P,Q3,1,D*%
%TO.N,GND*%
X276470000Y-65000000D03*
%TO.P,Q3,2,S*%
%TO.N,Net-(J4-Pin_2)*%
X278370000Y-65000000D03*
%TO.P,Q3,3,G*%
%TO.N,GND*%
X277420000Y-63125000D03*
%TD*%
D11*
%TO.P,D2,1,K*%
%TO.N,GND*%
X184045143Y-62026657D03*
D12*
%TO.P,D2,2,A*%
%TO.N,Net-(D2-A)*%
X186585143Y-62026657D03*
%TD*%
D15*
%TO.P,R2,1*%
%TO.N,Net-(R1-Pad1)*%
X119482500Y-81500000D03*
D16*
%TO.P,R2,2*%
%TO.N,GND*%
X119482500Y-66260000D03*
%TD*%
D22*
%TO.P,J1,1,Pin_1*%
%TO.N,/Input Display/SCL*%
X27870000Y-58370000D03*
D23*
%TO.P,J1,2,Pin_2*%
%TO.N,/Input Display/SDA*%
X27870000Y-55830000D03*
%TO.P,J1,3,Pin_3*%
%TO.N,GND*%
X27870000Y-53290000D03*
%TO.P,J1,4,Pin_4*%
%TO.N,/Input Display/VCC_E*%
X27870000Y-50750000D03*
%TD*%
D21*
%TO.P,SW8,1,A*%
%TO.N,/Microcontroller/SOL2_MAIN*%
X158732500Y-89000000D03*
D16*
%TO.P,SW8,2,B*%
%TO.N,/Input Display/VCC_E*%
X166352500Y-89000000D03*
%TD*%
D13*
%TO.P,J4,1,Pin_1*%
%TO.N,/Input Display/12V_R*%
X277120000Y-105500000D03*
D14*
%TO.P,J4,2,Pin_2*%
%TO.N,Net-(J4-Pin_2)*%
X279120000Y-105500000D03*
%TD*%
D15*
%TO.P,R12,1*%
%TO.N,Net-(R10-Pad1)*%
X242620000Y-85760000D03*
D16*
%TO.P,R12,2*%
%TO.N,GND*%
X242620000Y-101000000D03*
%TD*%
D22*
%TO.P,REF\u002A\u002A,1*%
%TO.N,N/C*%
X74370000Y-42750000D03*
D23*
%TO.P,REF\u002A\u002A,2*%
X71830000Y-42750000D03*
%TO.P,REF\u002A\u002A,3*%
X69290000Y-42750000D03*
%TO.P,REF\u002A\u002A,4*%
X66750000Y-42750000D03*
%TD*%
D15*
%TO.P,R5,1*%
%TO.N,GND*%
X110732500Y-105000000D03*
D16*
%TO.P,R5,2*%
%TO.N,/Microcontroller/SOL1_SEL*%
X125972500Y-105000000D03*
%TD*%
D22*
%TO.P,REF\u002A\u002A,1*%
%TO.N,N/C*%
X134022500Y-113750000D03*
D23*
%TO.P,REF\u002A\u002A,2*%
X131482500Y-113750000D03*
%TD*%
D15*
%TO.P,R1,1*%
%TO.N,Net-(R1-Pad1)*%
X112482500Y-81500000D03*
D16*
%TO.P,R1,2*%
%TO.N,/Microcontroller/SOL1_OUT*%
X97242500Y-81500000D03*
%TD*%
D10*
%TO.P,SW5,1,1*%
%TO.N,unconnected-(SW5-Pad1)*%
X125482500Y-96500000D03*
%TO.P,SW5,2,2*%
%TO.N,unconnected-(SW5-Pad2)*%
X120982500Y-96500000D03*
%TO.P,SW5,3,3*%
%TO.N,/Microcontroller/SOL1_SEL*%
X125482500Y-90000000D03*
%TO.P,SW5,4,4*%
%TO.N,/Input Display/VCC_E*%
X120982500Y-90000000D03*
%TD*%
%TO.P,SW11,1,1*%
%TO.N,/Input Display/VCC_E*%
X267120000Y-90000000D03*
%TO.P,SW11,2,2*%
%TO.N,Net-(R10-Pad1)*%
X271620000Y-90000000D03*
%TO.P,SW11,3,3*%
%TO.N,unconnected-(SW11-Pad3)*%
X267120000Y-96500000D03*
%TO.P,SW11,4,4*%
%TO.N,unconnected-(SW11-Pad4)*%
X271620000Y-96500000D03*
%TD*%
D22*
%TO.P,REF\u002A\u002A,1*%
%TO.N,N/C*%
X197392500Y-114000000D03*
D23*
%TO.P,REF\u002A\u002A,2*%
X194852500Y-114000000D03*
%TD*%
D13*
%TO.P,J2,1,Pin_1*%
%TO.N,/Input Display/12V_R*%
X209352500Y-105500000D03*
D14*
%TO.P,J2,2,Pin_2*%
%TO.N,Net-(J2-Pin_2)*%
X211352500Y-105500000D03*
%TD*%
D20*
%TO.P,Q1,1,D*%
%TO.N,GND*%
X145482500Y-65000000D03*
%TO.P,Q1,2,S*%
%TO.N,Net-(J3-Pin_2)*%
X147382500Y-65000000D03*
%TO.P,Q1,3,G*%
%TO.N,GND*%
X146432500Y-63125000D03*
%TD*%
D15*
%TO.P,R1LED_G3,1*%
%TO.N,Net-(R10-Pad1)*%
X271620000Y-81500000D03*
D16*
%TO.P,R1LED_G3,2*%
%TO.N,Net-(D3-A)*%
X271620000Y-66260000D03*
%TD*%
D15*
%TO.P,R1LED_R1,1*%
%TO.N,/Microcontroller/SOL1_WAIT*%
X124482500Y-81500000D03*
D16*
%TO.P,R1LED_R1,2*%
%TO.N,Net-(D6-A)*%
X124482500Y-66260000D03*
%TD*%
D22*
%TO.P,REF\u002A\u002A,1*%
%TO.N,N/C*%
X260160000Y-114000000D03*
D23*
%TO.P,REF\u002A\u002A,2*%
X257620000Y-114000000D03*
%TD*%
D28*
%TO.N,GND*%
X273500000Y-65000000D03*
X205000000Y-65000000D03*
X58500000Y-114500000D03*
X142500000Y-64500000D03*
%TO.N,/Input Display/SWITCH*%
X54000000Y-105000000D03*
X54000000Y-107500000D03*
%TO.N,Net-(U4-OUT)*%
X56500000Y-108000000D03*
%TD*%
D29*
%TO.N,Net-(D3-A)*%
X271620000Y-64235000D02*
X269385000Y-62000000D01*
X271620000Y-66260000D02*
X271620000Y-64235000D01*
%TO.N,Net-(D4-A)*%
X255620000Y-66260000D02*
X255620000Y-63000000D01*
X255620000Y-63000000D02*
X254620000Y-62000000D01*
%TO.N,GND*%
X144982500Y-64500000D02*
X142500000Y-64500000D01*
X63570000Y-107770000D02*
X63570000Y-109040000D01*
X277420000Y-63125000D02*
X277420000Y-64050000D01*
X146432500Y-63125000D02*
X146432500Y-64050000D01*
X58620000Y-109040000D02*
X58620000Y-110310000D01*
X63570000Y-110310000D02*
X63570000Y-109040000D01*
X208852500Y-65000000D02*
X205000000Y-65000000D01*
X58620000Y-114380000D02*
X58500000Y-114500000D01*
X145482500Y-65000000D02*
X144982500Y-64500000D01*
X209802500Y-63125000D02*
X209802500Y-64050000D01*
X146432500Y-64050000D02*
X145482500Y-65000000D01*
X209802500Y-64050000D02*
X208852500Y-65000000D01*
X239880000Y-95860000D02*
X240120000Y-95620000D01*
X63570000Y-106500000D02*
X63570000Y-107770000D01*
X276470000Y-65000000D02*
X273500000Y-65000000D01*
X58620000Y-110310000D02*
X58620000Y-114380000D01*
X277420000Y-64050000D02*
X276470000Y-65000000D01*
%TO.N,Net-(D5-A)*%
X140482500Y-66260000D02*
X140482500Y-63995000D01*
X140482500Y-63995000D02*
X138247500Y-61760000D01*
%TO.N,Net-(D6-A)*%
X123247500Y-61760000D02*
X124482500Y-62995000D01*
X124482500Y-62995000D02*
X124482500Y-66260000D01*
%TO.N,Net-(D1-A)*%
X203852500Y-64235000D02*
X201617500Y-62000000D01*
X203852500Y-66260000D02*
X203852500Y-64235000D01*
%TO.N,Net-(D2-A)*%
X187852500Y-63294014D02*
X186585143Y-62026657D01*
X187852500Y-66260000D02*
X187852500Y-63294014D01*
%TO.N,/Input Display/VCC_E*%
X24620000Y-121620000D02*
X26500000Y-123500000D01*
X234120000Y-89000000D02*
X250620000Y-89000000D01*
X135982500Y-90000000D02*
X134682500Y-88700000D01*
X250620000Y-89000000D02*
X251620000Y-90000000D01*
X134682500Y-88700000D02*
X122282500Y-88700000D01*
X22570000Y-76000000D02*
X22570000Y-56050000D01*
X265820000Y-88700000D02*
X267120000Y-90000000D01*
X22570000Y-108450000D02*
X22570000Y-76000000D01*
X182852500Y-89000000D02*
X183852500Y-90000000D01*
X251620000Y-90000000D02*
X252920000Y-88700000D01*
X198052500Y-88700000D02*
X199352500Y-90000000D01*
X185152500Y-88700000D02*
X198052500Y-88700000D01*
X62520000Y-75900000D02*
X22670000Y-75900000D01*
X22570000Y-56050000D02*
X27870000Y-50750000D01*
X26500000Y-123500000D02*
X39620000Y-123500000D01*
X122282500Y-88700000D02*
X120982500Y-90000000D01*
X102982500Y-89500000D02*
X120482500Y-89500000D01*
X22670000Y-75900000D02*
X22570000Y-76000000D01*
X24620000Y-110500000D02*
X24620000Y-121620000D01*
X183852500Y-90000000D02*
X185152500Y-88700000D01*
X63620000Y-77000000D02*
X62520000Y-75900000D01*
X166352500Y-89000000D02*
X182852500Y-89000000D01*
X120482500Y-89500000D02*
X120982500Y-90000000D01*
X24620000Y-110500000D02*
X22570000Y-108450000D01*
X252920000Y-88700000D02*
X265820000Y-88700000D01*
%TO.N,/Input Display/SDA*%
X45841156Y-76998844D02*
X45840000Y-77000000D01*
%TO.N,/Input Display/SCL*%
X43301156Y-76998844D02*
X43300000Y-77000000D01*
%TO.N,Net-(J2-Pin_2)*%
X211352500Y-105500000D02*
X211352500Y-65600000D01*
X211352500Y-65600000D02*
X210752500Y-65000000D01*
%TO.N,/Input Display/12V_R*%
X24620000Y-99550000D02*
X24620000Y-101120000D01*
X24620000Y-101120000D02*
X30000000Y-106500000D01*
X30000000Y-106500000D02*
X58620000Y-106500000D01*
%TO.N,Net-(J3-Pin_2)*%
X147982500Y-65600000D02*
X147382500Y-65000000D01*
X147982500Y-105500000D02*
X147982500Y-65600000D01*
%TO.N,Net-(J4-Pin_2)*%
X279120000Y-105500000D02*
X279120000Y-65750000D01*
X279120000Y-65750000D02*
X278370000Y-65000000D01*
%TO.N,Net-(R1-Pad1)*%
X119482500Y-81500000D02*
X112482500Y-81500000D01*
X111602500Y-85760000D02*
X140242500Y-85760000D01*
X111602500Y-82380000D02*
X112482500Y-81500000D01*
X140242500Y-85760000D02*
X140482500Y-86000000D01*
X140482500Y-81500000D02*
X140482500Y-86000000D01*
X140482500Y-86000000D02*
X140482500Y-90000000D01*
X111602500Y-85760000D02*
X111602500Y-82380000D01*
%TO.N,Net-(R1LED_G2-Pad1)*%
X174852500Y-85760000D02*
X174852500Y-82500000D01*
X174852500Y-85760000D02*
X203592500Y-85760000D01*
X174852500Y-82500000D02*
X175852500Y-81500000D01*
X203852500Y-81500000D02*
X203852500Y-85500000D01*
X203852500Y-85500000D02*
X203852500Y-90000000D01*
X182852500Y-81500000D02*
X175852500Y-81500000D01*
X203592500Y-85760000D02*
X203852500Y-85500000D01*
%TO.N,Net-(R10-Pad1)*%
X242620000Y-82500000D02*
X243620000Y-81500000D01*
X271620000Y-81500000D02*
X271620000Y-90000000D01*
X243620000Y-81500000D02*
X250620000Y-81500000D01*
X242620000Y-85760000D02*
X242620000Y-82500000D01*
%TO.N,/Microcontroller/SOL2_SEL*%
X188352500Y-90000000D02*
X189652500Y-91300000D01*
X189652500Y-91300000D02*
X189652500Y-104440000D01*
X189652500Y-104440000D02*
X189092500Y-105000000D01*
%TO.N,/Microcontroller/SOL1_SEL*%
X126782500Y-91300000D02*
X125482500Y-90000000D01*
X125972500Y-105000000D02*
X126782500Y-104190000D01*
X126782500Y-104190000D02*
X126782500Y-91300000D01*
%TO.N,/Microcontroller/SOL3_SEL*%
X257659999Y-104200001D02*
X257659999Y-91539999D01*
X256860000Y-105000000D02*
X257659999Y-104200001D01*
X257659999Y-91539999D02*
X256120000Y-90000000D01*
%TO.N,/Input Display/SWITCH*%
X54000000Y-114120000D02*
X54000000Y-107500000D01*
X67600000Y-91400000D02*
X67600000Y-78100000D01*
X54000000Y-105000000D02*
X67600000Y-91400000D01*
X44620000Y-123500000D02*
X54000000Y-114120000D01*
X67600000Y-78100000D02*
X68700000Y-77000000D01*
%TO.N,Net-(U4-OUT)*%
X56730000Y-107770000D02*
X58620000Y-107770000D01*
X56500000Y-108000000D02*
X56730000Y-107770000D01*
%TD*%
M02*
