%TF.GenerationSoftware,KiCad,Pcbnew,8.0.6*%
%TF.CreationDate,2024-12-22T20:43:38-05:00*%
%TF.ProjectId,flowcontrol_BL,666c6f77-636f-46e7-9472-6f6c5f424c2e,rev?*%
%TF.SameCoordinates,Original*%
%TF.FileFunction,Drillmap*%
%TF.FilePolarity,Positive*%
%FSLAX45Y45*%
G04 Gerber Fmt 4.5, Leading zero omitted, Abs format (unit mm)*
G04 Created by KiCad (PCBNEW 8.0.6) date 2024-12-22 20:43:38*
%MOMM*%
%LPD*%
G01*
G04 APERTURE LIST*
%ADD10C,0.050000*%
%ADD11C,0.200000*%
G04 APERTURE END LIST*
D10*
X1887000Y-3975000D02*
X8687000Y-3975000D01*
X8687000Y-12925000D01*
X1887000Y-12925000D01*
X1887000Y-3975000D01*
X9198250Y-4900000D02*
X15198250Y-4900000D01*
X15198250Y-12000000D01*
X9198250Y-12000000D01*
X9198250Y-4900000D01*
X22300000Y-4900000D02*
X28300000Y-4900000D01*
X28300000Y-12000000D01*
X22300000Y-12000000D01*
X22300000Y-4900000D01*
X15550000Y-4900000D02*
X21550000Y-4900000D01*
X21550000Y-12000000D01*
X15550000Y-12000000D01*
X15550000Y-4900000D01*
D11*
X2145277Y-13238984D02*
X2145277Y-13038984D01*
X2145277Y-13038984D02*
X2192896Y-13038984D01*
X2192896Y-13038984D02*
X2221467Y-13048508D01*
X2221467Y-13048508D02*
X2240515Y-13067555D01*
X2240515Y-13067555D02*
X2250039Y-13086603D01*
X2250039Y-13086603D02*
X2259563Y-13124698D01*
X2259563Y-13124698D02*
X2259563Y-13153269D01*
X2259563Y-13153269D02*
X2250039Y-13191365D01*
X2250039Y-13191365D02*
X2240515Y-13210412D01*
X2240515Y-13210412D02*
X2221467Y-13229460D01*
X2221467Y-13229460D02*
X2192896Y-13238984D01*
X2192896Y-13238984D02*
X2145277Y-13238984D01*
X2345277Y-13238984D02*
X2345277Y-13105650D01*
X2345277Y-13143746D02*
X2354801Y-13124698D01*
X2354801Y-13124698D02*
X2364324Y-13115174D01*
X2364324Y-13115174D02*
X2383372Y-13105650D01*
X2383372Y-13105650D02*
X2402420Y-13105650D01*
X2469086Y-13238984D02*
X2469086Y-13105650D01*
X2469086Y-13038984D02*
X2459563Y-13048508D01*
X2459563Y-13048508D02*
X2469086Y-13058031D01*
X2469086Y-13058031D02*
X2478610Y-13048508D01*
X2478610Y-13048508D02*
X2469086Y-13038984D01*
X2469086Y-13038984D02*
X2469086Y-13058031D01*
X2592896Y-13238984D02*
X2573848Y-13229460D01*
X2573848Y-13229460D02*
X2564324Y-13210412D01*
X2564324Y-13210412D02*
X2564324Y-13038984D01*
X2697658Y-13238984D02*
X2678610Y-13229460D01*
X2678610Y-13229460D02*
X2669086Y-13210412D01*
X2669086Y-13210412D02*
X2669086Y-13038984D01*
X2926229Y-13238984D02*
X2926229Y-13038984D01*
X2926229Y-13038984D02*
X2992896Y-13181841D01*
X2992896Y-13181841D02*
X3059562Y-13038984D01*
X3059562Y-13038984D02*
X3059562Y-13238984D01*
X3240515Y-13238984D02*
X3240515Y-13134222D01*
X3240515Y-13134222D02*
X3230991Y-13115174D01*
X3230991Y-13115174D02*
X3211943Y-13105650D01*
X3211943Y-13105650D02*
X3173848Y-13105650D01*
X3173848Y-13105650D02*
X3154801Y-13115174D01*
X3240515Y-13229460D02*
X3221467Y-13238984D01*
X3221467Y-13238984D02*
X3173848Y-13238984D01*
X3173848Y-13238984D02*
X3154801Y-13229460D01*
X3154801Y-13229460D02*
X3145277Y-13210412D01*
X3145277Y-13210412D02*
X3145277Y-13191365D01*
X3145277Y-13191365D02*
X3154801Y-13172317D01*
X3154801Y-13172317D02*
X3173848Y-13162793D01*
X3173848Y-13162793D02*
X3221467Y-13162793D01*
X3221467Y-13162793D02*
X3240515Y-13153269D01*
X3335753Y-13105650D02*
X3335753Y-13305650D01*
X3335753Y-13115174D02*
X3354801Y-13105650D01*
X3354801Y-13105650D02*
X3392896Y-13105650D01*
X3392896Y-13105650D02*
X3411943Y-13115174D01*
X3411943Y-13115174D02*
X3421467Y-13124698D01*
X3421467Y-13124698D02*
X3430991Y-13143746D01*
X3430991Y-13143746D02*
X3430991Y-13200888D01*
X3430991Y-13200888D02*
X3421467Y-13219936D01*
X3421467Y-13219936D02*
X3411943Y-13229460D01*
X3411943Y-13229460D02*
X3392896Y-13238984D01*
X3392896Y-13238984D02*
X3354801Y-13238984D01*
X3354801Y-13238984D02*
X3335753Y-13229460D01*
X3516705Y-13219936D02*
X3526229Y-13229460D01*
X3526229Y-13229460D02*
X3516705Y-13238984D01*
X3516705Y-13238984D02*
X3507182Y-13229460D01*
X3507182Y-13229460D02*
X3516705Y-13219936D01*
X3516705Y-13219936D02*
X3516705Y-13238984D01*
X3516705Y-13115174D02*
X3526229Y-13124698D01*
X3526229Y-13124698D02*
X3516705Y-13134222D01*
X3516705Y-13134222D02*
X3507182Y-13124698D01*
X3507182Y-13124698D02*
X3516705Y-13115174D01*
X3516705Y-13115174D02*
X3516705Y-13134222D01*
M02*
